<?xml version="1.0" encoding="utf-8"?>
<!-- Generator: Adobe Illustrator 19.2.1, SVG Export Plug-In . SVG Version: 6.00 Build 0)  -->
<svg version="1.1" xmlns="http://www.w3.org/2000/svg" xmlns:xlink="http://www.w3.org/1999/xlink" x="0px" y="0px"
	 viewBox="0 0 800 800" style="enable-background:new 0 0 800 800;" xml:space="preserve">
<style type="text/css">
	.st0{fill:#FFFFFF;}
	.st1{clip-path:url(#SVGID_2_);fill:url(#SVGID_3_);}
	.st2{clip-path:url(#SVGID_2_);fill:url(#SVGID_4_);}
	.st3{clip-path:url(#SVGID_2_);fill:url(#SVGID_5_);}
	.st4{clip-path:url(#SVGID_2_);fill:url(#SVGID_6_);}
	.st5{clip-path:url(#SVGID_2_);fill:url(#SVGID_7_);}
	.st6{clip-path:url(#SVGID_2_);fill:url(#SVGID_8_);}
	.st7{clip-path:url(#SVGID_2_);fill:#4A959C;}
	.st8{clip-path:url(#SVGID_2_);fill:url(#SVGID_9_);}
	.st9{clip-path:url(#SVGID_2_);fill:url(#SVGID_10_);}
	.st10{opacity:0.5;clip-path:url(#SVGID_2_);fill:url(#SVGID_11_);}
	.st11{opacity:0.5;clip-path:url(#SVGID_2_);fill:url(#SVGID_12_);}
	.st12{clip-path:url(#SVGID_2_);fill:#4A7789;}
	.st13{clip-path:url(#SVGID_2_);}
	.st14{fill:url(#SVGID_13_);}
	.st15{fill:#4A959C;}
	.st16{fill:#395D6B;}
	.st17{fill:#4A7789;}
	.st18{clip-path:url(#SVGID_2_);fill:#ECE5D4;}
	.st19{clip-path:url(#SVGID_2_);fill:url(#SVGID_14_);}
</style>
<g id="BACKGROUND">
	<rect x="0" class="st0" width="800" height="800"/>
</g>
<g id="OBJECT">
	<g>
		<defs>
			<rect id="SVGID_1_" x="0" width="800" height="800"/>
		</defs>
		<clipPath id="SVGID_2_">
			<use xlink:href="#SVGID_1_"  style="overflow:visible;"/>
		</clipPath>
		<linearGradient id="SVGID_3_" gradientUnits="userSpaceOnUse" x1="400" y1="618.182" x2="400" y2="147.8393">
			<stop  offset="0" style="stop-color:#F6E0BE"/>
			<stop  offset="1" style="stop-color:#8FC8CB"/>
		</linearGradient>
		<polygon class="st1" points="0,800 800,800 800,0 0,0 0,529.1 		"/>
		<linearGradient id="SVGID_4_" gradientUnits="userSpaceOnUse" x1="681.6455" y1="434.3375" x2="681.6455" y2="344.0655">
			<stop  offset="0" style="stop-color:#F6E0BE"/>
			<stop  offset="1" style="stop-color:#8FC8CB"/>
		</linearGradient>
		<path class="st2" d="M800,299.9c0,0-8.4-6.2-18.9-6.4c-10.4-0.3-14.5,18.3-26.6,20.4c-12.2,2.1-24.1-9.5-29.3-2.6
			c-5.2,6.9-12.1,25-19.5,25.7c-7.4,0.6-10.3-6.3-19-2.3c-8.7,4-11.6,22.2-18,21c-6.4-1.2-10.4-11.6-19.7-6.7
			c-9.3,4.9-1.7,12.1-15.1,14.4c-13.3,2.4-26.7-1.6-29.5,3.9c-2.9,5.5-1.7,15.5-6.3,17.3c-4.7,1.8-21.5-7.9-26.7-1.5
			c-5.2,6.5-8.1,12-8.1,12l236.7-0.9V299.9z"/>
		<linearGradient id="SVGID_5_" gradientUnits="userSpaceOnUse" x1="299.5962" y1="342.4323" x2="299.5962" y2="174.1989">
			<stop  offset="0" style="stop-color:#F6E0BE"/>
			<stop  offset="1" style="stop-color:#8FC8CB"/>
		</linearGradient>
		<path class="st3" d="M481.7,263.6c0,0-13-9.5-29.1-9.9c-16-0.4-22.3,28.2-41,31.4c-18.7,3.2-37.1-14.7-45.1-4
			c-8,10.7-18.6,38.5-30,39.5c-11.4,1-15.8-9.7-29.2-3.5c-13.4,6.2-17.8,34.2-27.6,32.3c-9.8-1.9-16.1-17.9-30.3-10.4
			c-14.3,7.6-2.7,18.6-23.2,22.2c-20.5,3.7-41-2.4-45.5,6c-4.5,8.5-2.6,23.8-9.7,26.6c-7.2,2.7-33-12.2-41.1-2.2
			c-8,10-12.5,18.5-12.5,18.5l364.3-1.3V263.6z"/>
		<linearGradient id="SVGID_6_" gradientUnits="userSpaceOnUse" x1="153.0449" y1="265.3375" x2="153.0449" y2="29.202">
			<stop  offset="0" style="stop-color:#F6E0BE"/>
			<stop  offset="1" style="stop-color:#8FC8CB"/>
		</linearGradient>
		<path class="st4" d="M326.9,104c0,0-2.3-4.3-6.3-9.4c-4.1-5.1-17.2,2.5-20.9,1.1c-3.7-1.4-2.7-9.2-5-13.5
			c-2.3-4.3-12.7-1.2-23.1-3.1c-10.4-1.9-4.5-7.5-11.8-11.3c-7.3-3.8-10.4,4.3-15.4,5.3c-5,1-7.3-13.3-14.1-16.4
			c-6.8-3.1-9.1,2.3-14.9,1.8c-5.8-0.5-11.2-14.7-15.3-20.1c-4.1-5.4-13.4,3.6-22.9,2c-9.5-1.6-12.7-16.2-20.9-16
			c-1.2,0-2.3,0.2-3.4,0.4c-1.1-0.2-2.2-0.3-3.4-0.4c-8.2-0.2-11.3,14.4-20.9,16c-9.5,1.6-18.9-7.5-22.9-2
			c-4.1,5.4-9.5,19.6-15.3,20.1c-5.8,0.5-8.1-4.9-14.9-1.8c-6.8,3.1-9.1,17.4-14.1,16.4c-5-1-8.2-9.1-15.4-5.3
			c-7.3,3.8-1.4,9.4-11.8,11.3C24,81,13.6,77.9,11.3,82.2c-2.3,4.3-1.3,12.1-5,13.5c-3.7,1.4-16.8-6.2-20.9-1.1
			c-4.1,5.1-6.3,9.4-6.3,9.4l173.9-0.6L326.9,104z"/>
		<linearGradient id="SVGID_7_" gradientUnits="userSpaceOnUse" x1="10.603" y1="265.338" x2="10.603" y2="29.2025">
			<stop  offset="0" style="stop-color:#F6E0BE"/>
			<stop  offset="1" style="stop-color:#8FC8CB"/>
		</linearGradient>
		<path class="st5" d="M327.7,176.6c0,0-4.1-7.9-11.6-17.2c-7.4-9.3-31.4,4.6-38.1,2.1c-6.7-2.5-4.9-16.8-9-24.6
			c-4.1-7.9-23.2-2.2-42.2-5.6c-19-3.4-8.3-13.6-21.5-20.6c-13.2-7-19,7.8-28.1,9.6c-9.1,1.8-13.2-24.2-25.6-30
			c-12.4-5.7-16.5,4.2-27.1,3.3c-10.6-0.9-20.4-26.7-27.8-36.6c-7.4-9.9-24.5,6.6-41.8,3.7c-17.4-2.9-23.2-29.5-38-29.1
			c-2.1,0.1-4.2,0.3-6.2,0.7c-2-0.4-4.1-0.6-6.2-0.7c-14.9-0.4-20.7,26.2-38,29.1C-51,63.5-68,47-75.5,56.9
			c-7.4,9.9-17.3,35.7-27.8,36.6c-10.5,0.9-14.7-9-27.1-3.3c-12.4,5.7-16.5,31.7-25.6,30c-9.1-1.8-14.9-16.6-28.1-9.6
			c-13.2,7-2.5,17.2-21.5,20.6c-19,3.4-38-2.3-42.2,5.6c-4.1,7.9-2.4,22.1-9,24.6c-6.7,2.5-30.7-11.3-38.1-2.1
			c-7.4,9.3-11.6,17.2-11.6,17.2l317.1-1.2L327.7,176.6z"/>
		<linearGradient id="SVGID_8_" gradientUnits="userSpaceOnUse" x1="856.3989" y1="265.3379" x2="856.3989" y2="29.2024">
			<stop  offset="0" style="stop-color:#F6E0BE"/>
			<stop  offset="1" style="stop-color:#8FC8CB"/>
		</linearGradient>
		<path class="st6" d="M1173.5,156.9c0,0-4.1-7.9-11.6-17.2c-7.4-9.3-31.4,4.6-38.1,2.1c-6.7-2.5-4.9-16.8-9-24.6
			c-4.1-7.9-23.2-2.2-42.2-5.6c-19-3.4-8.3-13.6-21.5-20.6c-13.2-7-19,7.8-28.1,9.6c-9.1,1.8-13.2-24.2-25.6-30
			c-12.4-5.7-16.5,4.2-27.1,3.3c-10.6-0.9-20.4-26.7-27.8-36.6c-7.4-9.9-24.5,6.6-41.8,3.7c-17.4-2.9-23.2-29.5-38-29.1
			c-2.1,0.1-4.2,0.3-6.2,0.7c-2-0.4-4.1-0.6-6.2-0.7c-14.9-0.4-20.7,26.2-38,29.1c-17.4,3-34.4-13.6-41.8-3.7
			c-7.4,9.9-17.3,35.7-27.8,36.6c-10.5,0.9-14.7-9-27.1-3.3c-12.4,5.7-16.5,31.7-25.6,30c-9.1-1.8-14.9-16.6-28.1-9.6
			c-13.2,7-2.5,17.2-21.5,20.6c-19,3.4-38-2.3-42.2,5.6c-4.1,7.9-2.4,22.1-9,24.6c-6.7,2.5-30.7-11.3-38.1-2.1
			c-7.4,9.3-11.6,17.2-11.6,17.2l317.1-1.2L1173.5,156.9z"/>
		<polygon class="st7" points="792,477.3 505.8,232 147.1,580.5 794.2,588.3 		"/>
		<linearGradient id="SVGID_9_" gradientUnits="userSpaceOnUse" x1="645.6069" y1="236.3379" x2="645.6069" y2="469.338">
			<stop  offset="0" style="stop-color:#F6E0BE"/>
			<stop  offset="1" style="stop-color:#8FC8CB"/>
		</linearGradient>
		<polygon class="st8" points="505.8,232 493.8,243.7 599.9,353.3 556.5,357.6 696.2,497 797.4,479.3 		"/>
		<polygon class="st7" points="429.2,571.5 92,289.1 -170.1,580.5 		"/>
		<linearGradient id="SVGID_10_" gradientUnits="userSpaceOnUse" x1="71.0288" y1="373.7065" x2="218.6303" y2="373.7065">
			<stop  offset="0" style="stop-color:#F6E0BE"/>
			<stop  offset="1" style="stop-color:#8FC8CB"/>
		</linearGradient>
		<polygon class="st9" points="92,289.1 71,337.7 122.7,378.3 87.4,400 136.6,458.3 218.6,395.1 		"/>
		<linearGradient id="SVGID_11_" gradientUnits="userSpaceOnUse" x1="181.8945" y1="552.1578" x2="181.8945" y2="434.4281">
			<stop  offset="0" style="stop-color:#F6E0BE"/>
			<stop  offset="1" style="stop-color:#8FC8CB"/>
		</linearGradient>
		<path class="st10" d="M0,422.9c0,0,13-9.5,29-9.9c16-0.4,22.3,28.2,41,31.4c18.7,3.2,37-14.6,45-4s18.6,38.5,30,39.5
			c11.4,1,15.8-9.7,29.2-3.5c13.4,6.2,17.8,34.2,27.6,32.3c9.8-1.9,16-17.9,30.3-10.3c14.2,7.6,2.7,18.5,23.1,22.2
			c20.5,3.7,41-2.4,45.4,6c4.5,8.5,2.6,23.8,9.7,26.5c7.2,2.7,33-12.2,41-2.2c8,10,12.5,18.5,12.5,18.5L0,567.9V422.9z"/>
		
			<linearGradient id="SVGID_12_" gradientUnits="userSpaceOnUse" x1="2658.8286" y1="495.6027" x2="2658.8286" y2="378.8943" gradientTransform="matrix(-1 0 0 1 3271.6826 0)">
			<stop  offset="0" style="stop-color:#F6E0BE"/>
			<stop  offset="1" style="stop-color:#8FC8CB"/>
		</linearGradient>
		<path class="st11" d="M793.2,367.4c0,0-12.9-9.4-28.8-9.8c-15.9-0.4-22.1,27.9-40.6,31.1c-18.5,3.1-36.7-14.5-44.7-3.9
			c-7.9,10.6-18.4,38.1-29.7,39.1c-11.3,1-15.7-9.6-28.9-3.5c-13.2,6.1-17.6,33.9-27.4,32c-9.7-1.9-15.9-17.7-30-10.3
			c-14.1,7.5-2.6,18.4-22.9,22c-20.3,3.6-40.6-2.4-45,6c-4.4,8.4-2.5,23.6-9.7,26.3c-7.1,2.7-32.7-12.1-40.7-2.2
			c-7.9,9.9-12.3,18.3-12.3,18.3l360.6-1.3V367.4z"/>
		<polygon class="st12" points="800,795 800,320.8 198.3,795 		"/>
		<g class="st13">
			<linearGradient id="SVGID_13_" gradientUnits="userSpaceOnUse" x1="5.000000e-004" y1="551.1475" x2="794.0591" y2="551.1475">
				<stop  offset="0" style="stop-color:#F6E0BE"/>
				<stop  offset="1" style="stop-color:#8FC8CB"/>
			</linearGradient>
			<polygon class="st14" points="0,557.2 320.2,307.3 794.1,677.2 794.1,795 0,795 			"/>
			<polygon class="st15" points="320.2,307.3 256.4,428.3 481.3,569.7 199.2,792 0,792 0,557.2 			"/>
		</g>
		<g class="st13">
			<path class="st16" d="M216.1,691c12.4,4.7,25.1,1.8,25.1,1.8c-28.8-18.1-39.7-34.5-39.7-34.5c12.4,8.2,25.6,4.1,25.6,4.1
				l-20.1-9.6c13.6,5.3,40.9,4.6,40.9,4.6c-15.6-4.4-41.1-34.5-41.1-34.5c7.5,5.3,25.6,8.5,25.6,8.5l-23.9-22.7
				c14.3,9.8,32.7,14.3,32.7,14.3c-42.8-30.7-71.6-109.7-71.6-109.7s-28.8,79-71.6,109.7c0,0,18.4-4.5,32.7-14.3l-23.9,22.7
				c0,0,18.1-3.2,25.6-8.5c0,0-25.5,30.1-41.1,34.5c0,0,27.3,0.7,40.9-4.6l-20.1,9.6c0,0,13.1,4.1,25.6-4.1c0,0-10.9,16.4-39.7,34.5
				c0,0,12.7,2.9,25.1-1.8c0,0-22.4,35-35.7,41.5h82.2h82.2C238.5,726,216.1,691,216.1,691z"/>
			<path class="st16" d="M169.6,513.1c0,0,13.9,77.7,71.6,109.7C241.2,622.8,198,581.7,169.6,513.1z"/>
			<path class="st16" d="M206.8,622.8c0,0,7.1,28,41.1,34.5C247.9,657.3,217.7,635.6,206.8,622.8z"/>
			<path class="st16" d="M201.5,658.2c0,0,6.9,28.3,39.7,34.5C241.2,692.7,220.6,679.2,201.5,658.2z"/>
		</g>
		<g class="st13">
			<path class="st16" d="M337,691c12.4,4.7,25.1,1.8,25.1,1.8c-28.8-18.1-39.7-34.5-39.7-34.5c12.4,8.2,25.6,4.1,25.6,4.1l-20.1-9.6
				c13.6,5.3,40.9,4.6,40.9,4.6c-15.6-4.4-41.1-34.5-41.1-34.5c7.5,5.3,25.6,8.5,25.6,8.5l-23.9-22.7c14.3,9.8,32.7,14.3,32.7,14.3
				c-42.9-30.7-71.6-109.7-71.6-109.7s-28.8,79-71.6,109.7c0,0,18.4-4.5,32.7-14.3l-23.9,22.7c0,0,18.1-3.2,25.6-8.5
				c0,0-25.5,30.1-41.1,34.5c0,0,27.3,0.7,40.9-4.6l-20.1,9.6c0,0,13.1,4.1,25.6-4.1c0,0-10.9,16.4-39.7,34.5c0,0,12.7,2.9,25.1-1.8
				c0,0-22.4,35-35.7,41.5h82.2h82.2C359.4,726,337,691,337,691z"/>
			<path class="st16" d="M290.5,513.1c0,0,13.9,77.7,71.6,109.7C362.1,622.8,318.9,581.7,290.5,513.1z"/>
			<path class="st16" d="M327.7,622.8c0,0,7.1,28,41.1,34.5C368.8,657.3,338.6,635.6,327.7,622.8z"/>
			<path class="st16" d="M322.4,658.2c0,0,6.9,28.3,39.7,34.5C362.1,692.7,341.5,679.2,322.4,658.2z"/>
		</g>
		<g class="st13">
			<path class="st16" d="M458.2,691c12.4,4.7,25.1,1.8,25.1,1.8c-28.8-18.1-39.7-34.5-39.7-34.5c12.4,8.2,25.6,4.1,25.6,4.1
				l-20.1-9.6c13.6,5.3,40.9,4.6,40.9,4.6c-15.6-4.4-41.1-34.5-41.1-34.5c7.5,5.3,25.6,8.5,25.6,8.5l-23.9-22.7
				c14.3,9.8,32.7,14.3,32.7,14.3c-42.8-30.7-71.6-109.7-71.6-109.7s-28.8,79-71.6,109.7c0,0,18.4-4.5,32.7-14.3l-23.9,22.7
				c0,0,18.1-3.2,25.6-8.5c0,0-25.5,30.1-41.1,34.5c0,0,27.3,0.7,40.9-4.6l-20.1,9.6c0,0,13.1,4.1,25.6-4.1c0,0-10.9,16.4-39.7,34.5
				c0,0,12.7,2.9,25.1-1.8c0,0-22.4,35-35.7,41.5h82.2h82.2C480.6,726,458.2,691,458.2,691z"/>
			<path class="st16" d="M411.7,513.1c0,0,13.9,77.7,71.6,109.7C483.3,622.8,440.1,581.7,411.7,513.1z"/>
			<path class="st16" d="M448.9,622.8c0,0,7.1,28,41.1,34.5C490,657.3,459.7,635.6,448.9,622.8z"/>
			<path class="st16" d="M443.6,658.2c0,0,6.9,28.3,39.7,34.5C483.3,692.7,462.7,679.2,443.6,658.2z"/>
		</g>
		<g class="st13">
			<path class="st16" d="M567.2,691c12.4,4.7,25.1,1.8,25.1,1.8c-28.8-18.1-39.7-34.5-39.7-34.5c12.4,8.2,25.6,4.1,25.6,4.1
				l-20.1-9.6c13.6,5.3,40.9,4.6,40.9,4.6c-15.6-4.4-41.1-34.5-41.1-34.5c7.5,5.3,25.6,8.5,25.6,8.5l-23.9-22.7
				c14.3,9.8,32.7,14.3,32.7,14.3c-42.9-30.7-71.6-109.7-71.6-109.7s-28.8,79-71.6,109.7c0,0,18.4-4.5,32.7-14.3l-23.9,22.7
				c0,0,18.1-3.2,25.6-8.5c0,0-25.5,30.1-41.1,34.5c0,0,27.3,0.7,40.9-4.6l-20.1,9.6c0,0,13.1,4.1,25.6-4.1c0,0-10.9,16.4-39.7,34.5
				c0,0,12.7,2.9,25.1-1.8c0,0-22.4,35-35.7,41.5h82.2h82.2C589.6,726,567.2,691,567.2,691z"/>
			<path class="st16" d="M520.7,513.1c0,0,13.9,77.7,71.6,109.7C592.3,622.8,549.1,581.7,520.7,513.1z"/>
			<path class="st16" d="M557.9,622.8c0,0,7.1,28,41.1,34.5C599,657.3,568.7,635.6,557.9,622.8z"/>
			<path class="st16" d="M552.6,658.2c0,0,6.9,28.3,39.7,34.5C592.3,692.7,571.7,679.2,552.6,658.2z"/>
		</g>
		<g class="st13">
			<path class="st16" d="M667.4,691c12.4,4.7,25.1,1.8,25.1,1.8c-28.8-18.1-39.7-34.5-39.7-34.5c12.4,8.2,25.6,4.1,25.6,4.1
				l-20.1-9.6c13.6,5.3,40.9,4.6,40.9,4.6c-15.6-4.4-41.1-34.5-41.1-34.5c7.5,5.3,25.6,8.5,25.6,8.5l-23.9-22.7
				c14.3,9.8,32.7,14.3,32.7,14.3c-42.9-30.7-71.6-109.7-71.6-109.7s-28.8,79-71.6,109.7c0,0,18.4-4.5,32.7-14.3l-23.9,22.7
				c0,0,18.1-3.2,25.6-8.5c0,0-25.5,30.1-41.1,34.5c0,0,27.3,0.7,40.9-4.6l-20.1,9.6c0,0,13.1,4.1,25.6-4.1c0,0-10.9,16.4-39.7,34.5
				c0,0,12.7,2.9,25.1-1.8c0,0-22.4,35-35.7,41.5h82.2h82.2C689.8,726,667.4,691,667.4,691z"/>
			<path class="st16" d="M620.9,513.1c0,0,13.9,77.7,71.6,109.7C692.5,622.8,649.3,581.7,620.9,513.1z"/>
			<path class="st16" d="M658.1,622.8c0,0,7.1,28,41.1,34.5C699.2,657.3,669,635.6,658.1,622.8z"/>
			<path class="st16" d="M652.9,658.2c0,0,6.9,28.3,39.7,34.5C692.5,692.7,672,679.2,652.9,658.2z"/>
		</g>
		<g class="st13">
			<path class="st16" d="M784.5,691c12.4,4.7,25.1,1.8,25.1,1.8c-28.8-18.1-39.7-34.5-39.7-34.5c12.4,8.2,25.6,4.1,25.6,4.1
				l-20.1-9.6c13.6,5.3,40.9,4.6,40.9,4.6c-15.6-4.4-41.1-34.5-41.1-34.5c7.5,5.3,25.6,8.5,25.6,8.5l-23.9-22.7
				c14.3,9.8,32.7,14.3,32.7,14.3c-42.9-30.7-71.6-109.7-71.6-109.7s-28.8,79-71.6,109.7c0,0,18.4-4.5,32.7-14.3l-23.9,22.7
				c0,0,18.1-3.2,25.6-8.5c0,0-25.5,30.1-41.1,34.5c0,0,27.3,0.7,40.9-4.6l-20.1,9.6c0,0,13.1,4.1,25.6-4.1c0,0-10.9,16.4-39.7,34.5
				c0,0,12.7,2.9,25.1-1.8c0,0-22.4,35-35.7,41.5h82.2h82.2C806.9,726,784.5,691,784.5,691z"/>
			<path class="st16" d="M737.9,513.1c0,0,13.9,77.7,71.6,109.7C809.6,622.8,766.4,581.7,737.9,513.1z"/>
			<path class="st16" d="M775.2,622.8c0,0,7.1,28,41.1,34.5C816.2,657.3,786,635.6,775.2,622.8z"/>
			<path class="st16" d="M769.9,658.2c0,0,6.9,28.3,39.7,34.5C809.6,692.7,789,679.2,769.9,658.2z"/>
		</g>
		<g class="st13">
			<path class="st17" d="M270.8,715.8c9.7,4.7,19.7,1.8,19.7,1.8c-22.6-18.1-31.2-34.5-31.2-34.5c9.8,8.2,20.1,4.1,20.1,4.1
				l-15.8-9.6c10.7,5.3,32.2,4.6,32.2,4.6c-12.3-4.4-32.3-34.5-32.3-34.5c5.9,5.3,20.1,8.5,20.1,8.5l-18.8-22.7
				c11.3,9.8,25.7,14.3,25.7,14.3C256.8,616.9,234.2,538,234.2,538s-22.6,79-56.3,109.7c0,0,14.4-4.5,25.7-14.3l-18.8,22.7
				c0,0,14.2-3.2,20.1-8.5c0,0-20,30.1-32.3,34.5c0,0,21.5,0.7,32.2-4.6l-15.8,9.6c0,0,10.3,4.1,20.1-4.1c0,0-8.6,16.4-31.2,34.5
				c0,0,10,2.9,19.7-1.8c0,0-17.6,35-28,41.5h64.6h64.6C288.4,750.8,270.8,715.8,270.8,715.8z"/>
			<path class="st15" d="M234.2,538c0,0,10.9,77.7,56.3,109.7C290.5,647.7,256.5,606.6,234.2,538z"/>
			<path class="st15" d="M263.5,647.7c0,0,5.6,28,32.3,34.5C295.8,682.2,272,660.5,263.5,647.7z"/>
			<path class="st15" d="M259.3,683c0,0,5.4,28.3,31.2,34.5C290.5,717.6,274.3,704,259.3,683z"/>
		</g>
		<g class="st13">
			<path class="st16" d="M111.5,691c12.4,4.7,25.1,1.8,25.1,1.8c-28.8-18.1-39.7-34.5-39.7-34.5c12.4,8.2,25.6,4.1,25.6,4.1
				l-20.1-9.6c13.6,5.3,40.9,4.6,40.9,4.6c-15.6-4.4-41.1-34.5-41.1-34.5c7.5,5.3,25.6,8.5,25.6,8.5l-23.9-22.7
				c14.3,9.8,32.7,14.3,32.7,14.3C93.7,592.1,65,513.1,65,513.1s-28.8,79-71.6,109.7c0,0,18.4-4.5,32.7-14.3L2.1,631.3
				c0,0,18.1-3.2,25.6-8.5c0,0-25.5,30.1-41.1,34.5c0,0,27.3,0.7,40.9-4.6l-20.1,9.6c0,0,13.1,4.1,25.6-4.1c0,0-10.9,16.4-39.7,34.5
				c0,0,12.7,2.9,25.1-1.8c0,0-22.4,35-35.7,41.5H65h82.2C133.9,726,111.5,691,111.5,691z"/>
			<path class="st16" d="M65,513.1c0,0,13.9,77.7,71.6,109.7C136.6,622.8,93.4,581.7,65,513.1z"/>
			<path class="st16" d="M102.2,622.8c0,0,7.1,28,41.1,34.5C143.3,657.3,113,635.6,102.2,622.8z"/>
			<path class="st16" d="M96.9,658.2c0,0,6.9,28.3,39.7,34.5C136.6,692.7,116,679.2,96.9,658.2z"/>
		</g>
		<g class="st13">
			<path class="st17" d="M43,715.8c9.7,4.7,19.7,1.8,19.7,1.8C40.1,699.4,31.5,683,31.5,683c9.8,8.2,20.1,4.1,20.1,4.1l-15.8-9.6
				c10.7,5.3,32.2,4.6,32.2,4.6c-12.3-4.4-32.3-34.5-32.3-34.5c5.9,5.3,20.1,8.5,20.1,8.5L37,633.4c11.2,9.8,25.7,14.3,25.7,14.3
				C29,616.9,6.4,538,6.4,538s-22.6,79-56.3,109.7c0,0,14.4-4.5,25.7-14.3L-43,656.1c0,0,14.2-3.2,20.1-8.5c0,0-20,30.1-32.3,34.5
				c0,0,21.5,0.7,32.2-4.6l-15.8,9.6c0,0,10.3,4.1,20.1-4.1c0,0-8.6,16.4-31.2,34.5c0,0,10,2.9,19.7-1.8c0,0-17.6,35-28,41.5H6.4H71
				C60.6,750.8,43,715.8,43,715.8z"/>
			<path class="st17" d="M6.4,538c0,0,10.9,77.7,56.3,109.7C62.7,647.7,28.8,606.6,6.4,538z"/>
			<path class="st15" d="M35.7,647.7c0,0,5.6,28,32.3,34.5C68,682.2,44.2,660.5,35.7,647.7z"/>
			<path class="st15" d="M31.5,683c0,0,5.4,28.3,31.2,34.5C62.7,717.6,46.5,704,31.5,683z"/>
		</g>
		<g class="st13">
			<path class="st17" d="M160.4,715.8c9.7,4.7,19.7,1.8,19.7,1.8c-22.6-18.1-31.2-34.5-31.2-34.5c9.8,8.2,20.1,4.1,20.1,4.1
				l-15.8-9.6c10.7,5.3,32.2,4.6,32.2,4.6c-12.3-4.4-32.3-34.5-32.3-34.5c5.9,5.3,20.1,8.5,20.1,8.5l-18.8-22.7
				c11.2,9.8,25.7,14.3,25.7,14.3C146.4,616.9,123.8,538,123.8,538s-22.6,79-56.3,109.7c0,0,14.4-4.5,25.7-14.3l-18.8,22.7
				c0,0,14.2-3.2,20.1-8.5c0,0-20,30.1-32.3,34.5c0,0,21.5,0.7,32.2-4.6l-15.8,9.6c0,0,10.3,4.1,20.1-4.1c0,0-8.6,16.4-31.2,34.5
				c0,0,10,2.9,19.7-1.8c0,0-17.6,35-28,41.5h64.6h64.6C178,750.8,160.4,715.8,160.4,715.8z"/>
			<path class="st15" d="M123.8,538c0,0,10.9,77.7,56.3,109.7C180.1,647.7,146.1,606.6,123.8,538z"/>
			<path class="st15" d="M153,647.7c0,0,5.6,28,32.3,34.5C185.4,682.2,161.6,660.5,153,647.7z"/>
			<path class="st15" d="M148.9,683c0,0,5.4,28.3,31.2,34.5C180.1,717.6,163.9,704,148.9,683z"/>
		</g>
		<g class="st13">
			<path class="st17" d="M611.4,715.8c9.7,4.7,19.7,1.8,19.7,1.8c-22.6-18.1-31.2-34.5-31.2-34.5c9.8,8.2,20.1,4.1,20.1,4.1
				l-15.8-9.6c10.7,5.3,32.2,4.6,32.2,4.6c-12.3-4.4-32.3-34.5-32.3-34.5c5.9,5.3,20.1,8.5,20.1,8.5l-18.8-22.7
				c11.2,9.8,25.7,14.3,25.7,14.3C597.4,616.9,574.8,538,574.8,538s-22.6,79-56.3,109.7c0,0,14.4-4.5,25.7-14.3l-18.8,22.7
				c0,0,14.2-3.2,20.1-8.5c0,0-20,30.1-32.3,34.5c0,0,21.5,0.7,32.2-4.6l-15.8,9.6c0,0,10.3,4.1,20.1-4.1c0,0-8.6,16.4-31.2,34.5
				c0,0,10,2.9,19.7-1.8c0,0-17.6,35-28,41.5h64.6h64.6C629,750.8,611.4,715.8,611.4,715.8z"/>
			<path class="st15" d="M574.8,538c0,0,10.9,77.7,56.3,109.7C631.1,647.7,597.2,606.6,574.8,538z"/>
			<path class="st15" d="M604.1,647.7c0,0,5.6,28,32.3,34.5C636.4,682.2,612.6,660.5,604.1,647.7z"/>
			<path class="st15" d="M599.9,683c0,0,5.4,28.3,31.2,34.5C631.1,717.6,614.9,704,599.9,683z"/>
		</g>
		<g class="st13">
			<path class="st17" d="M729.1,715.8c9.7,4.7,19.7,1.8,19.7,1.8c-22.6-18.1-31.2-34.5-31.2-34.5c9.8,8.2,20.1,4.1,20.1,4.1
				l-15.8-9.6c10.7,5.3,32.2,4.6,32.2,4.6c-12.3-4.4-32.3-34.5-32.3-34.5c5.9,5.3,20.1,8.5,20.1,8.5l-18.8-22.7
				c11.2,9.8,25.7,14.3,25.7,14.3C715.1,616.9,692.5,538,692.5,538s-22.6,79-56.3,109.7c0,0,14.4-4.5,25.7-14.3l-18.8,22.7
				c0,0,14.2-3.2,20.1-8.5c0,0-20,30.1-32.3,34.5c0,0,21.5,0.7,32.2-4.6l-15.8,9.6c0,0,10.3,4.1,20.1-4.1c0,0-8.6,16.4-31.2,34.5
				c0,0,10,2.9,19.7-1.8c0,0-17.6,35-28,41.5h64.6h64.6C746.7,750.8,729.1,715.8,729.1,715.8z"/>
			<path class="st15" d="M692.5,538c0,0,10.9,77.7,56.3,109.7C748.8,647.7,714.9,606.6,692.5,538z"/>
			<path class="st15" d="M721.8,647.7c0,0,5.6,28,32.3,34.5C754.1,682.2,730.3,660.5,721.8,647.7z"/>
			<path class="st15" d="M717.6,683c0,0,5.4,28.3,31.2,34.5C748.8,717.6,732.7,704,717.6,683z"/>
		</g>
		<g class="st13">
			<path class="st17" d="M836.7,715.8c9.7,4.7,19.7,1.8,19.7,1.8c-22.6-18.1-31.2-34.5-31.2-34.5c9.8,8.2,20.1,4.1,20.1,4.1
				l-15.8-9.6c10.7,5.3,32.2,4.6,32.2,4.6c-12.3-4.4-32.3-34.5-32.3-34.5c5.9,5.3,20.1,8.5,20.1,8.5l-18.8-22.7
				c11.2,9.8,25.7,14.3,25.7,14.3C822.7,616.9,800.1,538,800.1,538s-22.6,79-56.3,109.7c0,0,14.4-4.5,25.7-14.3l-18.8,22.7
				c0,0,14.2-3.2,20.1-8.5c0,0-20,30.1-32.3,34.5c0,0,21.5,0.7,32.2-4.6l-15.8,9.6c0,0,10.3,4.1,20.1-4.1c0,0-8.6,16.4-31.2,34.5
				c0,0,10,2.9,19.7-1.8c0,0-17.6,35-28,41.5h64.6h64.6C854.3,750.8,836.7,715.8,836.7,715.8z"/>
			<path class="st15" d="M800.1,538c0,0,10.9,77.7,56.3,109.7C856.4,647.7,822.4,606.6,800.1,538z"/>
			<path class="st15" d="M829.3,647.7c0,0,5.6,28,32.3,34.5C861.7,682.2,837.9,660.5,829.3,647.7z"/>
			<path class="st15" d="M825.2,683c0,0,5.4,28.3,31.2,34.5C856.4,717.6,840.2,704,825.2,683z"/>
		</g>
		<g class="st13">
			<path class="st17" d="M383.6,715.8c9.7,4.7,19.7,1.8,19.7,1.8c-22.6-18.1-31.2-34.5-31.2-34.5c9.8,8.2,20.1,4.1,20.1,4.1
				l-15.8-9.6c10.7,5.3,32.2,4.6,32.2,4.6c-12.3-4.4-32.3-34.5-32.3-34.5c5.9,5.3,20.1,8.5,20.1,8.5l-18.8-22.7
				c11.2,9.8,25.7,14.3,25.7,14.3C369.7,616.9,347,538,347,538s-22.6,79-56.3,109.7c0,0,14.4-4.5,25.7-14.3l-18.8,22.7
				c0,0,14.2-3.2,20.1-8.5c0,0-20,30.1-32.3,34.5c0,0,21.5,0.7,32.2-4.6l-15.8,9.6c0,0,10.3,4.1,20.1-4.1c0,0-8.6,16.4-31.2,34.5
				c0,0,10,2.9,19.7-1.8c0,0-17.6,35-28,41.5H347h64.6C401.2,750.8,383.6,715.8,383.6,715.8z"/>
			<path class="st15" d="M347,538c0,0,10.9,77.7,56.3,109.7C403.3,647.7,369.4,606.6,347,538z"/>
			<path class="st15" d="M376.3,647.7c0,0,5.6,28,32.3,34.5C408.6,682.2,384.8,660.5,376.3,647.7z"/>
			<path class="st15" d="M372.2,683c0,0,5.4,28.3,31.2,34.5C403.3,717.6,387.2,704,372.2,683z"/>
		</g>
		<g class="st13">
			<path class="st17" d="M501,715.8c9.7,4.7,19.7,1.8,19.7,1.8c-22.6-18.1-31.2-34.5-31.2-34.5c9.8,8.2,20.1,4.1,20.1,4.1l-15.8-9.6
				c10.7,5.3,32.2,4.6,32.2,4.6c-12.3-4.4-32.3-34.5-32.3-34.5c5.9,5.3,20.1,8.5,20.1,8.5L495,633.4c11.3,9.8,25.7,14.3,25.7,14.3
				C487,616.9,464.4,538,464.4,538s-22.6,79-56.3,109.7c0,0,14.4-4.5,25.7-14.3L415,656.1c0,0,14.2-3.2,20.1-8.5
				c0,0-20,30.1-32.3,34.5c0,0,21.5,0.7,32.2-4.6l-15.8,9.6c0,0,10.3,4.1,20.1-4.1c0,0-8.6,16.4-31.2,34.5c0,0,10,2.9,19.7-1.8
				c0,0-17.6,35-28,41.5h64.6H529C518.6,750.8,501,715.8,501,715.8z"/>
			<path class="st15" d="M464.4,538c0,0,10.9,77.7,56.3,109.7C520.7,647.7,486.7,606.6,464.4,538z"/>
			<path class="st15" d="M493.7,647.7c0,0,5.6,28,32.3,34.5C526,682.2,502.2,660.5,493.7,647.7z"/>
			<path class="st15" d="M489.5,683c0,0,5.4,28.3,31.2,34.5C520.7,717.6,504.5,704,489.5,683z"/>
		</g>
		<path class="st18" d="M0,679.4c0,0,106.1-54.9,296.4-2.3C486.7,729.7,690.5,767,800,664.9V800H0V679.4z"/>
		<linearGradient id="SVGID_14_" gradientUnits="userSpaceOnUse" x1="298.81" y1="416.3384" x2="298.81" y2="416.3384">
			<stop  offset="0" style="stop-color:#F6E0BE"/>
			<stop  offset="1" style="stop-color:#8FC8CB"/>
		</linearGradient>
		<path class="st19" d="M298.8,416.3"/>
		<circle class="st18" cx="304.6" cy="230.4" r="5"/>
		<circle class="st18" cx="198.3" cy="125.3" r="5"/>
		<circle class="st18" cx="443.6" cy="79.3" r="5"/>
		<circle class="st18" cx="615.5" cy="38.3" r="5"/>
		<circle class="st18" cx="757.1" cy="33.3" r="5"/>
		<circle class="st18" cx="769.9" cy="89.4" r="5"/>
		<circle class="st18" cx="672.7" cy="171.4" r="5"/>
		<circle class="st18" cx="764.8" cy="307.3" r="5"/>
		<circle class="st18" cx="488.8" cy="390.1" r="5"/>
		<circle class="st18" cx="198.3" cy="434.8" r="5"/>
		<circle class="st18" cx="51.8" cy="38.3" r="5"/>
		<circle class="st18" cx="193.3" cy="253.7" r="5"/>
		<circle class="st18" cx="193.3" cy="43.3" r="5"/>
		<circle class="st18" cx="46.8" cy="166.4" r="5"/>
		<circle class="st18" cx="334.5" cy="38.3" r="5"/>
		<circle class="st18" cx="387.7" cy="120.3" r="5"/>
		<circle class="st18" cx="395.3" cy="205.3" r="5"/>
		<circle class="st18" cx="538.7" cy="69.3" r="5"/>
		<circle class="st18" cx="645.6" cy="240.4" r="5"/>
		<circle class="st18" cx="735.5" cy="147.3" r="5"/>
		<circle class="st18" cx="780.2" cy="421.4" r="5"/>
		<circle class="st18" cx="687.5" cy="479.5" r="5"/>
		<circle class="st18" cx="562.9" cy="195.3" r="5"/>
		<circle class="st18" cx="493.8" cy="331.9" r="5"/>
		<circle class="st18" cx="730.5" cy="444.9" r="5"/>
		<circle class="st18" cx="174.6" cy="580.5" r="5"/>
		<circle class="st18" cx="368.8" cy="426.4" r="5"/>
		<circle class="st18" cx="543.8" cy="426.4" r="5"/>
		<circle class="st18" cx="473.7" cy="463.3" r="5"/>
		<circle class="st18" cx="650.6" cy="588.3" r="5"/>
		<circle class="st18" cx="509.3" cy="617.8" r="5"/>
		<circle class="st18" cx="762.2" cy="497" r="5"/>
		<circle class="st18" cx="769.9" cy="627.9" r="5"/>
		<circle class="st18" cx="304.8" cy="512.5" r="5"/>
		<circle class="st18" cx="136.6" cy="364.5" r="5"/>
		<circle class="st18" cx="92.4" cy="513.1" r="5"/>
		<circle class="st18" cx="678.7" cy="337" r="5"/>
		<circle class="st18" cx="740.5" cy="245.5" r="5"/>
		<circle class="st18" cx="687.5" cy="74.3" r="5"/>
		<circle class="st18" cx="87.4" cy="205.3" r="5"/>
	</g>
</g>
<g id="DESIGNED_BY_FREEPIK_1_">
</g>
</svg>
