<?xml version="1.0" encoding="utf-8"?>
<!-- Generator: Adobe Illustrator 19.2.1, SVG Export Plug-In . SVG Version: 6.00 Build 0)  -->
<svg version="1.1" id="Layer_1" xmlns="http://www.w3.org/2000/svg" xmlns:xlink="http://www.w3.org/1999/xlink" x="0px" y="0px"
	 viewBox="0 0 288 288" style="enable-background:new 0 0 288 288;" xml:space="preserve">
<style type="text/css">
	.st0{fill:#FFFFFF;}
	.st1{fill-rule:evenodd;clip-rule:evenodd;fill:url(#SVGID_1_);}
	.st2{fill-rule:evenodd;clip-rule:evenodd;fill:url(#SVGID_2_);}
	.st3{fill-rule:evenodd;clip-rule:evenodd;fill:url(#SVGID_3_);}
	.st4{fill-rule:evenodd;clip-rule:evenodd;fill:url(#SVGID_4_);}
	.st5{fill-rule:evenodd;clip-rule:evenodd;fill:url(#SVGID_5_);}
	.st6{fill-rule:evenodd;clip-rule:evenodd;fill:url(#SVGID_6_);}
	.st7{fill-rule:evenodd;clip-rule:evenodd;fill:url(#SVGID_7_);}
	.st8{fill-rule:evenodd;clip-rule:evenodd;fill:url(#SVGID_8_);}
	.st9{fill-rule:evenodd;clip-rule:evenodd;fill:url(#SVGID_9_);}
	.st10{fill-rule:evenodd;clip-rule:evenodd;fill:url(#SVGID_10_);}
	.st11{fill-rule:evenodd;clip-rule:evenodd;fill:url(#SVGID_11_);}
	.st12{fill-rule:evenodd;clip-rule:evenodd;fill:url(#SVGID_12_);}
	.st13{fill-rule:evenodd;clip-rule:evenodd;fill:url(#SVGID_13_);}
	.st14{fill-rule:evenodd;clip-rule:evenodd;fill:url(#SVGID_14_);}
	.st15{fill-rule:evenodd;clip-rule:evenodd;fill:url(#SVGID_15_);}
	.st16{fill-rule:evenodd;clip-rule:evenodd;fill:url(#SVGID_16_);}
	.st17{fill-rule:evenodd;clip-rule:evenodd;fill:url(#SVGID_17_);}
	.st18{fill-rule:evenodd;clip-rule:evenodd;fill:url(#SVGID_18_);}
	.st19{fill-rule:evenodd;clip-rule:evenodd;fill:url(#SVGID_19_);}
	.st20{fill-rule:evenodd;clip-rule:evenodd;fill:url(#SVGID_20_);}
	.st21{fill-rule:evenodd;clip-rule:evenodd;fill:url(#SVGID_21_);}
	.st22{fill-rule:evenodd;clip-rule:evenodd;fill:url(#SVGID_22_);}
	.st23{fill-rule:evenodd;clip-rule:evenodd;fill:url(#SVGID_23_);}
	.st24{fill-rule:evenodd;clip-rule:evenodd;fill:url(#SVGID_24_);}
	.st25{fill-rule:evenodd;clip-rule:evenodd;fill:url(#SVGID_25_);}
	.st26{fill-rule:evenodd;clip-rule:evenodd;fill:url(#SVGID_26_);}
	.st27{fill-rule:evenodd;clip-rule:evenodd;fill:url(#SVGID_27_);}
	.st28{fill-rule:evenodd;clip-rule:evenodd;fill:url(#SVGID_28_);}
	.st29{fill-rule:evenodd;clip-rule:evenodd;fill:url(#SVGID_29_);}
	.st30{fill-rule:evenodd;clip-rule:evenodd;fill:url(#SVGID_30_);}
	.st31{fill-rule:evenodd;clip-rule:evenodd;fill:url(#SVGID_31_);}
	.st32{fill-rule:evenodd;clip-rule:evenodd;fill:url(#SVGID_32_);}
	.st33{fill-rule:evenodd;clip-rule:evenodd;fill:url(#SVGID_33_);}
	.st34{fill-rule:evenodd;clip-rule:evenodd;fill:url(#SVGID_34_);}
	.st35{fill-rule:evenodd;clip-rule:evenodd;fill:url(#SVGID_35_);}
	.st36{fill-rule:evenodd;clip-rule:evenodd;fill:url(#SVGID_36_);}
	.st37{fill-rule:evenodd;clip-rule:evenodd;fill:url(#SVGID_37_);}
	.st38{fill-rule:evenodd;clip-rule:evenodd;fill:url(#SVGID_38_);}
	.st39{fill-rule:evenodd;clip-rule:evenodd;fill:url(#SVGID_39_);}
	.st40{fill-rule:evenodd;clip-rule:evenodd;fill:url(#SVGID_40_);}
	.st41{fill-rule:evenodd;clip-rule:evenodd;fill:url(#SVGID_41_);}
	.st42{fill-rule:evenodd;clip-rule:evenodd;fill:url(#SVGID_42_);}
	.st43{fill-rule:evenodd;clip-rule:evenodd;fill:url(#SVGID_43_);}
	.st44{fill-rule:evenodd;clip-rule:evenodd;fill:url(#SVGID_44_);}
	.st45{fill-rule:evenodd;clip-rule:evenodd;fill:url(#SVGID_45_);}
	.st46{fill-rule:evenodd;clip-rule:evenodd;fill:url(#SVGID_46_);}
	.st47{fill-rule:evenodd;clip-rule:evenodd;fill:url(#SVGID_47_);}
	.st48{fill-rule:evenodd;clip-rule:evenodd;fill:url(#SVGID_48_);}
	.st49{fill-rule:evenodd;clip-rule:evenodd;fill:url(#SVGID_49_);}
	.st50{fill-rule:evenodd;clip-rule:evenodd;fill:url(#SVGID_50_);}
	.st51{fill-rule:evenodd;clip-rule:evenodd;fill:url(#SVGID_51_);}
	.st52{fill-rule:evenodd;clip-rule:evenodd;fill:url(#SVGID_52_);}
	.st53{fill-rule:evenodd;clip-rule:evenodd;fill:url(#SVGID_53_);}
	.st54{fill-rule:evenodd;clip-rule:evenodd;fill:url(#SVGID_54_);}
	.st55{fill-rule:evenodd;clip-rule:evenodd;fill:url(#SVGID_55_);}
	.st56{fill-rule:evenodd;clip-rule:evenodd;fill:url(#SVGID_56_);}
	.st57{fill-rule:evenodd;clip-rule:evenodd;fill:url(#SVGID_57_);}
	.st58{fill-rule:evenodd;clip-rule:evenodd;fill:url(#SVGID_58_);}
	.st59{fill-rule:evenodd;clip-rule:evenodd;fill:url(#SVGID_59_);}
	.st60{fill-rule:evenodd;clip-rule:evenodd;fill:url(#SVGID_60_);}
	.st61{fill-rule:evenodd;clip-rule:evenodd;fill:url(#SVGID_61_);}
	.st62{fill-rule:evenodd;clip-rule:evenodd;fill:url(#SVGID_62_);}
	.st63{fill-rule:evenodd;clip-rule:evenodd;fill:url(#SVGID_63_);}
	.st64{fill-rule:evenodd;clip-rule:evenodd;fill:url(#SVGID_64_);}
	.st65{fill-rule:evenodd;clip-rule:evenodd;fill:url(#SVGID_65_);}
	.st66{fill-rule:evenodd;clip-rule:evenodd;fill:url(#SVGID_66_);}
	.st67{fill-rule:evenodd;clip-rule:evenodd;fill:url(#SVGID_67_);}
	.st68{fill-rule:evenodd;clip-rule:evenodd;fill:url(#SVGID_68_);}
	.st69{fill-rule:evenodd;clip-rule:evenodd;fill:url(#SVGID_69_);}
	.st70{fill-rule:evenodd;clip-rule:evenodd;fill:url(#SVGID_70_);}
	.st71{fill-rule:evenodd;clip-rule:evenodd;fill:url(#SVGID_71_);}
	.st72{fill-rule:evenodd;clip-rule:evenodd;fill:url(#SVGID_72_);}
	.st73{fill-rule:evenodd;clip-rule:evenodd;fill:url(#SVGID_73_);}
	.st74{fill-rule:evenodd;clip-rule:evenodd;fill:url(#SVGID_74_);}
	.st75{fill-rule:evenodd;clip-rule:evenodd;fill:url(#SVGID_75_);}
	.st76{fill-rule:evenodd;clip-rule:evenodd;fill:url(#SVGID_76_);}
	.st77{fill-rule:evenodd;clip-rule:evenodd;fill:url(#SVGID_77_);}
	.st78{fill-rule:evenodd;clip-rule:evenodd;fill:url(#SVGID_78_);}
	.st79{fill-rule:evenodd;clip-rule:evenodd;fill:url(#SVGID_79_);}
	.st80{fill-rule:evenodd;clip-rule:evenodd;fill:url(#SVGID_80_);}
	.st81{fill-rule:evenodd;clip-rule:evenodd;fill:url(#SVGID_81_);}
	.st82{fill-rule:evenodd;clip-rule:evenodd;fill:url(#SVGID_82_);}
	.st83{fill-rule:evenodd;clip-rule:evenodd;fill:url(#SVGID_83_);}
	.st84{fill-rule:evenodd;clip-rule:evenodd;fill:url(#SVGID_84_);}
	.st85{fill-rule:evenodd;clip-rule:evenodd;fill:url(#SVGID_85_);}
	.st86{fill-rule:evenodd;clip-rule:evenodd;fill:url(#SVGID_86_);}
	.st87{fill-rule:evenodd;clip-rule:evenodd;fill:url(#SVGID_87_);}
	.st88{fill-rule:evenodd;clip-rule:evenodd;fill:url(#SVGID_88_);}
	.st89{fill-rule:evenodd;clip-rule:evenodd;fill:url(#SVGID_89_);}
	.st90{fill-rule:evenodd;clip-rule:evenodd;fill:url(#SVGID_90_);}
	.st91{fill-rule:evenodd;clip-rule:evenodd;fill:url(#SVGID_91_);}
	.st92{fill-rule:evenodd;clip-rule:evenodd;fill:url(#SVGID_92_);}
	.st93{fill-rule:evenodd;clip-rule:evenodd;fill:url(#SVGID_93_);}
	.st94{fill-rule:evenodd;clip-rule:evenodd;fill:url(#SVGID_94_);}
	.st95{fill-rule:evenodd;clip-rule:evenodd;fill:url(#SVGID_95_);}
	.st96{fill-rule:evenodd;clip-rule:evenodd;fill:url(#SVGID_96_);}
	.st97{fill-rule:evenodd;clip-rule:evenodd;fill:url(#SVGID_97_);}
	.st98{fill-rule:evenodd;clip-rule:evenodd;fill:url(#SVGID_98_);}
	.st99{fill-rule:evenodd;clip-rule:evenodd;fill:url(#SVGID_99_);}
	.st100{fill-rule:evenodd;clip-rule:evenodd;fill:url(#SVGID_100_);}
	.st101{fill-rule:evenodd;clip-rule:evenodd;fill:url(#SVGID_101_);}
	.st102{fill-rule:evenodd;clip-rule:evenodd;fill:url(#SVGID_102_);}
	.st103{fill-rule:evenodd;clip-rule:evenodd;fill:url(#SVGID_103_);}
</style>
<g>
	<rect x="0" y="0" class="st0" width="288" height="288"/>
	<g>
		<linearGradient id="SVGID_1_" gradientUnits="userSpaceOnUse" x1="-121.7746" y1="200.6731" x2="380.699" y2="-28.8142">
			<stop  offset="0" style="stop-color:#FF1515"/>
			<stop  offset="0.3065" style="stop-color:#9852F4"/>
			<stop  offset="0.6452" style="stop-color:#00D1E9"/>
			<stop  offset="0.9946" style="stop-color:#0054D4"/>
		</linearGradient>
		<path class="st1" d="M288,14.8c-0.7-1.1-1.4-2.1-2-3.2c-0.2-0.4-0.5-0.5-0.9-0.5c-5.5-0.1-11-0.3-16.4-0.4c-0.1,0-0.2,0-0.4,0.1
			c0.1,0.2,0.1,0.4,0.2,0.6c2.8,4.6,5.6,9.1,8.4,13.7c0.3,0.5,0.6,0.7,1.2,0.7c3.3,0.1,6.6,0.2,10,0.2c0,0.3,0,0.5,0,0.8
			c-0.4,0-0.8-0.1-1.2-0.1c-3-0.1-6.1-0.2-9.1-0.2c-0.5,0-0.9-0.1-1.2-0.6c-3.1-5.1-6.3-10.3-9.4-15.4c-0.1-0.1-0.1-0.2-0.2-0.4
			c0.2,0,0.4-0.1,0.6-0.1c6,0.2,11.9,0.3,17.9,0.5c0.6,0,0.9,0.2,1.2,0.7c0.5,0.8,1,1.5,1.5,2.3C288,13.8,288,14.3,288,14.8z"/>
		<linearGradient id="SVGID_2_" gradientUnits="userSpaceOnUse" x1="-68.2975" y1="317.7674" x2="434.1618" y2="88.2866">
			<stop  offset="0" style="stop-color:#FF1515"/>
			<stop  offset="0.3065" style="stop-color:#9852F4"/>
			<stop  offset="0.6452" style="stop-color:#00D1E9"/>
			<stop  offset="0.9946" style="stop-color:#0054D4"/>
		</linearGradient>
		<path class="st2" d="M288,150.4c-0.4,0-0.9,0.1-1.3,0.1c-2.8,0.1-5.7,0.2-8.5,0.2c-0.6,0-1,0.2-1.3,0.7c-2.7,4.5-5.5,9-8.3,13.5
			c-0.1,0.2-0.2,0.5-0.4,0.8c0.4,0,0.7,0,1,0c5.2-0.1,10.4-0.3,15.6-0.4c0.7,0,1.1-0.2,1.4-0.8c0.6-1,1.2-2.1,1.9-3.1
			c0,0.5,0,1,0,1.4c-0.5,0.8-1,1.6-1.5,2.4c-0.3,0.5-0.7,0.7-1.2,0.7c-5.3,0.1-10.7,0.3-16,0.4c-0.7,0-1.5,0-2.3,0
			c0.1-0.2,0.2-0.4,0.3-0.6c3.1-5,6.2-10,9.2-15.1c0.3-0.5,0.7-0.8,1.3-0.8c3.4-0.1,6.8-0.2,10.3-0.3C288,149.9,288,150.2,288,150.4
			z"/>
		<linearGradient id="SVGID_3_" gradientUnits="userSpaceOnUse" x1="-110.5121" y1="225.3533" x2="391.9565" y2="-4.1318">
			<stop  offset="0" style="stop-color:#FF1515"/>
			<stop  offset="0.3065" style="stop-color:#9852F4"/>
			<stop  offset="0.6452" style="stop-color:#00D1E9"/>
			<stop  offset="0.9946" style="stop-color:#0054D4"/>
		</linearGradient>
		<path class="st3" d="M288,38.7c-0.4,0-0.9,0.1-1.3,0.1c-2.8,0.1-5.7,0.2-8.5,0.2c-0.6,0-1,0.2-1.3,0.7c-2.7,4.5-5.5,9-8.3,13.5
			c-0.1,0.2-0.2,0.5-0.4,0.8c0.4,0,0.7,0,1,0c5.2-0.1,10.4-0.3,15.6-0.4c0.7,0,1.1-0.2,1.4-0.8c0.6-1,1.2-2,1.9-3.1c0,0.5,0,1,0,1.4
			c-0.5,0.8-1,1.6-1.5,2.4c-0.3,0.5-0.7,0.7-1.2,0.7c-5.1,0.1-10.3,0.3-15.4,0.4c-1,0-1.9,0-3,0c0.1-0.2,0.2-0.5,0.3-0.7
			c3-5,6.1-9.9,9.1-14.9c0.4-0.6,0.8-0.8,1.5-0.9c3.4-0.1,6.8-0.2,10.2-0.3C288,38.2,288,38.4,288,38.7z"/>
		<linearGradient id="SVGID_4_" gradientUnits="userSpaceOnUse" x1="-37.3719" y1="385.5186" x2="465.1078" y2="156.0285">
			<stop  offset="0" style="stop-color:#FF1515"/>
			<stop  offset="0.3065" style="stop-color:#9852F4"/>
			<stop  offset="0.6452" style="stop-color:#00D1E9"/>
			<stop  offset="0.9946" style="stop-color:#0054D4"/>
		</linearGradient>
		<path class="st4" d="M288,238.2c-0.7-1.1-1.4-2.1-2-3.2c-0.2-0.4-0.5-0.5-0.9-0.5c-5.5-0.1-11-0.3-16.4-0.4c-0.1,0-0.2,0-0.4,0.1
			c0.1,0.2,0.1,0.4,0.2,0.6c2.8,4.6,5.6,9.1,8.4,13.7c0.3,0.5,0.6,0.7,1.2,0.7c3.3,0.1,6.6,0.2,10,0.2c0,0.3,0,0.5,0,0.8
			c-0.4,0-0.8-0.1-1.2-0.1c-3-0.1-6.1-0.2-9.1-0.2c-0.5,0-0.9-0.1-1.2-0.6c-3.1-5.1-6.3-10.3-9.4-15.4c-0.1-0.1-0.1-0.2-0.2-0.4
			c0.3,0,0.5-0.1,0.8-0.1c5.8,0.2,11.7,0.3,17.5,0.5c0.7,0,1.1,0.3,1.4,0.8c0.4,0.8,1,1.5,1.4,2.2C288,237.2,288,237.7,288,238.2z"
			/>
		<linearGradient id="SVGID_5_" gradientUnits="userSpaceOnUse" x1="-26.0918" y1="410.1945" x2="476.3735" y2="180.711">
			<stop  offset="0" style="stop-color:#FF1515"/>
			<stop  offset="0.3065" style="stop-color:#9852F4"/>
			<stop  offset="0.6452" style="stop-color:#00D1E9"/>
			<stop  offset="0.9946" style="stop-color:#0054D4"/>
		</linearGradient>
		<path class="st5" d="M288,262.1c-0.4,0-0.9,0.1-1.3,0.1c-2.8,0.1-5.7,0.2-8.5,0.2c-0.6,0-1,0.2-1.3,0.7c-2.7,4.5-5.5,9-8.3,13.5
			c-0.1,0.2-0.2,0.5-0.4,0.8c0.5,0,0.8,0,1.2,0c5.1-0.1,10.2-0.3,15.3-0.4c0.7,0,1.2-0.2,1.6-0.9c0.6-1,1.2-2,1.8-3c0,0.5,0,1,0,1.4
			c-0.5,0.8-1,1.6-1.5,2.4c-0.3,0.5-0.7,0.7-1.2,0.7c-5.1,0.1-10.3,0.3-15.4,0.4c-1,0-1.9,0-2.9,0c0.1-0.2,0.2-0.4,0.3-0.6
			c3.1-5,6.2-10,9.2-15.1c0.3-0.5,0.7-0.8,1.3-0.8c3.4-0.1,6.8-0.2,10.3-0.3C288,261.7,288,261.9,288,262.1z"/>
		<linearGradient id="SVGID_6_" gradientUnits="userSpaceOnUse" x1="-79.5703" y1="293.0997" x2="422.9031" y2="63.6125">
			<stop  offset="0" style="stop-color:#FF1515"/>
			<stop  offset="0.3065" style="stop-color:#9852F4"/>
			<stop  offset="0.6452" style="stop-color:#00D1E9"/>
			<stop  offset="0.9946" style="stop-color:#0054D4"/>
		</linearGradient>
		<path class="st6" d="M288,126.5c-0.7-1.1-1.4-2.1-2-3.2c-0.2-0.4-0.5-0.5-0.9-0.5c-5.5-0.1-11-0.3-16.4-0.4c-0.1,0-0.2,0-0.4,0.1
			c0.1,0.2,0.1,0.4,0.2,0.6c2.8,4.6,5.6,9.1,8.4,13.7c0.3,0.5,0.6,0.7,1.2,0.7c3.3,0.1,6.6,0.2,10,0.2c0,0.3,0,0.5,0,0.8
			c-0.4,0-0.9-0.1-1.3-0.1c-3-0.1-6-0.2-9-0.2c-0.5,0-0.9-0.1-1.2-0.6c-3.1-5.1-6.3-10.3-9.4-15.4c-0.1-0.1-0.1-0.2-0.2-0.4
			c0.2,0,0.4-0.1,0.6-0.1c6,0.2,11.9,0.3,17.9,0.5c0.6,0,0.9,0.2,1.2,0.7c0.5,0.8,1,1.5,1.5,2.3C288,125.5,288,126,288,126.5z"/>
		<linearGradient id="SVGID_7_" gradientUnits="userSpaceOnUse" x1="-58.5061" y1="339.2514" x2="443.9764" y2="109.7599">
			<stop  offset="0" style="stop-color:#FF1515"/>
			<stop  offset="0.3065" style="stop-color:#9852F4"/>
			<stop  offset="0.6452" style="stop-color:#00D1E9"/>
			<stop  offset="0.9946" style="stop-color:#0054D4"/>
		</linearGradient>
		<path class="st7" d="M288,182.4c-0.6-1-1.3-2-1.9-3.1c-0.3-0.6-0.7-0.8-1.4-0.8c-3.1-0.1-6.2-0.1-9.3-0.2
			c-2.2-0.1-4.3-0.1-6.5-0.2c-0.2,0-0.5,0-0.8,0c0.2,0.4,0.4,0.7,0.5,1c2.7,4.4,5.4,8.8,8.1,13.2c0.3,0.6,0.7,0.8,1.4,0.8
			c2.6,0,5.3,0.1,7.9,0.2c0.6,0,1.3,0.1,1.9,0.2c0,0.2,0,0.4,0,0.6c-3.4-0.1-6.9-0.2-10.3-0.3c-0.5,0-0.9-0.1-1.3-0.7
			c-3.1-5.1-6.3-10.2-9.4-15.3c-0.1-0.1-0.1-0.2-0.2-0.4c0.3,0,0.5-0.1,0.6-0.1c5.9,0.2,11.9,0.3,17.8,0.5c0.6,0,1,0.2,1.3,0.8
			c0.5,0.8,1,1.6,1.5,2.3C288,181.5,288,182,288,182.4z"/>
		<linearGradient id="SVGID_8_" gradientUnits="userSpaceOnUse" x1="-47.2039" y1="363.9796" x2="455.2692" y2="134.4925">
			<stop  offset="0" style="stop-color:#FF1515"/>
			<stop  offset="0.3065" style="stop-color:#9852F4"/>
			<stop  offset="0.6452" style="stop-color:#00D1E9"/>
			<stop  offset="0.9946" style="stop-color:#0054D4"/>
		</linearGradient>
		<path class="st8" d="M288,206.3c-3.3,0.1-6.6,0.2-9.9,0.2c-0.6,0-0.9,0.1-1.3,0.7c-2.8,4.6-5.6,9.1-8.4,13.7
			c-0.1,0.2-0.2,0.3-0.3,0.6c0.3,0,0.5,0.1,0.7,0.1c5.4-0.1,10.8-0.3,16.1-0.4c0.5,0,0.8-0.2,1.1-0.6c0.6-1.1,1.3-2.1,2-3.1
			c0,0.5,0,1,0,1.4c-0.5,0.7-1,1.4-1.4,2.1c-0.4,0.7-0.9,0.9-1.6,0.9c-3,0-6,0.2-8.9,0.2c-2.7,0.1-5.4,0.1-8.1,0.2
			c-0.3,0-0.7,0-1.1,0c0.2-0.4,0.3-0.6,0.5-0.9c3-4.9,6.1-9.8,9.1-14.8c0.3-0.6,0.7-0.8,1.4-0.8c3,0,6-0.1,9-0.2
			c0.4,0,0.8-0.1,1.2-0.1C288,205.8,288,206,288,206.3z"/>
		<linearGradient id="SVGID_9_" gradientUnits="userSpaceOnUse" x1="-100.7103" y1="246.8262" x2="401.7635" y2="17.3388">
			<stop  offset="0" style="stop-color:#FF1515"/>
			<stop  offset="0.3065" style="stop-color:#9852F4"/>
			<stop  offset="0.6452" style="stop-color:#00D1E9"/>
			<stop  offset="0.9946" style="stop-color:#0054D4"/>
		</linearGradient>
		<path class="st9" d="M288,70.7c-0.6-1-1.3-2-1.9-3.1c-0.3-0.6-0.7-0.8-1.4-0.8c-3.2-0.1-6.3-0.1-9.5-0.2c-2.1-0.1-4.2-0.1-6.4-0.2
			c-0.2,0-0.5,0-0.8,0c0.2,0.4,0.3,0.6,0.5,0.9c2.7,4.4,5.5,8.9,8.2,13.3c0.3,0.6,0.7,0.8,1.4,0.8c2.6,0,5.3,0.1,7.9,0.2
			c0.6,0,1.3,0.1,1.9,0.2c0,0.2,0,0.4,0,0.6c-3.4-0.1-6.9-0.2-10.3-0.3c-0.5,0-0.9-0.1-1.3-0.7c-3.1-5.1-6.3-10.2-9.4-15.3
			c-0.1-0.1-0.1-0.2-0.2-0.4c0.3,0,0.5-0.1,0.7-0.1c5.9,0.2,11.7,0.3,17.6,0.5c0.7,0,1.1,0.3,1.4,0.9c0.4,0.8,0.9,1.5,1.4,2.3
			C288,69.8,288,70.3,288,70.7z"/>
		<linearGradient id="SVGID_10_" gradientUnits="userSpaceOnUse" x1="-89.4146" y1="271.5547" x2="413.0591" y2="42.0672">
			<stop  offset="0" style="stop-color:#FF1515"/>
			<stop  offset="0.3065" style="stop-color:#9852F4"/>
			<stop  offset="0.6452" style="stop-color:#00D1E9"/>
			<stop  offset="0.9946" style="stop-color:#0054D4"/>
		</linearGradient>
		<path class="st10" d="M288,94.6c-3.3,0.1-6.6,0.2-9.9,0.2c-0.6,0-0.9,0.1-1.3,0.7c-2.8,4.6-5.6,9.1-8.4,13.7
			c-0.1,0.2-0.2,0.4-0.3,0.6c0.3,0,0.5,0.1,0.7,0.1c5.4-0.1,10.8-0.3,16.1-0.4c0.5,0,0.8-0.2,1.1-0.6c0.6-1.1,1.3-2.1,2-3.1
			c0,0.5,0,1,0,1.4c-0.5,0.7-1,1.4-1.4,2.1c-0.4,0.7-0.9,0.9-1.6,0.9c-3,0-6,0.2-8.9,0.2c-2.7,0.1-5.4,0.1-8.1,0.2
			c-0.3,0-0.7,0-1.1,0c0.2-0.4,0.3-0.6,0.5-0.9c3-4.9,6.1-9.8,9.1-14.8c0.3-0.6,0.7-0.8,1.4-0.8c3,0,6-0.1,9-0.2
			c0.4,0,0.8-0.1,1.2-0.1C288,94.1,288,94.3,288,94.6z"/>
		<linearGradient id="SVGID_11_" gradientUnits="userSpaceOnUse" x1="-137.1471" y1="167.0524" x2="365.3313" y2="-62.4371">
			<stop  offset="0" style="stop-color:#FF1515"/>
			<stop  offset="0.3065" style="stop-color:#9852F4"/>
			<stop  offset="0.6452" style="stop-color:#00D1E9"/>
			<stop  offset="0.9946" style="stop-color:#0054D4"/>
		</linearGradient>
		<path class="st11" d="M202.8,0c-0.8,1.5-1.6,3-2.4,4.5c2.7,5,5.5,10.1,8.3,15.4c2.9-5.3,5.6-10.3,8.3-15.4c-0.8-1.5-1.6-3-2.4-4.5
			c0.3,0,0.5,0,0.8,0c0.8,1.5,1.6,3,2.4,4.5c-3,5.5-6,11.1-9,16.7c-0.6-0.6-8.3-14.6-9.2-16.7c0.8-1.5,1.5-3,2.3-4.4
			C202.3,0,202.6,0,202.8,0z"/>
		<linearGradient id="SVGID_12_" gradientUnits="userSpaceOnUse" x1="-170.5826" y1="93.8192" x2="331.8729" y2="-135.6599">
			<stop  offset="0" style="stop-color:#FF1515"/>
			<stop  offset="0.3065" style="stop-color:#9852F4"/>
			<stop  offset="0.6452" style="stop-color:#00D1E9"/>
			<stop  offset="0.9946" style="stop-color:#0054D4"/>
		</linearGradient>
		<path class="st12" d="M9.1,0c-0.8,1.5-1.6,3-2.4,4.5c2.7,5,5.5,10.1,8.3,15.4c2.9-5.3,5.6-10.3,8.3-15.4c-0.8-1.5-1.6-3-2.4-4.5
			c0.3,0,0.5,0,0.8,0c0.8,1.5,1.5,3,2.4,4.5c-3,5.5-6,11.1-9,16.7C14.5,20.6,6.8,6.6,5.9,4.4c0.8-1.5,1.5-3,2.3-4.4
			C8.5,0,8.8,0,9.1,0z"/>
		<linearGradient id="SVGID_13_" gradientUnits="userSpaceOnUse" x1="-153.8593" y1="130.4333" x2="348.6018" y2="-99.0483">
			<stop  offset="0" style="stop-color:#FF1515"/>
			<stop  offset="0.3065" style="stop-color:#9852F4"/>
			<stop  offset="0.6452" style="stop-color:#00D1E9"/>
			<stop  offset="0.9946" style="stop-color:#0054D4"/>
		</linearGradient>
		<path class="st13" d="M105.9,0c-0.8,1.5-1.6,3-2.4,4.5c2.7,5,5.5,10.1,8.3,15.4c2.9-5.3,5.6-10.3,8.3-15.4c-0.8-1.5-1.6-3-2.4-4.5
			c0.3,0,0.5,0,0.8,0c0.8,1.5,1.5,3,2.4,4.5c-3,5.5-6,11.1-9,16.7c-0.6-0.6-8.3-14.6-9.2-16.7c0.8-1.5,1.5-3,2.3-4.4
			C105.4,0,105.7,0,105.9,0z"/>
		<linearGradient id="SVGID_14_" gradientUnits="userSpaceOnUse" x1="-146.5562" y1="146.4178" x2="355.8824" y2="-83.0535">
			<stop  offset="0" style="stop-color:#FF1515"/>
			<stop  offset="0.3065" style="stop-color:#9852F4"/>
			<stop  offset="0.6452" style="stop-color:#00D1E9"/>
			<stop  offset="0.9946" style="stop-color:#0054D4"/>
		</linearGradient>
		<path class="st14" d="M0,81.9c1.3,0,2.6,0,4,0c-0.1-0.2-0.1-0.4-0.2-0.6c-1.1-1.8-2.2-3.5-3.3-5.3c-0.1-0.2-0.4-0.4-0.6-0.5
			c0-0.5,0-1,0-1.4c0.2,0.2,0.4,0.3,0.5,0.5c1.6,2.6,3.2,5.1,4.7,7.7c0.1,0.1,0.1,0.2,0.1,0.3c-0.7,0.3-3.6,0.2-5.3,0
			C0,82.3,0,82.1,0,81.9z"/>
		<linearGradient id="SVGID_15_" gradientUnits="userSpaceOnUse" x1="-104.3412" y1="238.8408" x2="398.0699" y2="9.382">
			<stop  offset="0" style="stop-color:#FF1515"/>
			<stop  offset="0.3065" style="stop-color:#9852F4"/>
			<stop  offset="0.6452" style="stop-color:#00D1E9"/>
			<stop  offset="0.9946" style="stop-color:#0054D4"/>
		</linearGradient>
		<path class="st15" d="M0,193.6c1.3,0,2.6,0,4,0c-0.1-0.2-0.1-0.4-0.2-0.6c-1.1-1.8-2.2-3.5-3.3-5.3c-0.1-0.2-0.4-0.4-0.6-0.5
			c0-0.5,0-1,0-1.4c0.2,0.2,0.4,0.3,0.5,0.5c1.6,2.6,3.2,5.1,4.7,7.7c0.1,0.1,0.1,0.2,0.1,0.3c-0.7,0.3-3.6,0.2-5.3,0
			C0,194,0,193.8,0,193.6z"/>
		<linearGradient id="SVGID_16_" gradientUnits="userSpaceOnUse" x1="-118.4251" y1="208.0454" x2="384.0623" y2="-21.4482">
			<stop  offset="0" style="stop-color:#FF1515"/>
			<stop  offset="0.3065" style="stop-color:#9852F4"/>
			<stop  offset="0.6452" style="stop-color:#00D1E9"/>
			<stop  offset="0.9946" style="stop-color:#0054D4"/>
		</linearGradient>
		<path class="st16" d="M0,156.7c0.2-0.1,0.4-0.3,0.5-0.4c1.2-1.8,2.3-3.7,3.4-5.6c0-0.1,0.1-0.2,0.1-0.4c-1.4,0-2.7,0-4.1,0
			c0-0.2,0-0.4,0-0.6c1.8-0.1,3.5-0.2,5.4-0.3c-0.2,0.4-0.3,0.6-0.4,0.8c-1.5,2.4-3,4.8-4.5,7.2c-0.2,0.3-0.4,0.4-0.6,0.7
			C0,157.7,0,157.2,0,156.7z"/>
		<linearGradient id="SVGID_17_" gradientUnits="userSpaceOnUse" x1="-76.2167" y1="300.4714" x2="426.2944" y2="70.967">
			<stop  offset="0" style="stop-color:#FF1515"/>
			<stop  offset="0.3065" style="stop-color:#9852F4"/>
			<stop  offset="0.6452" style="stop-color:#00D1E9"/>
			<stop  offset="0.9946" style="stop-color:#0054D4"/>
		</linearGradient>
		<path class="st17" d="M0,268.4c0.2-0.1,0.4-0.3,0.5-0.4c1.2-1.8,2.3-3.7,3.4-5.6c0-0.1,0.1-0.2,0.1-0.4c-1.4,0-2.7,0-4.1,0
			c0-0.2,0-0.4,0-0.6c1.8-0.1,3.5-0.2,5.4-0.3c-0.2,0.4-0.2,0.5-0.3,0.7c-1.5,2.5-3,4.9-4.6,7.4c-0.1,0.2-0.4,0.4-0.6,0.6
			C0,269.4,0,268.9,0,268.4z"/>
		<linearGradient id="SVGID_18_" gradientUnits="userSpaceOnUse" x1="-160.6285" y1="115.6173" x2="341.8276" y2="-113.862">
			<stop  offset="0" style="stop-color:#FF1515"/>
			<stop  offset="0.3065" style="stop-color:#9852F4"/>
			<stop  offset="0.6452" style="stop-color:#00D1E9"/>
			<stop  offset="0.9946" style="stop-color:#0054D4"/>
		</linearGradient>
		<path class="st18" d="M0,45c0.2-0.1,0.4-0.3,0.5-0.4c1.2-1.8,2.3-3.7,3.4-5.6C4,39,4,38.9,4.1,38.7c-1.4,0-2.7,0-4.1,0
			c0-0.2,0-0.4,0-0.6c1.8-0.1,3.5-0.2,5.5-0.3c-0.2,0.5-0.4,0.7-0.5,1c-1.4,2.3-2.9,4.7-4.3,7C0.5,46,0.2,46.2,0,46.5
			C0,46,0,45.5,0,45z"/>
		<linearGradient id="SVGID_19_" gradientUnits="userSpaceOnUse" x1="-83.2145" y1="285.1574" x2="419.3124" y2="55.6458">
			<stop  offset="0" style="stop-color:#FF1515"/>
			<stop  offset="0.3065" style="stop-color:#9852F4"/>
			<stop  offset="0.6452" style="stop-color:#00D1E9"/>
			<stop  offset="0.9946" style="stop-color:#0054D4"/>
		</linearGradient>
		<path class="st19" d="M0,249.3c1.3,0.1,2.6,0.2,4.1,0.3C4,249.3,4,249.1,3.9,249c-1.1-1.9-2.3-3.7-3.4-5.6
			c-0.1-0.2-0.3-0.3-0.5-0.5c0-0.4,0-0.8,0-1.2c0.1,0.1,0.3,0.1,0.4,0.3c1.7,2.7,3.3,5.4,5,8.2c-1,0.2-1.9,0-2.8,0
			c-0.9,0-1.8,0-2.7,0C0,249.9,0,249.6,0,249.3z"/>
		<linearGradient id="SVGID_20_" gradientUnits="userSpaceOnUse" x1="-139.5679" y1="161.7467" x2="362.9079" y2="-67.7417">
			<stop  offset="0" style="stop-color:#FF1515"/>
			<stop  offset="0.3065" style="stop-color:#9852F4"/>
			<stop  offset="0.6452" style="stop-color:#00D1E9"/>
			<stop  offset="0.9946" style="stop-color:#0054D4"/>
		</linearGradient>
		<path class="st20" d="M0,101c0.2-0.2,0.4-0.3,0.5-0.5c1.2-1.9,2.3-3.7,3.4-5.6C4,94.8,4,94.7,4.1,94.5c-1.4,0-2.8,0-4.1,0.2
			c0-0.3,0-0.5,0-0.8c1.8,0,3.5,0,5.4,0c-0.1,0.2-0.2,0.4-0.3,0.6c-1.5,2.4-2.9,4.8-4.4,7.1c-0.2,0.3-0.4,0.5-0.7,0.7
			C0,101.8,0,101.4,0,101z"/>
		<linearGradient id="SVGID_21_" gradientUnits="userSpaceOnUse" x1="-167.601" y1="100.3501" x2="334.8559" y2="-129.1296">
			<stop  offset="0" style="stop-color:#FF1515"/>
			<stop  offset="0.3065" style="stop-color:#9852F4"/>
			<stop  offset="0.6452" style="stop-color:#00D1E9"/>
			<stop  offset="0.9946" style="stop-color:#0054D4"/>
		</linearGradient>
		<path class="st21" d="M0,25.9c1.3,0.1,2.6,0.2,4.1,0.3C4,25.9,4,25.7,3.9,25.6c-1.1-1.9-2.3-3.7-3.4-5.6c-0.1-0.2-0.3-0.3-0.5-0.5
			c0-0.4,0-0.8,0-1.2c0.1,0.1,0.3,0.1,0.4,0.3c1.7,2.7,3.3,5.4,5.1,8.3c-1.9,0-3.7-0.1-5.5-0.1C0,26.4,0,26.2,0,25.9z"/>
		<linearGradient id="SVGID_22_" gradientUnits="userSpaceOnUse" x1="-97.3486" y1="254.1676" x2="405.0897" y2="24.6964">
			<stop  offset="0" style="stop-color:#FF1515"/>
			<stop  offset="0.3065" style="stop-color:#9852F4"/>
			<stop  offset="0.6452" style="stop-color:#00D1E9"/>
			<stop  offset="0.9946" style="stop-color:#0054D4"/>
		</linearGradient>
		<path class="st22" d="M0,212.7c0.2-0.2,0.4-0.3,0.5-0.5c1.2-1.8,2.3-3.7,3.4-5.6c0.1-0.1,0.1-0.2,0.2-0.5c-1.4,0-2.8,0-4.1,0.2
			c0-0.3,0-0.5,0-0.8c1.8,0,3.5,0,5.4,0c-0.1,0.2-0.1,0.4-0.2,0.5c-1.5,2.4-3,4.8-4.5,7.2c-0.2,0.3-0.4,0.5-0.7,0.7
			C0,213.5,0,213.1,0,212.7z"/>
		<linearGradient id="SVGID_23_" gradientUnits="userSpaceOnUse" x1="-125.4144" y1="192.7543" x2="377.0884" y2="-36.7464">
			<stop  offset="0" style="stop-color:#FF1515"/>
			<stop  offset="0.3065" style="stop-color:#9852F4"/>
			<stop  offset="0.6452" style="stop-color:#00D1E9"/>
			<stop  offset="0.9946" style="stop-color:#0054D4"/>
		</linearGradient>
		<path class="st23" d="M0,137.6c1.3,0.1,2.6,0.2,4.1,0.3c-0.1-0.3-0.1-0.4-0.2-0.6c-1.1-1.9-2.3-3.7-3.4-5.6
			c-0.1-0.2-0.3-0.3-0.5-0.5c0-0.4,0-0.8,0-1.2c0.2,0.1,0.4,0.2,0.5,0.4c1.6,2.6,3.2,5.2,4.8,7.7c0,0.1,0,0.1,0.1,0.3
			c-1.8,0-3.6-0.1-5.4-0.1C0,138.2,0,137.9,0,137.6z"/>
		<linearGradient id="SVGID_24_" gradientUnits="userSpaceOnUse" x1="-136.7048" y1="168.0172" x2="365.7728" y2="-61.472">
			<stop  offset="0" style="stop-color:#FF1515"/>
			<stop  offset="0.3065" style="stop-color:#9852F4"/>
			<stop  offset="0.6452" style="stop-color:#00D1E9"/>
			<stop  offset="0.9946" style="stop-color:#0054D4"/>
		</linearGradient>
		<path class="st24" d="M160.3,49.3c-0.2-0.4-0.4-0.7-0.5-0.9c-2.8-5.1-5.5-10.2-8.3-15.3c-0.3-0.5-0.3-0.9-0.1-1.4
			c2.9-5.2,5.7-10.5,8.5-15.7c0.1-0.1,0.2-0.3,0.3-0.5c0.2,0.3,0.3,0.5,0.5,0.7c2.8,5.1,5.6,10.3,8.4,15.4c0.3,0.5,0.4,0.9,0.1,1.4
			c-2.9,5.2-5.7,10.5-8.5,15.7C160.6,48.8,160.5,49,160.3,49.3z M160.4,16.9c-0.2,0.3-0.3,0.4-0.4,0.6c-2.6,4.7-5.1,9.5-7.7,14.2
			c-0.3,0.5-0.2,0.9,0,1.3c2.6,4.7,5.1,9.4,7.6,14.1c0.1,0.2,0.3,0.4,0.4,0.6c0.1-0.2,0.2-0.3,0.3-0.4c2.6-4.8,5.2-9.6,7.8-14.4
			c0.3-0.5,0.2-0.9-0.1-1.3c-1.8-3.2-3.5-6.4-5.2-9.7C162.2,20.3,161.4,18.7,160.4,16.9z"/>
		<linearGradient id="SVGID_25_" gradientUnits="userSpaceOnUse" x1="-119.9896" y1="204.6182" x2="382.4861" y2="-24.8701">
			<stop  offset="0" style="stop-color:#FF1515"/>
			<stop  offset="0.3065" style="stop-color:#9852F4"/>
			<stop  offset="0.6452" style="stop-color:#00D1E9"/>
			<stop  offset="0.9946" style="stop-color:#0054D4"/>
		</linearGradient>
		<path class="st25" d="M257.3,15.4c0.2,0.4,0.4,0.6,0.5,0.9c2.7,5.1,5.5,10.1,8.2,15.2c0.3,0.6,0.3,1.1,0,1.7
			c-2.8,5-5.5,10.1-8.2,15.2c-0.1,0.3-0.3,0.5-0.5,0.9c-0.2-0.3-0.4-0.5-0.5-0.7c-2.8-5.1-5.6-10.3-8.4-15.4
			c-0.2-0.4-0.4-0.8-0.1-1.3c2.9-5.3,5.7-10.6,8.6-15.9C257,15.7,257.1,15.6,257.3,15.4z M257.2,47.8c0.2-0.4,0.4-0.7,0.5-0.9
			c2.5-4.6,4.9-9.1,7.4-13.6c0.4-0.7,0.3-1.1,0-1.8c-2.5-4.5-4.9-9.1-7.4-13.6c-0.1-0.3-0.3-0.5-0.5-0.9c-0.2,0.3-0.4,0.6-0.5,0.9
			c-2.5,4.6-4.9,9.2-7.5,13.7c-0.3,0.6-0.3,1.1,0,1.7c2.5,4.5,4.9,9.1,7.4,13.6C256.8,47.1,257,47.4,257.2,47.8z"/>
		<linearGradient id="SVGID_26_" gradientUnits="userSpaceOnUse" x1="-69.0082" y1="316.2434" x2="433.4709" y2="86.7536">
			<stop  offset="0" style="stop-color:#FF1515"/>
			<stop  offset="0.3065" style="stop-color:#9852F4"/>
			<stop  offset="0.6452" style="stop-color:#00D1E9"/>
			<stop  offset="0.9946" style="stop-color:#0054D4"/>
		</linearGradient>
		<path class="st26" d="M63.5,238.8c0.2,0.3,0.3,0.5,0.5,0.8c2.8,5.1,5.5,10.2,8.3,15.4c0.3,0.5,0.3,0.9,0,1.5
			c-2.8,5.2-5.6,10.4-8.4,15.5c-0.1,0.2-0.2,0.3-0.4,0.6c-0.2-0.2-0.3-0.4-0.4-0.6c-2.8-5.2-5.6-10.4-8.5-15.6
			c-0.2-0.4-0.3-0.8-0.1-1.2c2.9-5.3,5.8-10.7,8.7-16C63.3,239.1,63.3,239,63.5,238.8z M63.5,271.2c0.2-0.3,0.4-0.6,0.5-0.8
			c2.5-4.6,4.9-9.2,7.5-13.7c0.3-0.6,0.3-1.1,0-1.7c-2.5-4.6-5-9.2-7.5-13.7c-0.1-0.3-0.3-0.5-0.5-0.8c-0.2,0.4-0.4,0.6-0.5,0.9
			c-2.5,4.5-4.9,9.1-7.4,13.6c-0.4,0.6-0.3,1.1,0,1.8c2.5,4.5,4.9,9.1,7.4,13.6C63.1,270.6,63.3,270.8,63.5,271.2z"/>
		<linearGradient id="SVGID_27_" gradientUnits="userSpaceOnUse" x1="-35.5647" y1="389.4537" x2="466.9028" y2="159.9692">
			<stop  offset="0" style="stop-color:#FF1515"/>
			<stop  offset="0.3065" style="stop-color:#9852F4"/>
			<stop  offset="0.6452" style="stop-color:#00D1E9"/>
			<stop  offset="0.9946" style="stop-color:#0054D4"/>
		</linearGradient>
		<path class="st27" d="M257.2,238.8c0.2,0.3,0.4,0.6,0.5,0.8c2.8,5.1,5.5,10.2,8.3,15.4c0.3,0.5,0.4,0.9,0.1,1.4
			c-2.9,5.2-5.7,10.5-8.5,15.7c-0.1,0.1-0.2,0.3-0.3,0.5c-0.2-0.3-0.4-0.5-0.5-0.7c-2.8-5.1-5.6-10.3-8.4-15.4
			c-0.3-0.5-0.4-0.9-0.1-1.4c2.9-5.2,5.7-10.5,8.5-15.7C257,239.2,257.1,239.1,257.2,238.8z M257.2,240.3c-0.2,0.4-0.4,0.6-0.5,0.9
			c-2.5,4.6-4.9,9.1-7.4,13.6c-0.4,0.6-0.4,1.1,0,1.8c2.5,4.5,4.9,9.1,7.4,13.6c0.1,0.3,0.3,0.5,0.5,0.9c0.2-0.3,0.4-0.6,0.5-0.8
			c2.5-4.6,4.9-9.2,7.5-13.7c0.3-0.6,0.3-1.1,0-1.7c-2.5-4.6-5-9.2-7.5-13.8C257.6,240.9,257.5,240.7,257.2,240.3z"/>
		<linearGradient id="SVGID_28_" gradientUnits="userSpaceOnUse" x1="-153.4249" y1="131.3888" x2="349.0357" y2="-98.0926">
			<stop  offset="0" style="stop-color:#FF1515"/>
			<stop  offset="0.3065" style="stop-color:#9852F4"/>
			<stop  offset="0.6452" style="stop-color:#00D1E9"/>
			<stop  offset="0.9946" style="stop-color:#0054D4"/>
		</linearGradient>
		<path class="st28" d="M63.4,49.3c-0.3-0.4-0.4-0.7-0.6-1c-2.7-5-5.4-10-8.1-15c-0.4-0.6-0.4-1.1,0-1.8c2.7-5,5.5-10.1,8.2-15.1
			c0.2-0.3,0.3-0.6,0.6-1c0.2,0.3,0.4,0.5,0.5,0.7c2.8,5.1,5.6,10.3,8.4,15.4c0.3,0.5,0.3,0.9,0,1.4c-2.8,5.2-5.7,10.4-8.5,15.6
			C63.8,48.8,63.6,49,63.4,49.3z M63.5,47.7c0.2-0.3,0.4-0.6,0.5-0.8c2.5-4.6,4.9-9.2,7.5-13.7c0.3-0.6,0.3-1.1,0-1.7
			c-2.5-4.6-5-9.2-7.5-13.8c-0.1-0.2-0.3-0.4-0.5-0.7c-0.2,0.3-0.4,0.6-0.5,0.9c-2.5,4.6-4.9,9.1-7.4,13.6c-0.4,0.6-0.4,1.1,0,1.8
			c2.5,4.5,4.9,9.1,7.4,13.6C63.1,47.1,63.2,47.4,63.5,47.7z"/>
		<linearGradient id="SVGID_29_" gradientUnits="userSpaceOnUse" x1="-77.7829" y1="297.0355" x2="424.6981" y2="67.5448">
			<stop  offset="0" style="stop-color:#FF1515"/>
			<stop  offset="0.3065" style="stop-color:#9852F4"/>
			<stop  offset="0.6452" style="stop-color:#00D1E9"/>
			<stop  offset="0.9946" style="stop-color:#0054D4"/>
		</linearGradient>
		<path class="st29" d="M257.3,127.1c0.2,0.4,0.4,0.6,0.5,0.9c2.7,5.1,5.5,10.1,8.2,15.2c0.3,0.6,0.3,1.1,0,1.7
			c-2.8,5-5.5,10.1-8.2,15.2c-0.1,0.3-0.3,0.5-0.5,0.9c-0.2-0.3-0.4-0.5-0.5-0.7c-2.8-5.2-5.6-10.3-8.4-15.4c-0.3-0.5-0.3-0.9,0-1.4
			c2.9-5.2,5.7-10.5,8.5-15.7C257,127.5,257.1,127.4,257.3,127.1z M257.2,128.6c-0.2,0.4-0.4,0.6-0.5,0.9c-2.5,4.6-4.9,9.1-7.4,13.6
			c-0.4,0.6-0.4,1.1,0,1.8c2.5,4.5,4.9,9,7.4,13.6c0.2,0.3,0.3,0.6,0.6,1c0.2-0.3,0.4-0.6,0.5-0.8c2.5-4.6,4.9-9.2,7.5-13.7
			c0.3-0.6,0.3-1.1,0-1.7c-2.5-4.6-5-9.2-7.5-13.7C257.6,129.2,257.5,129,257.2,128.6z"/>
		<linearGradient id="SVGID_30_" gradientUnits="userSpaceOnUse" x1="-52.298" y1="352.8378" x2="450.1844" y2="123.3465">
			<stop  offset="0" style="stop-color:#FF1515"/>
			<stop  offset="0.3065" style="stop-color:#9852F4"/>
			<stop  offset="0.6452" style="stop-color:#00D1E9"/>
			<stop  offset="0.9946" style="stop-color:#0054D4"/>
		</linearGradient>
		<path class="st30" d="M160.3,238.8c0.2,0.4,0.4,0.7,0.6,1c2.7,5.1,5.5,10.1,8.2,15.2c0.3,0.5,0.4,0.9,0.1,1.5
			c-2.8,5.2-5.7,10.4-8.5,15.6c-0.1,0.2-0.2,0.3-0.4,0.6c-0.2-0.4-0.4-0.6-0.5-0.9c-2.7-5-5.4-10.1-8.2-15.1c-0.4-0.6-0.4-1.1,0-1.8
			c2.7-5,5.5-10.1,8.2-15.1C159.9,239.5,160.1,239.2,160.3,238.8z M160.4,240.3c-0.2,0.4-0.4,0.6-0.5,0.8c-2.5,4.6-4.9,9.2-7.5,13.7
			c-0.3,0.6-0.3,1.1,0,1.7c2.5,4.6,5,9.2,7.5,13.7c0.1,0.3,0.3,0.5,0.5,0.8c0.2-0.4,0.4-0.6,0.5-0.9c2.5-4.6,4.9-9.1,7.4-13.6
			c0.4-0.6,0.4-1.1,0-1.8c-2.5-4.5-4.9-9.1-7.4-13.6C160.7,240.9,160.6,240.7,160.4,240.3z"/>
		<linearGradient id="SVGID_31_" gradientUnits="userSpaceOnUse" x1="-75.5908" y1="301.8522" x2="426.8995" y2="72.3573">
			<stop  offset="0" style="stop-color:#FF1515"/>
			<stop  offset="0.3065" style="stop-color:#9852F4"/>
			<stop  offset="0.6452" style="stop-color:#00D1E9"/>
			<stop  offset="0.9946" style="stop-color:#0054D4"/>
		</linearGradient>
		<path class="st31" d="M208.8,188.8c-0.2-0.4-0.4-0.7-0.6-1c-2.7-5-5.4-10-8.1-15c-0.4-0.6-0.4-1.1,0-1.8c2.7-5,5.4-10,8.1-15
			c0.2-0.3,0.3-0.6,0.6-1c0.2,0.3,0.3,0.5,0.4,0.6c2.8,5.2,5.6,10.3,8.4,15.5c0.3,0.5,0.4,0.9,0.1,1.4c-2.9,5.2-5.7,10.5-8.5,15.7
			C209.1,188.5,209,188.6,208.8,188.8z M208.8,187.3c0.2-0.3,0.3-0.5,0.5-0.7c2.5-4.6,5-9.3,7.6-13.9c0.3-0.6,0.2-1,0-1.5
			c-2.5-4.6-5-9.2-7.5-13.8c-0.1-0.2-0.3-0.4-0.5-0.7c-0.2,0.3-0.3,0.4-0.4,0.6c-2.5,4.7-5,9.3-7.6,14c-0.3,0.6-0.2,1,0,1.5
			c2.5,4.6,5,9.2,7.4,13.7C208.4,186.7,208.6,186.9,208.8,187.3z"/>
		<linearGradient id="SVGID_32_" gradientUnits="userSpaceOnUse" x1="-94.5104" y1="260.4067" x2="407.9679" y2="30.9172">
			<stop  offset="0" style="stop-color:#FF1515"/>
			<stop  offset="0.3065" style="stop-color:#9852F4"/>
			<stop  offset="0.6452" style="stop-color:#00D1E9"/>
			<stop  offset="0.9946" style="stop-color:#0054D4"/>
		</linearGradient>
		<path class="st32" d="M160.4,127.1c0.2,0.3,0.4,0.6,0.5,0.8c2.8,5.1,5.5,10.2,8.3,15.4c0.3,0.5,0.4,0.9,0.1,1.4
			c-2.9,5.3-5.7,10.5-8.6,15.8c-0.1,0.1-0.2,0.2-0.3,0.4c-0.2-0.2-0.3-0.4-0.4-0.6c-2.8-5.2-5.6-10.4-8.5-15.6
			c-0.3-0.5-0.3-0.8,0-1.3c2.9-5.2,5.7-10.5,8.5-15.7C160.1,127.5,160.2,127.4,160.4,127.1z M160.4,159.5c0.2-0.4,0.4-0.6,0.5-0.9
			c2.5-4.6,4.9-9.1,7.4-13.6c0.4-0.7,0.3-1.1,0-1.8c-2.5-4.5-4.9-9.1-7.4-13.6c-0.1-0.3-0.3-0.5-0.5-0.9c-0.2,0.3-0.4,0.6-0.5,0.8
			c-2.5,4.6-4.9,9.2-7.5,13.7c-0.3,0.6-0.3,1.1,0,1.7c2.5,4.6,5,9.2,7.5,13.7C160,158.9,160.1,159.1,160.4,159.5z"/>
		<linearGradient id="SVGID_33_" gradientUnits="userSpaceOnUse" x1="-151.2465" y1="136.1749" x2="351.2264" y2="-93.3121">
			<stop  offset="0" style="stop-color:#FF1515"/>
			<stop  offset="0.3065" style="stop-color:#9852F4"/>
			<stop  offset="0.6452" style="stop-color:#00D1E9"/>
			<stop  offset="0.9946" style="stop-color:#0054D4"/>
		</linearGradient>
		<path class="st33" d="M15,43.4c0.2,0.4,0.4,0.6,0.5,0.8c2.8,5.1,5.5,10.2,8.3,15.3c0.3,0.6,0.3,1,0,1.6
			c-2.8,5.1-5.5,10.1-8.2,15.2c-0.1,0.3-0.3,0.5-0.5,0.9c-0.2-0.3-0.4-0.6-0.5-0.8C11.8,71.2,9,66.1,6.3,61.1c-0.3-0.6-0.4-1,0-1.6
			c2.8-5.1,5.6-10.2,8.3-15.4C14.7,43.9,14.8,43.7,15,43.4z M15,75.6c0.2-0.2,0.3-0.3,0.3-0.5c2.6-4.8,5.1-9.5,7.7-14.3
			c0.2-0.5,0.2-0.8,0-1.2c-2.6-4.7-5.1-9.5-7.7-14.2c-0.1-0.2-0.2-0.3-0.4-0.5c-0.2,0.3-0.3,0.5-0.5,0.8c-2.5,4.5-4.9,9.1-7.4,13.6
			c-0.4,0.7-0.3,1.1,0,1.8c2.5,4.5,4.9,9,7.4,13.6C14.6,75,14.8,75.2,15,75.6z"/>
		<linearGradient id="SVGID_34_" gradientUnits="userSpaceOnUse" x1="-134.527" y1="172.8038" x2="367.9643" y2="-56.6915">
			<stop  offset="0" style="stop-color:#FF1515"/>
			<stop  offset="0.3065" style="stop-color:#9852F4"/>
			<stop  offset="0.6452" style="stop-color:#00D1E9"/>
			<stop  offset="0.9946" style="stop-color:#0054D4"/>
		</linearGradient>
		<path class="st34" d="M111.9,43.4c0.2,0.4,0.4,0.7,0.6,1c2.7,5,5.4,10,8.1,15c0.4,0.6,0.4,1.1,0,1.8c-2.7,5-5.4,10-8.1,15
			c-0.2,0.3-0.3,0.6-0.6,1c-0.2-0.3-0.3-0.5-0.4-0.6c-2.8-5.2-5.6-10.3-8.4-15.5c-0.3-0.5-0.4-0.9-0.1-1.4
			c2.9-5.2,5.7-10.5,8.5-15.7C111.7,43.8,111.7,43.7,111.9,43.4z M111.9,75.6c0.2-0.2,0.2-0.3,0.3-0.4c2.6-4.8,5.2-9.6,7.8-14.4
			c0.3-0.5,0.2-0.8,0-1.2c-2.6-4.7-5.1-9.4-7.6-14.1c-0.1-0.2-0.3-0.3-0.4-0.5c-0.1,0.2-0.2,0.3-0.3,0.4c-2.6,4.7-5.1,9.5-7.7,14.2
			c-0.3,0.6-0.2,1,0.1,1.5c2.5,4.5,4.9,9.1,7.4,13.6C111.5,75,111.7,75.2,111.9,75.6z"/>
		<linearGradient id="SVGID_35_" gradientUnits="userSpaceOnUse" x1="-117.7898" y1="209.4212" x2="384.6801" y2="-20.0645">
			<stop  offset="0" style="stop-color:#FF1515"/>
			<stop  offset="0.3065" style="stop-color:#9852F4"/>
			<stop  offset="0.6452" style="stop-color:#00D1E9"/>
			<stop  offset="0.9946" style="stop-color:#0054D4"/>
		</linearGradient>
		<path class="st35" d="M208.8,77.1c-0.2-0.4-0.4-0.6-0.5-0.8c-2.8-5.1-5.5-10.2-8.3-15.3c-0.3-0.5-0.3-1,0-1.5
			c2.8-5.1,5.6-10.3,8.4-15.4c0.1-0.2,0.2-0.4,0.4-0.7c0.2,0.3,0.4,0.6,0.5,0.8c2.7,5.1,5.5,10.1,8.2,15.2c0.2,0.5,0.4,0.8,0.1,1.4
			c-2.9,5.3-5.7,10.5-8.6,15.8C209,76.8,209,76.9,208.8,77.1z M208.8,44.9c-0.2,0.3-0.4,0.5-0.5,0.8c-2.5,4.6-5,9.2-7.5,13.8
			c-0.3,0.6-0.3,1,0,1.6c2.5,4.5,4.9,9.1,7.4,13.6c0.1,0.3,0.3,0.5,0.5,0.9c0.2-0.3,0.4-0.5,0.5-0.8c2.5-4.6,5-9.2,7.5-13.8
			c0.3-0.6,0.3-1,0-1.6c-2.5-4.5-4.9-9.1-7.4-13.6C209.2,45.5,209,45.3,208.8,44.9z"/>
		<linearGradient id="SVGID_36_" gradientUnits="userSpaceOnUse" x1="-72.2686" y1="309.0989" x2="430.2036" y2="79.6123">
			<stop  offset="0" style="stop-color:#FF1515"/>
			<stop  offset="0.3065" style="stop-color:#9852F4"/>
			<stop  offset="0.6452" style="stop-color:#00D1E9"/>
			<stop  offset="0.9946" style="stop-color:#0054D4"/>
		</linearGradient>
		<path class="st36" d="M150.7,222.4c-0.4,0-0.8,0-1.1,0c-5.7-0.2-11.4-0.3-17.1-0.4c-0.7,0-1.2-0.3-1.6-0.9c-3-4.9-6-9.8-9-14.6
			c-0.2-0.3-0.3-0.5-0.5-0.9c0.3,0,0.5-0.1,0.7-0.1c5.9,0.2,11.8,0.3,17.8,0.5c0.5,0,0.8,0.1,1.1,0.6c3.2,5.2,6.3,10.3,9.5,15.5
			C150.6,222,150.7,222.1,150.7,222.4z M122.8,206.1c0.1,0.3,0.2,0.4,0.3,0.6c2.8,4.6,5.7,9.3,8.5,13.9c0.3,0.4,0.5,0.5,1,0.5
			c5.3,0.1,10.7,0.3,16,0.4c0.2,0,0.5,0,0.8-0.1c-0.1-0.3-0.2-0.5-0.3-0.7c-2.8-4.5-5.6-9-8.3-13.6c-0.3-0.6-0.7-0.7-1.3-0.7
			c-5.2-0.1-10.3-0.3-15.5-0.4C123.6,206.1,123.2,206.1,122.8,206.1z"/>
		<linearGradient id="SVGID_37_" gradientUnits="userSpaceOnUse" x1="-114.4947" y1="216.676" x2="388.0042" y2="-12.8228">
			<stop  offset="0" style="stop-color:#FF1515"/>
			<stop  offset="0.3065" style="stop-color:#9852F4"/>
			<stop  offset="0.6452" style="stop-color:#00D1E9"/>
			<stop  offset="0.9946" style="stop-color:#0054D4"/>
		</linearGradient>
		<path class="st37" d="M150.8,110.7c-0.5,0-0.8,0-1.1,0c-5.8-0.2-11.5-0.3-17.3-0.5c-0.6,0-1.1-0.2-1.4-0.8c-3.1-5-6.2-10-9.2-15.1
			c-0.1-0.2-0.2-0.3-0.3-0.6c0.3,0,0.5-0.1,0.7-0.1c5.9,0.2,11.8,0.3,17.8,0.5c0.6,0,0.9,0.2,1.2,0.7c3.1,5.1,6.2,10.1,9.3,15.1
			C150.5,110.2,150.6,110.3,150.8,110.7z M149.4,109.8c-0.2-0.3-0.2-0.5-0.4-0.7c-2.8-4.5-5.6-9-8.3-13.6c-0.3-0.5-0.7-0.7-1.2-0.7
			c-5.3-0.1-10.5-0.3-15.8-0.4c-0.3,0-0.5,0-0.9,0c0.1,0.3,0.1,0.4,0.2,0.5c2.9,4.7,5.7,9.3,8.6,14c0.3,0.4,0.6,0.5,1,0.5
			c5.3,0.1,10.7,0.3,16,0.4C148.9,109.9,149.1,109.8,149.4,109.8z"/>
		<linearGradient id="SVGID_38_" gradientUnits="userSpaceOnUse" x1="-111.2283" y1="223.8064" x2="391.2557" y2="-5.6857">
			<stop  offset="0" style="stop-color:#FF1515"/>
			<stop  offset="0.3065" style="stop-color:#9852F4"/>
			<stop  offset="0.6452" style="stop-color:#00D1E9"/>
			<stop  offset="0.9946" style="stop-color:#0054D4"/>
		</linearGradient>
		<path class="st38" d="M63.4,127.1c0.2,0.3,0.4,0.5,0.5,0.8c2.8,5.1,5.6,10.3,8.4,15.4c0.3,0.5,0.3,0.9,0,1.4
			c-2.8,5.2-5.6,10.4-8.4,15.5c-0.1,0.2-0.3,0.4-0.4,0.7c-0.2-0.4-0.4-0.6-0.5-0.9c-2.7-5-5.4-10.1-8.2-15.1c-0.4-0.6-0.4-1.1,0-1.8
			c2.7-5,5.5-10,8.2-15.1C63.1,127.8,63.2,127.5,63.4,127.1z M63.5,159.4c0.1-0.2,0.2-0.3,0.3-0.5c2.6-4.8,5.2-9.5,7.7-14.3
			c0.3-0.5,0.2-0.9,0-1.3c-2.6-4.7-5.1-9.4-7.6-14.1c-0.1-0.2-0.3-0.3-0.4-0.6c-0.1,0.2-0.2,0.4-0.3,0.5c-2.6,4.7-5.1,9.5-7.7,14.2
			c-0.3,0.5-0.2,0.9,0.1,1.4c2.5,4.6,5,9.3,7.5,13.9C63.1,158.9,63.3,159.1,63.5,159.4z"/>
		<linearGradient id="SVGID_39_" gradientUnits="userSpaceOnUse" x1="-55.5512" y1="345.6971" x2="446.9207" y2="116.2105">
			<stop  offset="0" style="stop-color:#FF1515"/>
			<stop  offset="0.3065" style="stop-color:#9852F4"/>
			<stop  offset="0.6452" style="stop-color:#00D1E9"/>
			<stop  offset="0.9946" style="stop-color:#0054D4"/>
		</linearGradient>
		<path class="st39" d="M247.7,222.3c-0.7,0-1.2,0-1.7,0c-5.5-0.1-11-0.3-16.4-0.4c-0.9,0-1.3-0.3-1.8-1c-2.9-4.8-5.9-9.6-8.9-14.5
			c-0.2-0.3-0.3-0.6-0.5-1c0.3,0,0.6-0.1,0.8-0.1c5.9,0.2,11.7,0.3,17.6,0.5c0.6,0,1,0.2,1.3,0.7c3.1,5,6.2,10,9.2,15.1
			C247.4,221.8,247.5,222,247.7,222.3z M219.6,206.2c3.1,5.1,6.2,10,9.2,14.9c2.5,0.3,16.6,0.6,17.5,0.3c-0.2-0.3-0.3-0.5-0.4-0.8
			c-2.7-4.4-5.4-8.7-8.1-13.1c-0.4-0.7-0.9-0.9-1.6-0.9c-4.8-0.1-9.7-0.3-14.5-0.4C221,206.1,220.4,206.2,219.6,206.2z"/>
		<linearGradient id="SVGID_40_" gradientUnits="userSpaceOnUse" x1="-89" y1="272.461" x2="413.4675" y2="42.9765">
			<stop  offset="0" style="stop-color:#FF1515"/>
			<stop  offset="0.3065" style="stop-color:#9852F4"/>
			<stop  offset="0.6452" style="stop-color:#00D1E9"/>
			<stop  offset="0.9946" style="stop-color:#0054D4"/>
		</linearGradient>
		<path class="st40" d="M53.9,222.3c-0.9,0-1.6,0-2.3,0c-5.3-0.1-10.5-0.3-15.8-0.4c-0.9,0-1.3-0.3-1.8-1.1
			c-2.9-4.8-5.9-9.6-8.9-14.4c-0.2-0.3-0.3-0.6-0.5-1c0.3,0,0.6-0.1,0.8-0.1c5.9,0.2,11.8,0.3,17.7,0.5c0.6,0,0.9,0.2,1.2,0.7
			c3.1,5,6.1,10,9.2,15C53.6,221.8,53.7,222,53.9,222.3z M25.8,206.2c3.1,5.1,6.2,10,9.2,14.9c3.1,0.4,16.6,0.6,17.5,0.3
			c-0.1-0.2-0.3-0.5-0.4-0.7c-2.7-4.4-5.4-8.8-8.1-13.2c-0.4-0.7-0.9-0.9-1.6-0.9c-4.8-0.1-9.7-0.3-14.5-0.4
			C27.2,206.1,26.6,206.2,25.8,206.2z"/>
		<linearGradient id="SVGID_41_" gradientUnits="userSpaceOnUse" x1="-109.0308" y1="228.5991" x2="393.4293" y2="-0.8821">
			<stop  offset="0" style="stop-color:#FF1515"/>
			<stop  offset="0.3065" style="stop-color:#9852F4"/>
			<stop  offset="0.6452" style="stop-color:#00D1E9"/>
			<stop  offset="0.9946" style="stop-color:#0054D4"/>
		</linearGradient>
		<path class="st41" d="M15,155.1c0.2,0.4,0.4,0.7,0.5,0.9c2.7,5,5.4,10.1,8.2,15.1c0.3,0.6,0.4,1.1,0,1.7c-2.8,5-5.5,10.1-8.2,15.2
			c-0.1,0.3-0.3,0.5-0.5,0.9c-0.2-0.3-0.4-0.6-0.5-0.9c-2.7-5.1-5.5-10.1-8.2-15.2c-0.3-0.6-0.4-1,0-1.6c2.8-5.1,5.6-10.2,8.3-15.4
			C14.7,155.6,14.8,155.4,15,155.1z M15,156.6c-0.2,0.3-0.3,0.5-0.5,0.7c-2.5,4.6-5,9.3-7.6,13.9c-0.3,0.6-0.3,1,0,1.5
			c2.5,4.6,5,9.2,7.5,13.8c0.1,0.2,0.3,0.4,0.5,0.7c0.2-0.3,0.3-0.5,0.4-0.7c2.5-4.6,5-9.3,7.6-13.9c0.3-0.6,0.3-1,0-1.5
			c-2.5-4.5-4.9-9.1-7.4-13.6C15.4,157.3,15.3,157,15,156.6z"/>
		<linearGradient id="SVGID_42_" gradientUnits="userSpaceOnUse" x1="-92.3031" y1="265.2352" x2="410.1731" y2="35.7467">
			<stop  offset="0" style="stop-color:#FF1515"/>
			<stop  offset="0.3065" style="stop-color:#9852F4"/>
			<stop  offset="0.6452" style="stop-color:#00D1E9"/>
			<stop  offset="0.9946" style="stop-color:#0054D4"/>
		</linearGradient>
		<path class="st42" d="M111.9,155.1c0.2,0.4,0.4,0.7,0.6,0.9c2.7,5,5.4,10,8.1,15c0.4,0.6,0.4,1.1,0,1.8c-2.7,5-5.4,10-8.1,15
			c-0.2,0.3-0.3,0.6-0.6,1c-0.2-0.3-0.4-0.5-0.5-0.7c-2.8-5.1-5.5-10.2-8.3-15.4c-0.3-0.5-0.4-0.9-0.1-1.4
			c2.8-5.2,5.7-10.4,8.5-15.6C111.6,155.5,111.8,155.4,111.9,155.1z M111.9,156.6c-0.2,0.3-0.3,0.4-0.4,0.6
			c-2.5,4.7-5.1,9.4-7.6,14.1c-0.3,0.5-0.2,0.9,0.1,1.4c2.5,4.6,5,9.2,7.5,13.8c0.1,0.2,0.3,0.4,0.5,0.7c0.2-0.3,0.3-0.4,0.4-0.6
			c2.5-4.7,5.1-9.4,7.6-14.1c0.3-0.5,0.2-0.9-0.1-1.4c-2.5-4.6-5-9.2-7.5-13.8C112.3,157.1,112.1,156.9,111.9,156.6z"/>
		<linearGradient id="SVGID_43_" gradientUnits="userSpaceOnUse" x1="-70.1186" y1="313.8046" x2="432.3524" y2="84.3185">
			<stop  offset="0" style="stop-color:#FF1515"/>
			<stop  offset="0.3065" style="stop-color:#9852F4"/>
			<stop  offset="0.6452" style="stop-color:#00D1E9"/>
			<stop  offset="0.9946" style="stop-color:#0054D4"/>
		</linearGradient>
		<path class="st43" d="M73,233.3c0.6,0,1.2,0,1.7,0c5.4,0.1,10.9,0.3,16.3,0.4c0.9,0,1.4,0.3,1.9,1.1c2.9,4.8,5.9,9.6,8.9,14.5
			c0.2,0.3,0.3,0.6,0.5,1c-0.3,0-0.6,0.1-0.8,0.1c-5.9-0.2-11.7-0.3-17.6-0.5c-0.5,0-0.9-0.1-1.3-0.6c-3.1-5.1-6.3-10.2-9.4-15.3
			C73.2,233.7,73.2,233.6,73,233.3z M74.4,234.1c0.2,0.3,0.3,0.6,0.5,0.9c2.7,4.4,5.5,8.9,8.2,13.3c0.3,0.6,0.7,0.8,1.4,0.8
			c5.2,0.1,10.3,0.3,15.5,0.4c0.3,0,0.7,0,1.1,0c-0.1-0.3-0.2-0.4-0.3-0.6c-2.8-4.6-5.7-9.3-8.5-13.9c-0.2-0.4-0.5-0.5-1-0.5
			c-5.4-0.1-10.8-0.3-16.1-0.4C74.9,234,74.7,234.1,74.4,234.1z"/>
		<linearGradient id="SVGID_44_" gradientUnits="userSpaceOnUse" x1="-162.8972" y1="110.6602" x2="339.5736" y2="-118.8258">
			<stop  offset="0" style="stop-color:#FF1515"/>
			<stop  offset="0.3065" style="stop-color:#9852F4"/>
			<stop  offset="0.6452" style="stop-color:#00D1E9"/>
			<stop  offset="0.9946" style="stop-color:#0054D4"/>
		</linearGradient>
		<path class="st44" d="M24.6,26.8c1.1-1.8,2.1-3.4,3.1-5c2.2-3.6,4.4-7.1,6.6-10.7c0.3-0.5,0.7-0.8,1.3-0.8
			c5.9-0.1,11.8-0.3,17.8-0.5c0.2,0,0.3,0,0.6,0c-0.1,0.3-0.2,0.5-0.4,0.7c-3.1,5-6.1,10-9.2,15c-0.3,0.5-0.7,0.7-1.3,0.7
			c-5.9,0.1-11.7,0.3-17.6,0.5C25.2,26.8,25,26.8,24.6,26.8z M52.6,10.7c-0.4,0-0.6,0-0.8,0c-5.3,0.1-10.7,0.3-16,0.4
			c-0.6,0-0.9,0.3-1.1,0.7c-2.8,4.5-5.6,9-8.3,13.6c-0.1,0.2-0.2,0.5-0.4,0.8c0.3,0,0.5,0,0.6,0c5.4-0.1,10.8-0.3,16.1-0.4
			c0.6,0,0.9-0.3,1.2-0.8c2.7-4.5,5.5-8.9,8.2-13.4C52.2,11.3,52.4,11,52.6,10.7z"/>
		<linearGradient id="SVGID_45_" gradientUnits="userSpaceOnUse" x1="-154.5548" y1="128.9364" x2="347.9236" y2="-100.5531">
			<stop  offset="0" style="stop-color:#FF1515"/>
			<stop  offset="0.3065" style="stop-color:#9852F4"/>
			<stop  offset="0.6452" style="stop-color:#00D1E9"/>
			<stop  offset="0.9946" style="stop-color:#0054D4"/>
		</linearGradient>
		<path class="st45" d="M73,9.9c0.5,0,0.8,0,1.1,0c5.7,0.2,11.4,0.3,17.1,0.4c0.8,0,1.2,0.2,1.6,0.9c3,4.9,6,9.8,9,14.7
			c0.1,0.2,0.3,0.5,0.4,0.8c-0.3,0-0.5,0.1-0.7,0.1c-5.9-0.2-11.7-0.3-17.6-0.5c-0.7,0-1-0.2-1.4-0.8c-3-5-6.1-9.9-9.1-14.9
			C73.3,10.5,73.2,10.2,73,9.9z M74.4,10.7c0.1,0.3,0.2,0.5,0.4,0.7c2.8,4.5,5.6,9,8.3,13.6c0.3,0.5,0.7,0.7,1.2,0.7
			c5.3,0.1,10.6,0.3,15.9,0.4c0.2,0,0.4,0,0.8,0c-0.1-0.3-0.1-0.4-0.2-0.5c-2.9-4.7-5.7-9.3-8.6-14c-0.3-0.4-0.6-0.5-1-0.5
			c-5.3-0.1-10.7-0.3-16-0.4C75,10.6,74.7,10.7,74.4,10.7z"/>
		<linearGradient id="SVGID_46_" gradientUnits="userSpaceOnUse" x1="-137.8088" y1="165.6241" x2="364.6824" y2="-63.8713">
			<stop  offset="0" style="stop-color:#FF1515"/>
			<stop  offset="0.3065" style="stop-color:#9852F4"/>
			<stop  offset="0.6452" style="stop-color:#00D1E9"/>
			<stop  offset="0.9946" style="stop-color:#0054D4"/>
		</linearGradient>
		<path class="st46" d="M199.2,26.8c-0.3,0-0.5,0-0.6,0c-5.9-0.2-11.8-0.3-17.8-0.5c-0.6,0-0.9-0.2-1.2-0.7
			c-3.1-5.1-6.2-10.2-9.4-15.2c-0.1-0.1-0.1-0.2-0.2-0.5c0.3,0,0.5-0.1,0.7-0.1c5.9,0.2,11.8,0.3,17.7,0.5c0.5,0,0.9,0.1,1.3,0.7
			c3.1,5.1,6.3,10.2,9.4,15.3C199,26.4,199.1,26.6,199.2,26.8z M198,26.1c-3.2-5.1-6.2-10.1-9.2-14.9c-3.3-0.4-16.6-0.6-17.5-0.3
			c0.1,0.1,0.1,0.2,0.2,0.4c2.8,4.6,5.7,9.2,8.5,13.8c0.3,0.5,0.7,0.6,1.3,0.6c5.2,0.1,10.4,0.3,15.6,0.4
			C197.2,26.1,197.5,26.1,198,26.1z"/>
		<linearGradient id="SVGID_47_" gradientUnits="userSpaceOnUse" x1="-78.4825" y1="295.4967" x2="423.9944" y2="66.0079">
			<stop  offset="0" style="stop-color:#FF1515"/>
			<stop  offset="0.3065" style="stop-color:#9852F4"/>
			<stop  offset="0.6452" style="stop-color:#00D1E9"/>
			<stop  offset="0.9946" style="stop-color:#0054D4"/>
		</linearGradient>
		<path class="st47" d="M53.9,233.3c-0.6,1-1.1,1.8-1.6,2.6c-2.7,4.3-5.3,8.6-7.9,13c-0.4,0.6-0.8,0.9-1.5,0.9
			c-5.8,0.1-11.6,0.3-17.5,0.5c-0.2,0-0.4,0-0.7,0c0.1-0.2,0.1-0.4,0.2-0.6c3.1-5.1,6.2-10.1,9.3-15.2c0.3-0.6,0.8-0.7,1.4-0.7
			c4.1-0.1,8.3-0.2,12.4-0.3c1.6,0,3.1-0.1,4.7-0.1C53.1,233.3,53.4,233.3,53.9,233.3z M25.9,249.4c0.2,0,0.3,0.1,0.4,0.1
			c5.5-0.1,11-0.3,16.4-0.4c0.5,0,0.8-0.3,1-0.7c2.8-4.6,5.6-9.1,8.4-13.7c0.1-0.2,0.2-0.4,0.3-0.7c-0.4,0-0.7,0-1,0
			c-5.2,0.1-10.4,0.3-15.6,0.4c-0.6,0-1,0.3-1.3,0.8c-2.7,4.4-5.4,8.9-8.2,13.3C26.2,248.8,26.1,249.1,25.9,249.4z"/>
		<linearGradient id="SVGID_48_" gradientUnits="userSpaceOnUse" x1="-106.1385" y1="234.9431" x2="396.3369" y2="5.4549">
			<stop  offset="0" style="stop-color:#FF1515"/>
			<stop  offset="0.3065" style="stop-color:#9852F4"/>
			<stop  offset="0.6452" style="stop-color:#00D1E9"/>
			<stop  offset="0.9946" style="stop-color:#0054D4"/>
		</linearGradient>
		<path class="st48" d="M169.9,110.6c1.3-2.1,2.5-4.1,3.7-6.1c2-3.2,3.9-6.4,5.9-9.5c0.3-0.5,0.5-0.8,1.2-0.8c6-0.1,12-0.3,18-0.5
			c0.1,0,0.3,0,0.5,0c-0.1,0.2-0.2,0.5-0.3,0.7c-3.1,5-6.2,10-9.2,15.1c-0.3,0.5-0.6,0.7-1.2,0.8c-6,0.1-11.9,0.3-17.9,0.5
			C170.4,110.7,170.2,110.6,169.9,110.6z M197.9,94.5c-0.3,0-0.4-0.1-0.5,0c-5.5,0.1-11,0.3-16.4,0.4c-0.5,0-0.8,0.3-1,0.7
			c-2.8,4.6-5.6,9.1-8.4,13.7c-0.1,0.2-0.2,0.4-0.3,0.7c0.4,0,0.7,0,0.9,0c5.2-0.1,10.5-0.3,15.7-0.4c0.6,0,1-0.3,1.3-0.8
			c2.7-4.5,5.5-8.9,8.2-13.4C197.6,95.1,197.7,94.8,197.9,94.5z"/>
		<linearGradient id="SVGID_49_" gradientUnits="userSpaceOnUse" x1="-45.0355" y1="368.7414" x2="457.4463" y2="139.2503">
			<stop  offset="0" style="stop-color:#FF1515"/>
			<stop  offset="0.3065" style="stop-color:#9852F4"/>
			<stop  offset="0.6452" style="stop-color:#00D1E9"/>
			<stop  offset="0.9946" style="stop-color:#0054D4"/>
		</linearGradient>
		<path class="st49" d="M218.4,250.2c0.2-0.3,0.2-0.5,0.4-0.7c3.1-5,6.1-10,9.2-15c0.3-0.5,0.7-0.8,1.3-0.8
			c5.9-0.1,11.8-0.3,17.8-0.5c0.2,0,0.3,0,0.6,0c-0.1,0.3-0.2,0.5-0.3,0.7c-3.1,5-6.2,10-9.2,15.1c-0.3,0.5-0.7,0.7-1.3,0.7
			c-5.9,0.1-11.7,0.3-17.6,0.5C219,250.2,218.7,250.2,218.4,250.2z M219.6,249.4c0.3,0,0.5,0.1,0.6,0.1c5.4-0.1,10.9-0.3,16.3-0.4
			c0.6,0,0.8-0.3,1.1-0.7c2.8-4.5,5.5-9,8.3-13.5c0.1-0.2,0.2-0.5,0.4-0.8c-5.9,0.2-11.7,0.3-17.5,0.5
			C225.8,239.5,222.7,244.4,219.6,249.4z"/>
		<linearGradient id="SVGID_50_" gradientUnits="userSpaceOnUse" x1="-97.7765" y1="253.2477" x2="404.6955" y2="23.7611">
			<stop  offset="0" style="stop-color:#FF1515"/>
			<stop  offset="0.3065" style="stop-color:#9852F4"/>
			<stop  offset="0.6452" style="stop-color:#00D1E9"/>
			<stop  offset="0.9946" style="stop-color:#0054D4"/>
		</linearGradient>
		<path class="st50" d="M218.4,93.7c0.3,0,0.5-0.1,0.7-0.1c5.9,0.2,11.8,0.3,17.8,0.5c0.5,0,0.9,0.2,1.2,0.6
			c3.1,5.1,6.2,10.2,9.3,15.2c0.1,0.1,0.2,0.3,0.3,0.5c-0.3,0-0.6,0.1-0.8,0.1c-5.8-0.2-11.6-0.3-17.5-0.5c-0.6,0-1.1-0.2-1.4-0.8
			c-3-5-6.1-9.9-9.1-14.9C218.7,94.3,218.6,94.1,218.4,93.7z M246.3,109.8c-0.1-0.3-0.2-0.5-0.3-0.7c-2.8-4.5-5.6-9-8.3-13.6
			c-0.3-0.6-0.7-0.7-1.3-0.7c-5.2-0.1-10.3-0.3-15.5-0.4c-0.3,0-0.7,0-1.1,0c0.1,0.3,0.2,0.4,0.3,0.6c2.8,4.6,5.7,9.3,8.5,13.9
			c0.2,0.4,0.5,0.5,1,0.5c5.4,0.1,10.8,0.3,16.1,0.4C245.8,109.9,246,109.9,246.3,109.8z"/>
		<linearGradient id="SVGID_51_" gradientUnits="userSpaceOnUse" x1="-87.2465" y1="276.3067" x2="415.2292" y2="46.8184">
			<stop  offset="0" style="stop-color:#FF1515"/>
			<stop  offset="0.3065" style="stop-color:#9852F4"/>
			<stop  offset="0.6452" style="stop-color:#00D1E9"/>
			<stop  offset="0.9946" style="stop-color:#0054D4"/>
		</linearGradient>
		<path class="st51" d="M247.7,121.6c-0.2,0.4-0.3,0.7-0.5,0.9c-3,4.9-6,9.8-9,14.7c-0.4,0.6-0.8,0.8-1.5,0.8
			c-5.8,0.1-11.6,0.3-17.5,0.5c-0.2,0-0.5,0-0.8,0c0.1-0.3,0.2-0.5,0.3-0.7c3.1-5,6.1-10,9.2-15c0.3-0.5,0.6-0.8,1.3-0.8
			c6-0.1,11.9-0.3,17.9-0.5C247.2,121.6,247.4,121.6,247.7,121.6z M228.8,122.8c-3.1,5-6.1,9.9-9.2,15c0.3,0,0.5,0,0.7,0
			c5.4-0.1,10.8-0.3,16.2-0.4c0.6,0,0.8-0.3,1.1-0.7c2.8-4.5,5.6-9,8.3-13.6c0.1-0.2,0.2-0.4,0.3-0.8
			C240.4,122.5,234.6,122.6,228.8,122.8z"/>
		<linearGradient id="SVGID_52_" gradientUnits="userSpaceOnUse" x1="-95.6004" y1="258.0232" x2="406.8798" y2="28.5328">
			<stop  offset="0" style="stop-color:#FF1515"/>
			<stop  offset="0.3065" style="stop-color:#9852F4"/>
			<stop  offset="0.6452" style="stop-color:#00D1E9"/>
			<stop  offset="0.9946" style="stop-color:#0054D4"/>
		</linearGradient>
		<path class="st52" d="M199.2,138.5c-0.3,0-0.6,0.1-0.8,0.1c-5.9-0.2-11.7-0.3-17.6-0.5c-0.5,0-0.9-0.1-1.3-0.6
			c-3.1-5.1-6.3-10.2-9.4-15.3c-0.1-0.1-0.1-0.2-0.2-0.5c0.3,0,0.6-0.1,0.8-0.1c5.8,0.2,11.6,0.3,17.5,0.5c0.6,0,1.1,0.2,1.4,0.8
			c3,5,6.1,10,9.2,15C199,138,199,138.2,199.2,138.5z M197.9,137.8c-0.1-0.2-0.1-0.3-0.1-0.4c-2.9-4.7-5.8-9.4-8.6-14.1
			c-0.3-0.4-0.6-0.5-1-0.5c-5.3-0.1-10.7-0.3-16-0.4c-0.2,0-0.4,0-0.8,0.1c0.2,0.4,0.4,0.7,0.5,1c2.7,4.3,5.4,8.7,8,13
			c0.4,0.7,0.8,0.9,1.6,0.9c4.9,0.1,9.8,0.3,14.7,0.4C196.7,137.8,197.2,137.8,197.9,137.8z"/>
		<linearGradient id="SVGID_53_" gradientUnits="userSpaceOnUse" x1="-112.298" y1="221.438" x2="390.161" y2="-8.0427">
			<stop  offset="0" style="stop-color:#FF1515"/>
			<stop  offset="0.3065" style="stop-color:#9852F4"/>
			<stop  offset="0.6452" style="stop-color:#00D1E9"/>
			<stop  offset="0.9946" style="stop-color:#0054D4"/>
		</linearGradient>
		<path class="st53" d="M102.3,138.5c-2.5-0.1-4.9-0.1-7.3-0.2c-3.7-0.1-7.4-0.2-11.1-0.3c-0.6,0-1-0.2-1.3-0.7
			c-3.1-5.1-6.2-10.1-9.3-15.1c-0.1-0.1-0.2-0.3-0.3-0.5c0.3,0,0.5-0.1,0.7-0.1c5.9,0.2,11.8,0.3,17.7,0.5c0.6,0,0.9,0.2,1.3,0.7
			c3.1,5.1,6.2,10.2,9.3,15.2C102.1,138.1,102.2,138.2,102.3,138.5z M101,137.8c-0.1-0.2-0.1-0.4-0.2-0.5c-2.9-4.7-5.7-9.3-8.6-14
			c-0.3-0.4-0.6-0.5-1-0.5c-5.3-0.1-10.7-0.3-16-0.4c-0.2,0-0.5,0-0.8,0.1c0.1,0.3,0.2,0.5,0.3,0.7c2.8,4.5,5.6,9,8.3,13.6
			c0.3,0.6,0.8,0.7,1.3,0.7c5.2,0.1,10.3,0.3,15.5,0.4C100.3,137.8,100.6,137.8,101,137.8z"/>
		<linearGradient id="SVGID_54_" gradientUnits="userSpaceOnUse" x1="-53.4052" y1="350.3877" x2="449.0576" y2="120.9053">
			<stop  offset="0" style="stop-color:#FF1515"/>
			<stop  offset="0.3065" style="stop-color:#9852F4"/>
			<stop  offset="0.6452" style="stop-color:#00D1E9"/>
			<stop  offset="0.9946" style="stop-color:#0054D4"/>
		</linearGradient>
		<path class="st54" d="M169.9,233.3c0.4,0,0.7,0,1,0c5.8,0.2,11.5,0.3,17.3,0.5c0.7,0,1.2,0.3,1.6,0.9c3,4.9,6,9.9,9.1,14.8
			c0.1,0.2,0.2,0.4,0.4,0.7c-0.3,0-0.5,0.1-0.7,0.1c-5.9-0.2-11.8-0.3-17.8-0.5c-0.5,0-0.8-0.1-1.1-0.6c-3.1-5.1-6.3-10.3-9.5-15.4
			C170.1,233.7,170.1,233.5,169.9,233.3z M197.9,249.5c-0.1-0.3-0.2-0.4-0.2-0.5c-2.8-4.6-5.7-9.3-8.5-13.9
			c-0.3-0.4-0.6-0.6-1.1-0.6c-5.3-0.1-10.6-0.3-15.9-0.4c-0.3,0-0.5,0-0.9,0.1c0.2,0.4,0.4,0.7,0.5,1c2.7,4.3,5.4,8.7,8,13
			c0.4,0.7,0.9,0.9,1.6,0.9c4.9,0.1,9.7,0.3,14.6,0.4C196.6,249.5,197.2,249.5,197.9,249.5z"/>
		<linearGradient id="SVGID_55_" gradientUnits="userSpaceOnUse" x1="-120.6878" y1="203.0883" x2="381.7912" y2="-26.4015">
			<stop  offset="0" style="stop-color:#FF1515"/>
			<stop  offset="0.3065" style="stop-color:#9852F4"/>
			<stop  offset="0.6452" style="stop-color:#00D1E9"/>
			<stop  offset="0.9946" style="stop-color:#0054D4"/>
		</linearGradient>
		<path class="st55" d="M54,121.6c-1.3,2.2-2.5,4.1-3.7,6.1c-2,3.2-4,6.4-5.9,9.6c-0.3,0.5-0.6,0.8-1.3,0.8
			c-5.9,0.1-11.8,0.3-17.8,0.5c-0.2,0-0.3,0-0.6,0c0.1-0.3,0.2-0.5,0.3-0.7c3.1-5,6.2-10,9.2-15.1c0.3-0.5,0.7-0.7,1.3-0.8
			c2.4,0,4.8-0.1,7.2-0.2c3.4-0.1,6.7-0.2,10.1-0.3C53.1,121.6,53.4,121.6,54,121.6z M25.9,137.8c1.9-0.1,3.6-0.1,5.3-0.2
			c3.8-0.1,7.6-0.2,11.4-0.3c0.6,0,0.9-0.1,1.3-0.7c2.8-4.6,5.6-9.1,8.4-13.7c0.1-0.2,0.2-0.4,0.3-0.7c-0.4,0-0.7,0-0.9,0
			c-5.2,0.1-10.5,0.3-15.7,0.4c-0.6,0-1,0.3-1.3,0.8c-2.7,4.4-5.4,8.9-8.2,13.3C26.2,137.1,26.1,137.4,25.9,137.8z"/>
		<linearGradient id="SVGID_56_" gradientUnits="userSpaceOnUse" x1="-122.8628" y1="198.3293" x2="379.618" y2="-31.1613">
			<stop  offset="0" style="stop-color:#FF1515"/>
			<stop  offset="0.3065" style="stop-color:#9852F4"/>
			<stop  offset="0.6452" style="stop-color:#00D1E9"/>
			<stop  offset="0.9946" style="stop-color:#0054D4"/>
		</linearGradient>
		<path class="st56" d="M102.4,93.7c-1.5,2.4-2.8,4.6-4.2,6.8c-1.8,2.9-3.6,5.9-5.4,8.8c-0.3,0.5-0.7,0.8-1.3,0.8
			c-5.9,0.1-11.8,0.3-17.8,0.5c-0.2,0-0.3,0-0.6,0c0.1-0.3,0.2-0.5,0.4-0.7c3.1-5,6.1-10,9.2-15c0.3-0.5,0.6-0.7,1.2-0.7
			c5.9-0.1,11.8-0.3,17.8-0.5C101.8,93.7,102,93.7,102.4,93.7z M91.9,109.4c3.1-5,6.1-9.9,9.2-15c-0.3,0-0.4-0.1-0.6-0.1
			c-5.4,0.1-10.9,0.3-16.3,0.4c-0.6,0-0.8,0.3-1.1,0.7c-2.8,4.5-5.5,9-8.3,13.5c-0.1,0.2-0.2,0.5-0.4,0.8
			C80.3,109.8,86.1,109.6,91.9,109.4z"/>
		<linearGradient id="SVGID_57_" gradientUnits="userSpaceOnUse" x1="-80.6728" y1="290.7709" x2="421.8045" y2="61.2819">
			<stop  offset="0" style="stop-color:#FF1515"/>
			<stop  offset="0.3065" style="stop-color:#9852F4"/>
			<stop  offset="0.6452" style="stop-color:#00D1E9"/>
			<stop  offset="0.9946" style="stop-color:#0054D4"/>
		</linearGradient>
		<path class="st57" d="M102.4,205.4c-1.4,2.4-2.8,4.5-4.1,6.7c-1.8,3-3.7,5.9-5.5,8.9c-0.3,0.5-0.7,0.8-1.3,0.8
			c-5.9,0.1-11.8,0.3-17.8,0.5c-0.2,0-0.3,0-0.6,0c0.1-0.3,0.2-0.5,0.4-0.7c3.1-5,6.1-10,9.2-15c0.3-0.5,0.7-0.7,1.3-0.7
			c5.9-0.1,11.7-0.3,17.6-0.5C101.7,205.4,102,205.4,102.4,205.4z M101.1,206.1c-1.9,0.1-3.5,0.1-5.2,0.2c-3.8,0.1-7.6,0.2-11.4,0.3
			c-0.6,0-1,0.1-1.4,0.7c-2.8,4.6-5.6,9.1-8.4,13.7c-0.1,0.2-0.2,0.4-0.3,0.7c0.4,0,0.7,0,0.9,0c5.2-0.1,10.5-0.3,15.7-0.4
			c0.6,0,1-0.3,1.3-0.8c2.7-4.5,5.5-8.9,8.2-13.4C100.7,206.8,100.8,206.5,101.1,206.1z"/>
		<linearGradient id="SVGID_58_" gradientUnits="userSpaceOnUse" x1="-61.7527" y1="332.1236" x2="440.7185" y2="102.6373">
			<stop  offset="0" style="stop-color:#FF1515"/>
			<stop  offset="0.3065" style="stop-color:#9852F4"/>
			<stop  offset="0.6452" style="stop-color:#00D1E9"/>
			<stop  offset="0.9946" style="stop-color:#0054D4"/>
		</linearGradient>
		<path class="st58" d="M121.4,250.2c0.8-1.4,1.6-2.6,2.3-3.8c2.4-4,4.9-7.9,7.3-11.9c0.3-0.5,0.7-0.8,1.3-0.8
			c6-0.1,11.9-0.3,17.9-0.5c0.1,0,0.3,0,0.5,0c-0.1,0.3-0.2,0.5-0.3,0.7c-3.1,5-6.1,10-9.2,15c-0.3,0.5-0.7,0.7-1.3,0.7
			c-5.9,0.1-11.7,0.3-17.6,0.5C122.1,250.2,121.9,250.2,121.4,250.2z M122.7,249.4c0.3,0,0.4,0.1,0.6,0.1c5.4-0.1,10.9-0.3,16.3-0.4
			c0.6,0,0.8-0.3,1.1-0.7c2.8-4.5,5.5-9,8.3-13.5c0.1-0.2,0.2-0.5,0.4-0.8c-5.9,0.2-11.7,0.3-17.5,0.5
			C128.9,239.4,125.9,244.4,122.7,249.4z"/>
		<linearGradient id="SVGID_59_" gradientUnits="userSpaceOnUse" x1="-63.9268" y1="327.3572" x2="438.5414" y2="97.8723">
			<stop  offset="0" style="stop-color:#FF1515"/>
			<stop  offset="0.3065" style="stop-color:#9852F4"/>
			<stop  offset="0.6452" style="stop-color:#00D1E9"/>
			<stop  offset="0.9946" style="stop-color:#0054D4"/>
		</linearGradient>
		<path class="st59" d="M199.2,205.5c-0.4,0.6-0.6,1.1-0.9,1.5c-2.9,4.7-5.8,9.4-8.7,14.1c-0.3,0.5-0.6,0.8-1.3,0.8
			c-6,0.1-11.9,0.3-17.9,0.5c-0.1,0-0.3,0-0.5,0c0.1-0.2,0.2-0.5,0.3-0.6c3.1-5,6.2-10.1,9.3-15.1c0.2-0.4,0.5-0.7,1-0.7
			c6-0.2,12.1-0.3,18.1-0.5C198.8,205.4,198.9,205.4,199.2,205.5z M198,206.2c-0.4,0-0.5,0-0.7,0c-5.4,0.1-10.8,0.3-16.2,0.4
			c-0.6,0-0.8,0.3-1.1,0.7c-2.8,4.5-5.6,9-8.3,13.6c-0.1,0.2-0.2,0.4-0.3,0.8c5.9-0.2,11.7-0.3,17.5-0.5
			C191.8,216.2,194.9,211.3,198,206.2z"/>
		<linearGradient id="SVGID_60_" gradientUnits="userSpaceOnUse" x1="-132.3266" y1="177.6206" x2="370.1653" y2="-51.8751">
			<stop  offset="0" style="stop-color:#FF1515"/>
			<stop  offset="0.3065" style="stop-color:#9852F4"/>
			<stop  offset="0.6452" style="stop-color:#00D1E9"/>
			<stop  offset="0.9946" style="stop-color:#0054D4"/>
		</linearGradient>
		<path class="st60" d="M63.5,71.3c0.2,0.4,0.4,0.7,0.5,0.9c2.7,5,5.4,10.1,8.2,15.1c0.4,0.6,0.4,1.1,0,1.8
			c-2.7,5-5.5,10.1-8.2,15.1c-0.2,0.3-0.3,0.6-0.6,1c-0.2-0.4-0.4-0.7-0.6-1C60.2,99.1,57.4,94,54.7,89c-0.3-0.6-0.4-1,0-1.6
			c2.8-5.1,5.6-10.2,8.3-15.4C63.1,71.8,63.3,71.6,63.5,71.3z M63.5,72.8c-0.2,0.2-0.3,0.4-0.4,0.6c-2.6,4.7-5.1,9.5-7.7,14.2
			c-0.3,0.5-0.2,0.9,0,1.3c2.6,4.7,5.1,9.4,7.6,14.1c0.1,0.2,0.3,0.4,0.4,0.6c0.1-0.2,0.2-0.4,0.3-0.5c2.6-4.7,5.1-9.5,7.7-14.2
			c0.3-0.5,0.2-0.9,0-1.4c-2.5-4.6-5-9.3-7.5-13.9C63.8,73.3,63.6,73.1,63.5,72.8z"/>
		<linearGradient id="SVGID_61_" gradientUnits="userSpaceOnUse" x1="-146.1698" y1="147.28" x2="356.2977" y2="-82.2045">
			<stop  offset="0" style="stop-color:#FF1515"/>
			<stop  offset="0.3065" style="stop-color:#9852F4"/>
			<stop  offset="0.6452" style="stop-color:#00D1E9"/>
			<stop  offset="0.9946" style="stop-color:#0054D4"/>
		</linearGradient>
		<path class="st61" d="M121.4,26.8c1.2-1.9,2.2-3.6,3.3-5.3c2.1-3.4,4.2-6.9,6.3-10.3c0.3-0.5,0.7-0.8,1.3-0.8
			c6-0.1,11.9-0.3,17.9-0.5c0.1,0,0.3,0,0.5,0c-0.1,0.3-0.2,0.5-0.3,0.7c-3.1,5-6.1,10-9.2,15c-0.3,0.5-0.6,0.7-1.2,0.7
			c-5.9,0.1-11.8,0.3-17.8,0.5C122,26.8,121.8,26.8,121.4,26.8z M131.9,11.1c-3.1,5-6.1,9.9-9.2,15c0.4,0,0.7,0,0.9,0
			c5.3-0.1,10.6-0.3,15.9-0.4c0.6,0,0.9-0.2,1.2-0.7c2.8-4.5,5.6-9,8.3-13.6c0.1-0.2,0.2-0.4,0.4-0.8
			C143.5,10.8,137.8,10.9,131.9,11.1z"/>
		<linearGradient id="SVGID_62_" gradientUnits="userSpaceOnUse" x1="-129.4603" y1="183.9006" x2="373.0277" y2="-45.5933">
			<stop  offset="0" style="stop-color:#FF1515"/>
			<stop  offset="0.3065" style="stop-color:#9852F4"/>
			<stop  offset="0.6452" style="stop-color:#00D1E9"/>
			<stop  offset="0.9946" style="stop-color:#0054D4"/>
		</linearGradient>
		<path class="st62" d="M218.3,26.8c0.9-1.5,1.7-2.8,2.5-4.1c2.4-3.9,4.7-7.7,7.1-11.6c0.3-0.5,0.7-0.8,1.3-0.8
			c6-0.1,11.9-0.3,17.9-0.5c0.1,0,0.3,0,0.5,0c-0.1,0.3-0.2,0.5-0.3,0.7c-3.1,5-6.1,10-9.2,15c-0.3,0.5-0.6,0.7-1.2,0.8
			c-6,0.1-11.9,0.3-17.9,0.5C218.8,26.8,218.7,26.8,218.3,26.8z M246.3,10.7c-0.3,0-0.6-0.1-0.8-0.1c-5.3,0.1-10.7,0.3-16,0.4
			c-0.5,0-0.8,0.2-1.1,0.6c-2.8,4.6-5.6,9.2-8.4,13.7c-0.1,0.2-0.2,0.4-0.3,0.7c0.3,0,0.5,0,0.7,0c5.3-0.1,10.6-0.3,15.9-0.4
			c0.6,0,1-0.3,1.3-0.8c2.7-4.5,5.5-8.9,8.2-13.4C246,11.3,246.1,11,246.3,10.7z"/>
		<linearGradient id="SVGID_63_" gradientUnits="userSpaceOnUse" x1="-133.439" y1="175.1644" x2="369.0347" y2="-54.3229">
			<stop  offset="0" style="stop-color:#FF1515"/>
			<stop  offset="0.3065" style="stop-color:#9852F4"/>
			<stop  offset="0.6452" style="stop-color:#00D1E9"/>
			<stop  offset="0.9946" style="stop-color:#0054D4"/>
		</linearGradient>
		<path class="st63" d="M73,65.7c6.5,0.2,12.9,0.4,19.3,0.5c3.3,5.4,6.7,10.9,10.1,16.4c-0.4,0-0.7,0.1-1,0
			c-5.8-0.2-11.6-0.3-17.5-0.5c-0.5,0-0.9-0.1-1.3-0.7c-3.1-5.1-6.3-10.3-9.5-15.4C73.2,66.1,73.2,66,73,65.7z M74.4,66.6
			c0.1,0.2,0.1,0.3,0.2,0.5c2.8,4.6,5.7,9.2,8.5,13.8c0.3,0.5,0.7,0.6,1.2,0.6c5.3,0.1,10.5,0.3,15.8,0.4c0.3,0,0.5,0,0.9-0.1
			c-0.2-0.4-0.3-0.6-0.5-0.9c-2.7-4.4-5.4-8.7-8.1-13.1c-0.4-0.7-0.9-1-1.7-1c-4.1-0.1-8.3-0.2-12.4-0.3
			C77.1,66.5,75.8,66.6,74.4,66.6z"/>
		<linearGradient id="SVGID_64_" gradientUnits="userSpaceOnUse" x1="-141.7957" y1="156.8722" x2="360.6833" y2="-72.6176">
			<stop  offset="0" style="stop-color:#FF1515"/>
			<stop  offset="0.3065" style="stop-color:#9852F4"/>
			<stop  offset="0.6452" style="stop-color:#00D1E9"/>
			<stop  offset="0.9946" style="stop-color:#0054D4"/>
		</linearGradient>
		<path class="st64" d="M53.9,65.8c-0.2,0.4-0.3,0.6-0.5,0.8c-3,4.9-6.1,9.9-9.1,14.8c-0.3,0.5-0.7,0.8-1.4,0.9
			c-5.9,0.1-11.7,0.3-17.6,0.5c-0.2,0-0.5,0-0.8,0c0.2-0.4,0.3-0.6,0.5-0.9c3-4.9,6.1-9.9,9.1-14.8c0.3-0.5,0.5-0.8,1.2-0.8
			c6-0.1,12-0.3,18-0.5C53.5,65.7,53.6,65.7,53.9,65.8z M25.9,81.9c0.4,0,0.7,0,1,0c5.2-0.1,10.5-0.3,15.7-0.4c0.7,0,1-0.3,1.4-0.8
			c2.7-4.4,5.4-8.8,8.1-13.2c0.2-0.3,0.3-0.6,0.5-1c-0.4,0-0.7,0-0.9,0c-5.2,0.1-10.5,0.3-15.7,0.4c-0.7,0-1,0.3-1.4,0.8
			c-2.7,4.5-5.5,8.9-8.2,13.4C26.2,81.3,26.1,81.5,25.9,81.9z"/>
		<linearGradient id="SVGID_65_" gradientUnits="userSpaceOnUse" x1="-118.8748" y1="207.0529" x2="383.6008" y2="-22.4353">
			<stop  offset="0" style="stop-color:#FF1515"/>
			<stop  offset="0.3065" style="stop-color:#9852F4"/>
			<stop  offset="0.6452" style="stop-color:#00D1E9"/>
			<stop  offset="0.9946" style="stop-color:#0054D4"/>
		</linearGradient>
		<path class="st65" d="M247.7,54.8c-2.4-0.1-4.6-0.1-6.8-0.1c-3.9-0.1-7.8-0.2-11.7-0.3c-0.6,0-0.9-0.2-1.2-0.7
			c-3.1-5-6.2-10-9.2-15.1c-0.1-0.2-0.2-0.4-0.4-0.7c0.5,0,0.8,0,1.1,0c5.7,0.2,11.4,0.3,17.2,0.5c0.6,0,1.1,0.2,1.4,0.8
			c3.1,5,6.2,10,9.2,15.1C247.4,54.3,247.5,54.5,247.7,54.8z M246.3,54.1c-0.1-0.3-0.1-0.4-0.2-0.5c-2.8-4.6-5.7-9.3-8.5-13.9
			c-0.3-0.4-0.6-0.6-1.1-0.6c-5.4-0.1-10.8-0.3-16.1-0.4c-0.2,0-0.4,0-0.7,0.1c0.2,0.3,0.3,0.5,0.4,0.7c2.8,4.5,5.5,9,8.3,13.5
			c0.4,0.6,0.8,0.8,1.4,0.8c5.2,0.1,10.4,0.3,15.6,0.4C245.7,54.1,245.9,54.1,246.3,54.1z"/>
		<linearGradient id="SVGID_66_" gradientUnits="userSpaceOnUse" x1="-110.1184" y1="226.233" x2="392.3643" y2="-3.2584">
			<stop  offset="0" style="stop-color:#FF1515"/>
			<stop  offset="0.3065" style="stop-color:#9852F4"/>
			<stop  offset="0.6452" style="stop-color:#00D1E9"/>
			<stop  offset="0.9946" style="stop-color:#0054D4"/>
		</linearGradient>
		<path class="st66" d="M53.9,166.4c-0.2,0-0.4,0.1-0.5,0.1c-6-0.2-12.1-0.3-18.1-0.5c-0.7,0-0.9-0.4-1.2-0.8
			c-2.3-3.8-4.7-7.6-7-11.4c-0.7-1.1-1.3-2.2-2-3.2c-0.2-0.3-0.3-0.6-0.6-1c0.4,0,0.7-0.1,1-0.1c5.8,0.2,11.6,0.3,17.4,0.5
			c0.6,0,1,0.2,1.3,0.7c3.1,5.1,6.2,10.2,9.4,15.2C53.7,166.1,53.8,166.2,53.9,166.4z M52.5,165.7c-0.1-0.2-0.1-0.4-0.2-0.5
			c-2.8-4.6-5.7-9.3-8.5-13.9c-0.2-0.4-0.5-0.5-1-0.5c-5.4-0.1-10.8-0.3-16.1-0.4c-0.2,0-0.4,0.1-0.7,0.1c0.2,0.4,0.4,0.6,0.5,0.9
			c2.6,4.2,5.2,8.5,7.8,12.7c0.9,1.5,0.4,1.3,2.4,1.4c4.7,0.1,9.3,0.3,14,0.4C51.2,165.8,51.8,165.7,52.5,165.7z"/>
		<linearGradient id="SVGID_67_" gradientUnits="userSpaceOnUse" x1="-93.3813" y1="262.8471" x2="409.0712" y2="33.3694">
			<stop  offset="0" style="stop-color:#FF1515"/>
			<stop  offset="0.3065" style="stop-color:#9852F4"/>
			<stop  offset="0.6452" style="stop-color:#00D1E9"/>
			<stop  offset="0.9946" style="stop-color:#0054D4"/>
		</linearGradient>
		<path class="st67" d="M150.8,166.5c-6.5-0.2-12.9-0.4-19.3-0.5c-3.3-5.4-6.7-10.9-10.1-16.4c0.6,0,0.9,0,1.3,0
			c5.7,0.2,11.4,0.3,17.1,0.5c0.6,0,1,0.1,1.4,0.7c3.1,5.1,6.3,10.2,9.4,15.3C150.6,166.1,150.7,166.2,150.8,166.5z M122.8,150.4
			c0.1,0.2,0.2,0.4,0.3,0.6c2.8,4.5,5.6,9,8.3,13.6c0.3,0.5,0.7,0.7,1.3,0.8c5.3,0.1,10.6,0.3,15.8,0.4c0.3,0,0.5,0,0.8-0.1
			c-0.1-0.3-0.2-0.4-0.3-0.6c-2.8-4.6-5.6-9.2-8.4-13.8c-0.3-0.5-0.7-0.7-1.3-0.7c-3.4-0.1-6.8-0.2-10.3-0.3
			C127.1,150.4,125,150.4,122.8,150.4z"/>
		<linearGradient id="SVGID_68_" gradientUnits="userSpaceOnUse" x1="-85.0382" y1="281.1469" x2="417.439" y2="51.6579">
			<stop  offset="0" style="stop-color:#FF1515"/>
			<stop  offset="0.3065" style="stop-color:#9852F4"/>
			<stop  offset="0.6452" style="stop-color:#00D1E9"/>
			<stop  offset="0.9946" style="stop-color:#0054D4"/>
		</linearGradient>
		<path class="st68" d="M169.9,166.5c1.5-2.5,3-4.9,4.4-7.2c1.7-2.8,3.5-5.7,5.2-8.5c0.3-0.4,0.6-0.7,1.1-0.7
			c6-0.1,12.1-0.3,18.1-0.5c0.1,0,0.2,0,0.4,0.1c-0.1,0.3-0.2,0.5-0.3,0.7c-3.1,5-6.1,10-9.2,15c-0.3,0.5-0.6,0.7-1.2,0.7
			c-5.9,0.1-11.8,0.3-17.8,0.5C170.4,166.5,170.3,166.5,169.9,166.5z M171.2,165.8c0.4,0,0.7,0,1,0c5.2-0.1,10.4-0.3,15.6-0.4
			c0.7,0,1-0.2,1.4-0.8c2.7-4.4,5.4-8.9,8.2-13.3c0.2-0.3,0.3-0.5,0.5-0.9c-0.4,0-0.6-0.1-0.9,0c-5.3,0.1-10.5,0.3-15.8,0.4
			c-0.6,0-0.9,0.2-1.2,0.7c-2.7,4.5-5.5,9-8.3,13.5C171.5,165.2,171.4,165.4,171.2,165.8z"/>
		<linearGradient id="SVGID_69_" gradientUnits="userSpaceOnUse" x1="-76.6604" y1="299.4845" x2="425.8136" y2="69.997">
			<stop  offset="0" style="stop-color:#FF1515"/>
			<stop  offset="0.3065" style="stop-color:#9852F4"/>
			<stop  offset="0.6452" style="stop-color:#00D1E9"/>
			<stop  offset="0.9946" style="stop-color:#0054D4"/>
		</linearGradient>
		<path class="st69" d="M247.7,166.5c-0.3,0-0.5,0.1-0.7,0.1c-5.9-0.2-11.8-0.3-17.8-0.5c-0.5,0-0.9-0.1-1.2-0.6
			c-3.1-5.1-6.3-10.2-9.4-15.3c-0.1-0.1-0.1-0.2-0.2-0.5c0.3,0,0.5-0.1,0.7-0.1c5.9,0.2,11.8,0.3,17.7,0.5c0.5,0,0.9,0.1,1.2,0.6
			c3.1,5.1,6.3,10.3,9.5,15.4C247.5,166.1,247.6,166.3,247.7,166.5z M219.7,150.3c0.1,0.3,0.2,0.4,0.2,0.5c2.8,4.6,5.7,9.2,8.5,13.8
			c0.3,0.5,0.7,0.6,1.3,0.7c5.3,0.1,10.5,0.3,15.8,0.4c0.2,0,0.5,0,0.8-0.1c-0.1-0.3-0.2-0.4-0.3-0.5c-2.8-4.6-5.6-9.2-8.4-13.8
			c-0.3-0.5-0.7-0.6-1.3-0.7c-5.2-0.1-10.5-0.3-15.7-0.4C220.4,150.3,220.1,150.3,219.7,150.3z"/>
		<linearGradient id="SVGID_70_" gradientUnits="userSpaceOnUse" x1="-59.5446" y1="336.9643" x2="442.9367" y2="107.4734">
			<stop  offset="0" style="stop-color:#FF1515"/>
			<stop  offset="0.3065" style="stop-color:#9852F4"/>
			<stop  offset="0.6452" style="stop-color:#00D1E9"/>
			<stop  offset="0.9946" style="stop-color:#0054D4"/>
		</linearGradient>
		<path class="st70" d="M73,278.2c0.2-0.3,0.3-0.6,0.4-0.8c3-4.9,6.1-9.9,9.1-14.8c0.4-0.6,0.7-0.9,1.5-0.9
			c5.8-0.1,11.5-0.3,17.3-0.4c0.3,0,0.6,0,1,0c-0.2,0.3-0.2,0.6-0.4,0.8c-3,5-6.1,9.9-9.1,14.9c-0.3,0.6-0.7,0.8-1.4,0.8
			c-5.9,0.1-11.7,0.3-17.6,0.5C73.6,278.2,73.4,278.2,73,278.2z M101,262.1c-0.4,0-0.6-0.1-0.9,0c-5.3,0.1-10.6,0.3-15.9,0.4
			c-0.6,0-0.9,0.3-1.2,0.7c-2.7,4.5-5.5,9-8.3,13.5c-0.1,0.2-0.2,0.5-0.4,0.8c0.3,0,0.5,0,0.7,0c5.3-0.1,10.7-0.3,16-0.4
			c0.7,0,1-0.3,1.3-0.8c2.6-4.2,5.2-8.5,7.8-12.7C100.4,263.1,100.7,262.7,101,262.1z"/>
		<linearGradient id="SVGID_71_" gradientUnits="userSpaceOnUse" x1="-51.1713" y1="355.2909" x2="451.2992" y2="125.805">
			<stop  offset="0" style="stop-color:#FF1515"/>
			<stop  offset="0.3065" style="stop-color:#9852F4"/>
			<stop  offset="0.6452" style="stop-color:#00D1E9"/>
			<stop  offset="0.9946" style="stop-color:#0054D4"/>
		</linearGradient>
		<path class="st71" d="M150.8,278.2c-0.3,0-0.5,0.1-0.7,0.1c-5.9-0.2-11.8-0.3-17.8-0.5c-0.5,0-0.9-0.1-1.2-0.6
			c-3.1-5.1-6.2-10.2-9.4-15.2c-0.1-0.1-0.1-0.3-0.3-0.5c0.3,0,0.5-0.1,0.7-0.1c5.9,0.2,11.8,0.3,17.7,0.5c0.5,0,0.9,0.1,1.2,0.6
			c3.1,5.1,6.3,10.3,9.5,15.4C150.6,277.8,150.7,278,150.8,278.2z M122.8,262.1c0.1,0.3,0.2,0.4,0.3,0.6c2.8,4.6,5.6,9.1,8.4,13.7
			c0.3,0.5,0.7,0.7,1.2,0.7c5.3,0.1,10.7,0.3,16,0.4c0.2,0,0.4,0,0.6,0c0-0.2,0-0.3-0.1-0.4c-2.9-4.7-5.8-9.4-8.6-14.1
			c-0.3-0.4-0.6-0.5-1-0.5c-5.3-0.1-10.7-0.3-16-0.4C123.4,262,123.1,262,122.8,262.1z"/>
		<linearGradient id="SVGID_72_" gradientUnits="userSpaceOnUse" x1="-103.9716" y1="239.6858" x2="398.5018" y2="10.1985">
			<stop  offset="0" style="stop-color:#FF1515"/>
			<stop  offset="0.3065" style="stop-color:#9852F4"/>
			<stop  offset="0.6452" style="stop-color:#00D1E9"/>
			<stop  offset="0.9946" style="stop-color:#0054D4"/>
		</linearGradient>
		<path class="st72" d="M150.8,121.6c-0.2,0.4-0.4,0.7-0.6,1c-3,4.8-6,9.7-8.9,14.5c-0.4,0.7-0.9,0.9-1.6,0.9
			c-5.8,0.1-11.5,0.3-17.3,0.5c-0.3,0-0.5,0-0.9,0c0.2-0.4,0.3-0.6,0.5-0.9c3-4.9,6.1-9.9,9.1-14.8c0.3-0.5,0.7-0.8,1.3-0.8
			c5.9-0.1,11.8-0.3,17.8-0.5C150.3,121.6,150.5,121.6,150.8,121.6z M149.4,122.4c-0.3,0-0.4-0.1-0.6-0.1
			c-5.4,0.1-10.9,0.3-16.3,0.4c-0.5,0-0.7,0.3-1,0.6c-2.8,4.6-5.6,9.2-8.4,13.7c-0.1,0.2-0.2,0.4-0.3,0.7c0.3,0,0.5,0,0.7,0
			c5.3-0.1,10.6-0.3,15.9-0.4c0.6,0,1-0.3,1.3-0.8c2.7-4.5,5.5-8.9,8.2-13.4C149.2,123,149.3,122.7,149.4,122.4z"/>
		<linearGradient id="SVGID_73_" gradientUnits="userSpaceOnUse" x1="-34.4684" y1="391.8644" x2="468.0037" y2="162.3778">
			<stop  offset="0" style="stop-color:#FF1515"/>
			<stop  offset="0.3065" style="stop-color:#9852F4"/>
			<stop  offset="0.6452" style="stop-color:#00D1E9"/>
			<stop  offset="0.9946" style="stop-color:#0054D4"/>
		</linearGradient>
		<path class="st73" d="M218.4,261.2c0.5,0,0.8,0,1.1,0c5.7,0.2,11.4,0.3,17.2,0.5c0.6,0,1,0.1,1.4,0.7c3.1,5.1,6.3,10.2,9.4,15.3
			c0.1,0.1,0.1,0.2,0.2,0.4c-0.3,0-0.5,0.1-0.7,0.1c-5.9-0.2-11.7-0.3-17.6-0.5c-0.6,0-1-0.1-1.3-0.7c-3.1-5-6.2-10-9.2-15.1
			C218.6,261.8,218.6,261.6,218.4,261.2z M219.7,262c0.1,0.3,0.2,0.4,0.2,0.5c2.8,4.6,5.7,9.2,8.5,13.8c0.3,0.5,0.7,0.6,1.3,0.7
			c5.3,0.1,10.5,0.3,15.8,0.4c0.3,0,0.5,0,0.8-0.1c-0.1-0.3-0.2-0.4-0.3-0.5c-2.8-4.6-5.6-9.2-8.4-13.8c-0.3-0.5-0.7-0.6-1.3-0.7
			c-5.2-0.1-10.4-0.3-15.6-0.4C220.5,262,220.1,262,219.7,262z"/>
		<linearGradient id="SVGID_74_" gradientUnits="userSpaceOnUse" x1="-135.6161" y1="170.4008" x2="366.8614" y2="-59.0883">
			<stop  offset="0" style="stop-color:#FF1515"/>
			<stop  offset="0.3065" style="stop-color:#9852F4"/>
			<stop  offset="0.6452" style="stop-color:#00D1E9"/>
			<stop  offset="0.9946" style="stop-color:#0054D4"/>
		</linearGradient>
		<path class="st74" d="M121.5,37.9c0.9,0,1.6,0,2.4,0c5.2,0.1,10.5,0.3,15.7,0.4c0.8,0,1.3,0.3,1.7,1c3,4.9,6,9.8,9,14.7
			c0.1,0.2,0.2,0.4,0.4,0.7c-0.3,0-0.5,0.1-0.7,0.1c-5.9-0.2-11.8-0.3-17.8-0.5c-0.5,0-0.8-0.1-1.1-0.6c-3.1-5.1-6.3-10.3-9.5-15.4
			C121.7,38.2,121.6,38.1,121.5,37.9z M122.8,38.6c0.1,0.3,0.2,0.4,0.3,0.5c2.8,4.6,5.7,9.2,8.5,13.8c0.3,0.5,0.6,0.6,1.2,0.6
			c5.3,0.1,10.7,0.3,16,0.4c0.2,0,0.4-0.1,0.7-0.1c-0.1-0.2-0.2-0.3-0.2-0.5c-2.8-4.6-5.7-9.2-8.5-13.8c-0.3-0.5-0.7-0.6-1.3-0.6
			c-5.2-0.1-10.4-0.3-15.6-0.4C123.5,38.6,123.2,38.6,122.8,38.6z"/>
		<linearGradient id="SVGID_75_" gradientUnits="userSpaceOnUse" x1="-143.9585" y1="152.1165" x2="358.5039" y2="-77.3657">
			<stop  offset="0" style="stop-color:#FF1515"/>
			<stop  offset="0.3065" style="stop-color:#9852F4"/>
			<stop  offset="0.6452" style="stop-color:#00D1E9"/>
			<stop  offset="0.9946" style="stop-color:#0054D4"/>
		</linearGradient>
		<path class="st75" d="M73,54.8c0.2-0.4,0.3-0.6,0.5-0.9c3-4.9,6-9.8,9-14.7c0.4-0.7,0.8-0.9,1.6-1c5.6-0.1,11.3-0.3,16.9-0.4
			c0.4,0,0.7,0,1.2,0c-0.2,0.4-0.3,0.7-0.5,0.9c-3,4.9-6,9.8-9,14.7c-0.4,0.6-0.7,0.9-1.4,0.9c-5.9,0.1-11.7,0.3-17.6,0.5
			C73.6,54.8,73.4,54.8,73,54.8z M74.3,54.1c0.4,0,0.5,0,0.7,0c5.3-0.1,10.7-0.3,16-0.4c0.6,0,1-0.3,1.3-0.8
			c2.7-4.4,5.4-8.9,8.2-13.3c0.2-0.3,0.3-0.5,0.5-0.9c-0.4,0-0.7-0.1-1,0c-5.2,0.1-10.5,0.3-15.7,0.4c-0.6,0-1,0.3-1.3,0.8
			c-2.7,4.4-5.4,8.9-8.2,13.3C74.7,53.4,74.6,53.6,74.3,54.1z"/>
		<linearGradient id="SVGID_76_" gradientUnits="userSpaceOnUse" x1="-152.3194" y1="133.8231" x2="350.1542" y2="-95.6643">
			<stop  offset="0" style="stop-color:#FF1515"/>
			<stop  offset="0.3065" style="stop-color:#9852F4"/>
			<stop  offset="0.6452" style="stop-color:#00D1E9"/>
			<stop  offset="0.9946" style="stop-color:#0054D4"/>
		</linearGradient>
		<path class="st76" d="M53.9,54.8c-2.4-0.1-4.6-0.1-6.9-0.2c-3.9-0.1-7.7-0.2-11.6-0.3c-0.6,0-0.9-0.2-1.2-0.7
			c-3.1-5-6.2-10-9.2-15.1c-0.1-0.2-0.2-0.4-0.4-0.7c0.5,0,0.8,0,1.1,0c5.7,0.2,11.4,0.3,17.2,0.5c0.6,0,1.1,0.2,1.4,0.8
			c3.1,5,6.2,10,9.2,15.1C53.6,54.3,53.7,54.5,53.9,54.8z M25.9,38.6c0.1,0.3,0.2,0.4,0.3,0.5c2.8,4.6,5.7,9.2,8.5,13.8
			c0.3,0.5,0.6,0.6,1.2,0.6c5.3,0.1,10.7,0.3,16,0.4c0.2,0,0.4-0.1,0.7-0.1c-0.1-0.2-0.2-0.3-0.2-0.5c-2.8-4.6-5.7-9.2-8.5-13.8
			c-0.3-0.5-0.7-0.6-1.3-0.6c-5.2-0.1-10.4-0.3-15.6-0.4C26.7,38.6,26.4,38.6,25.9,38.6z"/>
		<linearGradient id="SVGID_77_" gradientUnits="userSpaceOnUse" x1="-99.575" y1="249.3143" x2="402.903" y2="19.825">
			<stop  offset="0" style="stop-color:#FF1515"/>
			<stop  offset="0.3065" style="stop-color:#9852F4"/>
			<stop  offset="0.6452" style="stop-color:#00D1E9"/>
			<stop  offset="0.9946" style="stop-color:#0054D4"/>
		</linearGradient>
		<path class="st77" d="M24.6,194.3c0.3-0.5,0.4-0.8,0.6-1c3-4.8,6-9.7,8.9-14.5c0.4-0.6,0.7-0.9,1.4-0.9c5.8-0.1,11.6-0.3,17.5-0.5
			c0.3,0,0.5,0,0.9,0c-0.2,0.3-0.2,0.4-0.3,0.6c-3.1,5-6.2,10-9.2,15.1c-0.3,0.5-0.7,0.8-1.3,0.8c-5.9,0.1-11.7,0.3-17.6,0.5
			C25.2,194.4,25,194.4,24.6,194.3z M25.9,193.6c0.3,0,0.6,0.1,0.8,0.1c5.3-0.1,10.6-0.3,15.9-0.4c0.6,0,0.9-0.2,1.2-0.7
			c2.7-4.5,5.5-9,8.3-13.5c0.1-0.2,0.2-0.5,0.4-0.8c-0.3,0-0.5,0-0.7,0c-5.3,0.1-10.7,0.3-16,0.4c-0.7,0-1,0.3-1.3,0.8
			c-2.7,4.4-5.5,8.9-8.2,13.3C26.2,193,26.1,193.2,25.9,193.6z"/>
		<linearGradient id="SVGID_78_" gradientUnits="userSpaceOnUse" x1="-66.1368" y1="322.5193" x2="436.3341" y2="93.0332">
			<stop  offset="0" style="stop-color:#FF1515"/>
			<stop  offset="0.3065" style="stop-color:#9852F4"/>
			<stop  offset="0.6452" style="stop-color:#00D1E9"/>
			<stop  offset="0.9946" style="stop-color:#0054D4"/>
		</linearGradient>
		<path class="st78" d="M247.7,177.5c-1.9,3.2-3.8,6.2-5.6,9.2c-1.3,2.1-2.6,4.2-3.9,6.4c-0.4,0.6-0.8,0.9-1.5,0.9
			c-3.3,0.1-6.6,0.2-9.9,0.2c-2.4,0.1-4.8,0.1-7.2,0.2c-0.3,0-0.7,0-1.2,0c0.2-0.3,0.3-0.6,0.4-0.9c3-5,6.1-9.9,9.1-14.9
			c0.3-0.5,0.6-0.7,1.2-0.7c5.9-0.1,11.8-0.3,17.8-0.5C247.2,177.4,247.4,177.4,247.7,177.5z M246.4,178.2c-0.4,0-0.5,0-0.7,0
			c-5.3,0.1-10.7,0.3-16,0.4c-0.6,0-1,0.3-1.3,0.8c-2.7,4.5-5.5,9-8.3,13.5c-0.1,0.2-0.2,0.4-0.4,0.7c0.4,0,0.7,0.1,1,0
			c5.2-0.1,10.4-0.3,15.6-0.4c0.7,0,1.1-0.3,1.4-0.9c2.7-4.4,5.4-8.8,8.1-13.1C246,178.9,246.1,178.6,246.4,178.2z"/>
		<linearGradient id="SVGID_79_" gradientUnits="userSpaceOnUse" x1="-90.1107" y1="270.0429" x2="412.3732" y2="40.5509">
			<stop  offset="0" style="stop-color:#FF1515"/>
			<stop  offset="0.3065" style="stop-color:#9852F4"/>
			<stop  offset="0.6452" style="stop-color:#00D1E9"/>
			<stop  offset="0.9946" style="stop-color:#0054D4"/>
		</linearGradient>
		<path class="st79" d="M63.5,216.8c-0.2-0.3-0.4-0.5-0.5-0.8c-2.8-5.1-5.6-10.3-8.4-15.4c-0.3-0.5-0.3-0.9,0-1.4
			c2.8-5.2,5.6-10.4,8.4-15.5c0.1-0.2,0.3-0.4,0.4-0.7c0.2,0.4,0.4,0.7,0.5,0.9c2.7,5,5.4,10.1,8.2,15.1c0.4,0.7,0.3,1.1,0,1.8
			c-2.7,5-5.5,10-8.2,15.1C63.9,216.2,63.7,216.4,63.5,216.8z M63.4,215.3c0.2-0.2,0.2-0.3,0.3-0.4c2.6-4.8,5.2-9.6,7.8-14.4
			c0.3-0.5,0.2-0.9-0.1-1.3c-2.5-4.6-5-9.3-7.5-13.9c-0.1-0.2-0.3-0.5-0.5-0.8c-0.2,0.4-0.4,0.7-0.5,1c-2.4,4.5-4.9,9.1-7.4,13.6
			c-0.4,0.7-0.3,1.2,0,1.9c2.5,4.5,4.9,9,7.4,13.6C63.1,214.7,63.2,214.9,63.4,215.3z"/>
		<linearGradient id="SVGID_80_" gradientUnits="userSpaceOnUse" x1="-73.3942" y1="306.6447" x2="429.0882" y2="77.1535">
			<stop  offset="0" style="stop-color:#FF1515"/>
			<stop  offset="0.3065" style="stop-color:#9852F4"/>
			<stop  offset="0.6452" style="stop-color:#00D1E9"/>
			<stop  offset="0.9946" style="stop-color:#0054D4"/>
		</linearGradient>
		<path class="st80" d="M160.4,216.8c-0.2-0.4-0.4-0.7-0.6-1c-2.7-5-5.4-10.1-8.2-15.1c-0.4-0.6-0.4-1.1,0-1.8
			c2.8-5,5.5-10,8.2-15.1c0.2-0.3,0.3-0.6,0.6-1c0.2,0.4,0.4,0.7,0.6,1c2.7,5,5.4,10.1,8.2,15.1c0.4,0.7,0.3,1.1,0,1.8
			c-2.7,5-5.5,10.1-8.2,15.1C160.8,216.2,160.6,216.4,160.4,216.8z M160.4,184.5c-0.2,0.3-0.3,0.4-0.3,0.5
			c-2.6,4.8-5.2,9.5-7.7,14.3c-0.3,0.5-0.2,0.9,0.1,1.3c2.5,4.7,5.1,9.3,7.6,14c0.1,0.2,0.3,0.4,0.4,0.7c0.2-0.3,0.4-0.6,0.5-0.8
			c2.5-4.6,4.9-9.2,7.5-13.7c0.3-0.6,0.3-1.1,0-1.7c-2.5-4.5-4.9-9.1-7.4-13.6C160.8,185.1,160.6,184.9,160.4,184.5z"/>
		<linearGradient id="SVGID_81_" gradientUnits="userSpaceOnUse" x1="-131.201" y1="180.0608" x2="371.27" y2="-49.4253">
			<stop  offset="0" style="stop-color:#FF1515"/>
			<stop  offset="0.3065" style="stop-color:#9852F4"/>
			<stop  offset="0.6452" style="stop-color:#00D1E9"/>
			<stop  offset="0.9946" style="stop-color:#0054D4"/>
		</linearGradient>
		<path class="st81" d="M53.9,110.6c-0.5,0-0.8,0-1.1,0c-5.7-0.2-11.4-0.3-17.2-0.5c-0.6,0-1.1-0.1-1.4-0.7
			c-3.1-5.1-6.2-10.1-9.3-15.1c-0.1-0.1-0.2-0.3-0.3-0.5c0.3,0,0.6-0.1,0.8-0.1c5.8,0.2,11.6,0.3,17.5,0.5c0.6,0,1,0.2,1.4,0.8
			c3,4.9,6,9.9,9.1,14.8C53.6,110,53.7,110.3,53.9,110.6z M25.8,94.5c3.1,5.1,6.2,10,9.2,14.9c2.7,0.3,16.6,0.6,17.5,0.3
			c-0.2-0.3-0.3-0.5-0.4-0.8c-2.7-4.4-5.4-8.7-8.1-13.1c-0.4-0.7-0.9-0.9-1.6-0.9c-4.8-0.1-9.7-0.3-14.5-0.4
			C27.3,94.4,26.6,94.5,25.8,94.5z"/>
		<linearGradient id="SVGID_82_" gradientUnits="userSpaceOnUse" x1="-42.8271" y1="373.5705" x2="459.6515" y2="144.0809">
			<stop  offset="0" style="stop-color:#FF1515"/>
			<stop  offset="0.3065" style="stop-color:#9852F4"/>
			<stop  offset="0.6452" style="stop-color:#00D1E9"/>
			<stop  offset="0.9946" style="stop-color:#0054D4"/>
		</linearGradient>
		<path class="st82" d="M199.2,261.3c-0.2,0.3-0.3,0.6-0.4,0.8c-3,5-6.1,9.9-9.1,14.9c-0.3,0.5-0.7,0.8-1.3,0.8
			c-5.9,0.1-11.8,0.3-17.8,0.5c-0.2,0-0.3,0-0.6,0c0.1-0.3,0.2-0.5,0.3-0.7c3.1-5,6.2-10,9.2-15.1c0.3-0.5,0.6-0.8,1.2-0.8
			c5.9-0.1,11.8-0.3,17.8-0.5C198.7,261.2,198.9,261.3,199.2,261.3z M171.2,277.5c0.4,0,0.7,0,1,0c5.2-0.1,10.4-0.3,15.6-0.4
			c0.7,0,1-0.2,1.4-0.8c2.7-4.4,5.4-8.9,8.2-13.3c0.2-0.3,0.3-0.5,0.5-0.9c-0.4,0-0.6-0.1-0.9,0c-5.3,0.1-10.5,0.3-15.8,0.4
			c-0.6,0-0.9,0.2-1.2,0.7c-2.7,4.5-5.5,9-8.3,13.5C171.5,276.9,171.4,277.1,171.2,277.5z"/>
		<linearGradient id="SVGID_83_" gradientUnits="userSpaceOnUse" x1="-108.3453" y1="230.1082" x2="394.128" y2="0.621">
			<stop  offset="0" style="stop-color:#FF1515"/>
			<stop  offset="0.3065" style="stop-color:#9852F4"/>
			<stop  offset="0.6452" style="stop-color:#00D1E9"/>
			<stop  offset="0.9946" style="stop-color:#0054D4"/>
		</linearGradient>
		<path class="st83" d="M218.4,82.6c0.2-0.4,0.3-0.6,0.5-0.9c3-4.9,6.1-9.9,9.1-14.8c0.3-0.5,0.6-0.8,1.2-0.8c6-0.1,12-0.3,18-0.5
			c0.1,0,0.3,0,0.5,0c-0.1,0.3-0.2,0.5-0.3,0.6c-3.1,5-6.2,10-9.2,15.1c-0.3,0.5-0.6,0.8-1.2,0.8c-5.9,0.1-11.8,0.3-17.8,0.5
			C218.9,82.7,218.7,82.7,218.4,82.6z M219.7,81.9c0.3,0,0.4,0.1,0.6,0.1c5.4-0.1,10.9-0.3,16.3-0.4c0.5,0,0.8-0.3,1-0.7
			c2.8-4.6,5.6-9.1,8.4-13.7c0.1-0.2,0.2-0.4,0.3-0.7c-0.5,0-0.9,0-1.3,0c-5,0.1-10.1,0.3-15.1,0.4c-0.8,0-1.2,0.3-1.6,1
			c-2.7,4.4-5.4,8.8-8.1,13.1C220,81.2,219.9,81.5,219.7,81.9z"/>
		<linearGradient id="SVGID_84_" gradientUnits="userSpaceOnUse" x1="-67.9111" y1="318.6466" x2="434.5729" y2="89.1545">
			<stop  offset="0" style="stop-color:#FF1515"/>
			<stop  offset="0.3065" style="stop-color:#9852F4"/>
			<stop  offset="0.6452" style="stop-color:#00D1E9"/>
			<stop  offset="0.9946" style="stop-color:#0054D4"/>
		</linearGradient>
		<path class="st84" d="M24.5,261.2c0.5,0,0.9,0,1.2,0c5.7,0.2,11.4,0.3,17.2,0.5c0.6,0,1,0.1,1.4,0.7c3.1,5.1,6.3,10.2,9.4,15.3
			c0.1,0.1,0.1,0.2,0.2,0.5c-6.5-0.1-12.9-0.3-19.3-0.5C31.3,272.2,28,266.8,24.5,261.2z M52.6,277.5c-0.1-0.3-0.1-0.4-0.2-0.5
			c-2.8-4.6-5.7-9.3-8.5-13.9c-0.3-0.4-0.6-0.6-1.1-0.6c-5.3-0.1-10.7-0.3-16-0.4c-0.2,0-0.4,0-0.8,0.1c0.2,0.3,0.3,0.5,0.4,0.7
			c2.8,4.5,5.5,9,8.3,13.5c0.4,0.6,0.8,0.8,1.4,0.8c5.1,0.1,10.2,0.3,15.3,0.4C51.7,277.5,52.1,277.5,52.6,277.5z"/>
		<linearGradient id="SVGID_85_" gradientUnits="userSpaceOnUse" x1="-56.676" y1="343.2645" x2="445.8137" y2="113.7698">
			<stop  offset="0" style="stop-color:#FF1515"/>
			<stop  offset="0.3065" style="stop-color:#9852F4"/>
			<stop  offset="0.6452" style="stop-color:#00D1E9"/>
			<stop  offset="0.9946" style="stop-color:#0054D4"/>
		</linearGradient>
		<path class="st85" d="M257.2,216.8c-0.2-0.4-0.4-0.6-0.5-0.9c-2.7-5.1-5.5-10.1-8.2-15.2c-0.3-0.6-0.3-1.1,0-1.7
			c2.8-5.1,5.5-10.2,8.3-15.3c0.1-0.2,0.3-0.5,0.5-0.8c0.2,0.3,0.4,0.5,0.5,0.7c2.8,5.1,5.6,10.3,8.4,15.4c0.2,0.4,0.4,0.8,0.1,1.3
			c-2.9,5.3-5.7,10.6-8.6,15.9C257.5,216.5,257.4,216.6,257.2,216.8z M257.2,184.5c-0.1,0.2-0.2,0.3-0.3,0.4
			c-2.6,4.8-5.2,9.6-7.8,14.5c-0.3,0.5-0.1,0.8,0.1,1.2c2.5,4.7,5.1,9.4,7.6,14.1c0.1,0.2,0.3,0.3,0.4,0.6c0.1-0.2,0.2-0.3,0.3-0.4
			c2.6-4.8,5.2-9.5,7.7-14.3c0.3-0.5,0.3-0.8,0-1.3c-2.5-4.7-5.1-9.3-7.6-14C257.6,185,257.4,184.8,257.2,184.5z"/>
		<linearGradient id="SVGID_86_" gradientUnits="userSpaceOnUse" x1="-82.8474" y1="285.9333" x2="419.6234" y2="56.4473">
			<stop  offset="0" style="stop-color:#FF1515"/>
			<stop  offset="0.3065" style="stop-color:#9852F4"/>
			<stop  offset="0.6452" style="stop-color:#00D1E9"/>
			<stop  offset="0.9946" style="stop-color:#0054D4"/>
		</linearGradient>
		<path class="st86" d="M121.5,194.3c0.3-0.5,0.5-0.8,0.7-1.1c3-4.8,5.9-9.6,8.9-14.5c0.4-0.6,0.8-0.9,1.5-0.9
			c5.8-0.1,11.6-0.3,17.4-0.5c0.3,0,0.5,0,0.9,0c-0.2,0.3-0.3,0.5-0.4,0.7c-3.1,5-6.1,10-9.2,15c-0.3,0.5-0.7,0.8-1.3,0.8
			c-5.9,0.1-11.7,0.3-17.6,0.5C122.1,194.4,121.9,194.4,121.5,194.3z M122.7,193.6c0.5,0,0.7,0,1,0c5.2-0.1,10.5-0.3,15.7-0.4
			c0.7,0,1-0.3,1.4-0.8c2.7-4.4,5.4-8.8,8.1-13.2c0.2-0.3,0.3-0.6,0.5-1c-0.3,0-0.5,0-0.7,0c-5.3,0.1-10.7,0.3-16,0.4
			c-0.7,0-1,0.3-1.3,0.8c-2.6,4.2-5.2,8.5-7.8,12.7C123.4,192.5,123.1,193,122.7,193.6z"/>
		<linearGradient id="SVGID_87_" gradientUnits="userSpaceOnUse" x1="-127.233" y1="188.7338" x2="375.2285" y2="-40.748">
			<stop  offset="0" style="stop-color:#FF1515"/>
			<stop  offset="0.3065" style="stop-color:#9852F4"/>
			<stop  offset="0.6452" style="stop-color:#00D1E9"/>
			<stop  offset="0.9946" style="stop-color:#0054D4"/>
		</linearGradient>
		<path class="st87" d="M169.9,54.8c0.2-0.3,0.2-0.5,0.3-0.6c3.1-5,6.2-10,9.2-15.1c0.3-0.5,0.7-0.8,1.3-0.8
			c5.9-0.1,11.7-0.3,17.6-0.5c0.2,0,0.5,0,0.8,0c-0.2,0.3-0.2,0.6-0.4,0.8c-3,5-6.1,9.9-9.1,14.9c-0.3,0.5-0.5,0.8-1.2,0.8
			c-6,0.1-12,0.3-18,0.5C170.4,54.8,170.2,54.8,169.9,54.8z M171.2,54.1c0.4,0,0.5,0,0.7,0c5.3-0.1,10.7-0.3,16-0.4
			c0.6,0,1-0.3,1.3-0.8c2.7-4.5,5.5-8.9,8.2-13.4c0.1-0.2,0.3-0.5,0.4-0.8c-0.4,0-0.6-0.1-0.9-0.1c-5.3,0.1-10.5,0.3-15.8,0.4
			c-0.6,0-1,0.3-1.3,0.8c-2.7,4.4-5.4,8.9-8.2,13.3C171.6,53.4,171.4,53.7,171.2,54.1z"/>
		<linearGradient id="SVGID_88_" gradientUnits="userSpaceOnUse" x1="-116.7156" y1="211.791" x2="385.7643" y2="-17.6992">
			<stop  offset="0" style="stop-color:#FF1515"/>
			<stop  offset="0.3065" style="stop-color:#9852F4"/>
			<stop  offset="0.6452" style="stop-color:#00D1E9"/>
			<stop  offset="0.9946" style="stop-color:#0054D4"/>
		</linearGradient>
		<path class="st88" d="M169.9,65.8c0.3,0,0.4-0.1,0.6-0.1c6,0.2,12,0.3,18,0.5c0.5,0,0.8,0.1,1,0.5c3.1,5.1,6.3,10.3,9.5,15.4
			c0.1,0.1,0.1,0.2,0.2,0.5c-0.4,0-0.6,0.1-0.9,0.1c-5.8-0.2-11.6-0.3-17.4-0.5c-0.5,0-1-0.1-1.3-0.6c-3.2-5.2-6.3-10.3-9.5-15.5
			C170.1,66,170,66,169.9,65.8z M197.9,81.9c-0.2-0.3-0.3-0.6-0.5-0.9c-2.7-4.4-5.4-8.8-8.1-13.2c-0.4-0.6-0.8-0.9-1.6-0.9
			c-5.1-0.1-10.3-0.3-15.4-0.4c-0.3,0-0.7,0-1.1,0c0.1,0.2,0.1,0.4,0.2,0.5c2.9,4.7,5.7,9.3,8.6,14c0.3,0.4,0.6,0.5,1,0.5
			c5.4,0.1,10.8,0.3,16.1,0.4C197.4,81.9,197.6,81.9,197.9,81.9z"/>
		<linearGradient id="SVGID_89_" gradientUnits="userSpaceOnUse" x1="-91.2204" y1="267.5966" x2="411.2459" y2="38.1126">
			<stop  offset="0" style="stop-color:#FF1515"/>
			<stop  offset="0.3065" style="stop-color:#9852F4"/>
			<stop  offset="0.6452" style="stop-color:#00D1E9"/>
			<stop  offset="0.9946" style="stop-color:#0054D4"/>
		</linearGradient>
		<path class="st89" d="M73,177.4c2.5,0.1,4.8,0.1,7.1,0.2c3.8,0.1,7.5,0.2,11.3,0.3c0.7,0,1,0.2,1.4,0.8c3,4.9,6,9.9,9.1,14.8
			c0.2,0.3,0.3,0.5,0.5,0.9c-0.5,0-0.8,0-1.1,0c-5.7-0.2-11.4-0.3-17.2-0.5c-0.6,0-1-0.1-1.4-0.7c-3.1-5.1-6.3-10.2-9.4-15.3
			C73.2,177.8,73.2,177.7,73,177.4z M74.3,178.2c0.2,0.3,0.2,0.5,0.3,0.7c2.8,4.6,5.6,9.1,8.4,13.7c0.3,0.5,0.7,0.7,1.2,0.7
			c5.3,0.1,10.5,0.3,15.8,0.4c0.3,0,0.5,0,0.9-0.1c-0.2-0.3-0.3-0.6-0.5-0.8c-2.7-4.4-5.5-8.9-8.2-13.3c-0.4-0.6-0.8-0.9-1.6-0.9
			c-5.1-0.1-10.1-0.3-15.2-0.4C75.3,178.2,74.9,178.2,74.3,178.2z"/>
		<linearGradient id="SVGID_90_" gradientUnits="userSpaceOnUse" x1="-125.062" y1="193.5078" x2="377.411" y2="-35.9793">
			<stop  offset="0" style="stop-color:#FF1515"/>
			<stop  offset="0.3065" style="stop-color:#9852F4"/>
			<stop  offset="0.6452" style="stop-color:#00D1E9"/>
			<stop  offset="0.9946" style="stop-color:#0054D4"/>
		</linearGradient>
		<path class="st90" d="M121.5,82.6c0.2-0.4,0.4-0.7,0.6-1c3-4.9,6-9.7,9-14.6c0.4-0.6,0.8-0.8,1.5-0.8c5.8-0.1,11.6-0.3,17.4-0.5
			c0.3,0,0.5,0,0.9,0c-0.2,0.3-0.3,0.5-0.4,0.7c-3.1,5-6.1,10-9.2,15c-0.3,0.5-0.6,0.8-1.3,0.8c-5.9,0.1-11.8,0.3-17.8,0.5
			C122,82.7,121.8,82.7,121.5,82.6z M149.5,66.5c-0.3,0-0.5,0-0.7,0c-5.4,0.1-10.8,0.3-16.1,0.4c-0.6,0-0.9,0.3-1.2,0.8
			c-2.8,4.5-5.6,9-8.3,13.6c-0.1,0.2-0.2,0.4-0.3,0.7c0.4,0,0.8,0,1.1,0c5.1-0.1,10.2-0.3,15.3-0.4c0.8,0,1.2-0.3,1.6-0.9
			c2.6-4.4,5.3-8.7,8-13.1C149.1,67.2,149.2,66.9,149.5,66.5z"/>
		<linearGradient id="SVGID_91_" gradientUnits="userSpaceOnUse" x1="-101.7185" y1="244.6118" x2="400.7484" y2="15.1276">
			<stop  offset="0" style="stop-color:#FF1515"/>
			<stop  offset="0.3065" style="stop-color:#9852F4"/>
			<stop  offset="0.6452" style="stop-color:#00D1E9"/>
			<stop  offset="0.9946" style="stop-color:#0054D4"/>
		</linearGradient>
		<path class="st91" d="M102.4,149.6c-3.4,5.5-6.7,11-10.1,16.4c-6.4,0.2-12.7,0.4-19.2,0.5c0.2-0.3,0.3-0.6,0.4-0.8
			c3-5,6.1-9.9,9.1-14.9c0.3-0.5,0.7-0.8,1.4-0.8c5.8-0.1,11.6-0.3,17.5-0.5C101.7,149.5,101.9,149.6,102.4,149.6z M101,150.4
			c-0.3,0-0.5-0.1-0.6-0.1c-5.4,0.1-10.9,0.3-16.3,0.4c-0.6,0-0.8,0.4-1.1,0.8c-2.7,4.5-5.5,8.9-8.2,13.4c-0.2,0.2-0.3,0.5-0.4,0.8
			c0.3,0,0.4,0,0.5,0c5.4-0.1,10.8-0.3,16.2-0.4c0.6,0,0.9-0.3,1.2-0.8c2.8-4.5,5.5-9,8.3-13.5C100.7,150.9,100.8,150.7,101,150.4z"
			/>
		<linearGradient id="SVGID_92_" gradientUnits="userSpaceOnUse" x1="-115.5989" y1="214.2195" x2="386.8701" y2="-15.2657">
			<stop  offset="0" style="stop-color:#FF1515"/>
			<stop  offset="0.3065" style="stop-color:#9852F4"/>
			<stop  offset="0.6452" style="stop-color:#00D1E9"/>
			<stop  offset="0.9946" style="stop-color:#0054D4"/>
		</linearGradient>
		<path class="st92" d="M160.3,105.1c-0.2-0.4-0.4-0.6-0.5-0.9c-2.7-5.1-5.5-10.1-8.2-15.2c-0.3-0.6-0.3-1.1,0-1.7
			c2.8-5.1,5.5-10.2,8.3-15.3c0.1-0.2,0.3-0.5,0.5-0.8c0.2,0.3,0.4,0.5,0.5,0.7c2.8,5.1,5.6,10.3,8.4,15.4c0.2,0.4,0.4,0.8,0.1,1.3
			c-2.9,5.3-5.7,10.6-8.6,15.9C160.6,104.8,160.5,104.9,160.3,105.1z M160.4,103.6c0.1-0.2,0.2-0.4,0.3-0.5
			c2.6-4.8,5.2-9.5,7.7-14.3c0.3-0.5,0.2-0.9,0-1.3c-2.5-4.7-5.1-9.3-7.6-14c-0.1-0.2-0.3-0.4-0.5-0.7c-0.2,0.3-0.3,0.6-0.5,0.8
			c-2.5,4.6-4.9,9.2-7.5,13.7c-0.3,0.6-0.3,1.1,0,1.7c2.5,4.6,5,9.2,7.5,13.7C160,103,160.2,103.3,160.4,103.6z"/>
		<linearGradient id="SVGID_93_" gradientUnits="userSpaceOnUse" x1="-98.872" y1="250.832" x2="403.5932" y2="21.3485">
			<stop  offset="0" style="stop-color:#FF1515"/>
			<stop  offset="0.3065" style="stop-color:#9852F4"/>
			<stop  offset="0.6452" style="stop-color:#00D1E9"/>
			<stop  offset="0.9946" style="stop-color:#0054D4"/>
		</linearGradient>
		<path class="st93" d="M257.2,105.1c-0.2-0.4-0.4-0.6-0.5-0.9c-2.7-5.1-5.5-10.1-8.2-15.2c-0.3-0.6-0.3-1.1,0-1.7
			c2.8-5.1,5.5-10.2,8.3-15.3c0.1-0.2,0.3-0.5,0.5-0.8c0.2,0.3,0.4,0.5,0.5,0.7c2.8,5.1,5.6,10.3,8.4,15.4c0.2,0.4,0.4,0.8,0.1,1.3
			c-2.9,5.3-5.7,10.6-8.6,15.9C257.5,104.8,257.4,104.9,257.2,105.1z M257.3,72.8c-0.2,0.2-0.3,0.4-0.3,0.5
			c-2.6,4.8-5.2,9.5-7.7,14.3c-0.3,0.5-0.2,0.9,0.1,1.3c2.6,4.7,5.1,9.4,7.6,14.1c0.1,0.2,0.3,0.3,0.4,0.6c0.2-0.3,0.3-0.5,0.4-0.7
			c2.5-4.6,5-9.2,7.5-13.8c0.3-0.6,0.3-1.1,0-1.7c-2.5-4.6-5-9.2-7.5-13.7C257.6,73.4,257.5,73.1,257.3,72.8z"/>
		<linearGradient id="SVGID_94_" gradientUnits="userSpaceOnUse" x1="-74.5006" y1="304.2302" x2="427.9879" y2="74.7361">
			<stop  offset="0" style="stop-color:#FF1515"/>
			<stop  offset="0.3065" style="stop-color:#9852F4"/>
			<stop  offset="0.6452" style="stop-color:#00D1E9"/>
			<stop  offset="0.9946" style="stop-color:#0054D4"/>
		</linearGradient>
		<path class="st94" d="M199.2,194.3c-1,0-1.9,0-2.8,0c-5.1-0.1-10.2-0.3-15.3-0.4c-0.8,0-1.3-0.3-1.7-1c-2.9-4.9-5.9-9.7-8.9-14.5
			c-0.2-0.3-0.3-0.6-0.6-0.9c0.3,0,0.4-0.1,0.6-0.1c6,0.2,12,0.3,18,0.5c0.5,0,0.8,0.2,1.1,0.6c3.1,5.1,6.3,10.2,9.4,15.3
			C199,194,199.1,194.1,199.2,194.3z M171.2,178.2c0.2,0.3,0.2,0.5,0.3,0.7c2.8,4.6,5.6,9.1,8.4,13.7c0.3,0.5,0.7,0.7,1.2,0.7
			c5.3,0.1,10.5,0.3,15.8,0.4c0.3,0,0.5,0,0.9-0.1c-0.2-0.4-0.3-0.6-0.5-0.9c-2.7-4.4-5.4-8.7-8.1-13.1c-0.4-0.7-0.9-0.9-1.7-1
			c-4.9-0.1-9.8-0.3-14.7-0.4C172.4,178.2,171.9,178.2,171.2,178.2z"/>
		<linearGradient id="SVGID_95_" gradientUnits="userSpaceOnUse" x1="-113.406" y1="219.029" x2="389.0667" y2="-10.4579">
			<stop  offset="0" style="stop-color:#FF1515"/>
			<stop  offset="0.3065" style="stop-color:#9852F4"/>
			<stop  offset="0.6452" style="stop-color:#00D1E9"/>
			<stop  offset="0.9946" style="stop-color:#0054D4"/>
		</linearGradient>
		<path class="st95" d="M111.9,133c-0.3-0.4-0.4-0.7-0.6-0.9c-2.7-5.1-5.5-10.1-8.2-15.2c-0.3-0.5-0.4-0.9-0.1-1.5
			c2.8-5.1,5.6-10.3,8.4-15.4c0.1-0.2,0.2-0.4,0.5-0.8c3.1,5.7,6.1,11.3,9.2,16.9C118.1,121.7,115.1,127.3,111.9,133z M103.6,116
			c0.9,2.1,7.9,14.8,8.4,15.3c2.8-5.1,5.5-10.2,8.3-15.3c-2.8-5.1-5.5-10.2-8.4-15.5C109.1,105.9,106.3,111,103.6,116z"/>
		<linearGradient id="SVGID_96_" gradientUnits="userSpaceOnUse" x1="-96.6983" y1="255.6099" x2="405.7747" y2="26.1228">
			<stop  offset="0" style="stop-color:#FF1515"/>
			<stop  offset="0.3065" style="stop-color:#9852F4"/>
			<stop  offset="0.6452" style="stop-color:#00D1E9"/>
			<stop  offset="0.9946" style="stop-color:#0054D4"/>
		</linearGradient>
		<path class="st96" d="M199.6,116.1c3-5.6,6-11.2,9.1-16.8c0.2,0.2,0.4,0.4,0.5,0.6c2.8,5.2,5.6,10.4,8.5,15.6
			c0.2,0.4,0.3,0.7,0.1,1.1c-2.9,5.3-5.8,10.7-8.7,16c0,0.1-0.1,0.1-0.3,0.3C205.7,127.3,202.7,121.7,199.6,116.1z M208.8,131.6
			c2.9-5.3,5.6-10.4,8.3-15.4c-1.8-3.7-7.8-14.7-8.5-15.3c-2.8,5.1-5.5,10.2-8.3,15.3C203.2,121.2,205.9,126.3,208.8,131.6z"/>
		<linearGradient id="SVGID_97_" gradientUnits="userSpaceOnUse" x1="-130.1627" y1="182.3413" x2="372.3158" y2="-47.1483">
			<stop  offset="0" style="stop-color:#FF1515"/>
			<stop  offset="0.3065" style="stop-color:#9852F4"/>
			<stop  offset="0.6452" style="stop-color:#00D1E9"/>
			<stop  offset="0.9946" style="stop-color:#0054D4"/>
		</linearGradient>
		<path class="st97" d="M15,99.1c3.1,5.8,6.1,11.3,9.2,17c-3,5.6-6,11.2-9.1,16.8c-0.6-0.6-8.2-14.4-9.3-16.8
			C8.9,110.5,11.9,104.9,15,99.1z M23.4,116.1c-2.8-5.1-5.5-10.2-8.4-15.5c-2.9,5.3-5.6,10.3-8.3,15.4c0.9,2,7.9,14.8,8.4,15.3
			C17.9,126.3,20.6,121.3,23.4,116.1z"/>
		<linearGradient id="SVGID_98_" gradientUnits="userSpaceOnUse" x1="-54.4769" y1="348.0595" x2="447.9991" y2="118.5711">
			<stop  offset="0" style="stop-color:#FF1515"/>
			<stop  offset="0.3065" style="stop-color:#9852F4"/>
			<stop  offset="0.6452" style="stop-color:#00D1E9"/>
			<stop  offset="0.9946" style="stop-color:#0054D4"/>
		</linearGradient>
		<path class="st98" d="M208.8,210.9c3.1,5.7,6.1,11.3,9.1,16.9c-3,5.6-6,11.2-9.1,16.9c-0.2-0.3-0.4-0.5-0.5-0.7
			c-2.8-5.2-5.6-10.3-8.4-15.4c-0.3-0.5-0.3-0.8,0-1.3c2.8-5.2,5.7-10.4,8.5-15.6C208.5,211.4,208.6,211.2,208.8,210.9z
			 M208.8,243.3c2.9-5.3,5.6-10.4,8.3-15.4c-1.4-3.1-7.9-14.8-8.5-15.3c-2.8,5.1-5.5,10.2-8.2,15.2
			C203.2,232.9,205.9,238,208.8,243.3z"/>
		<linearGradient id="SVGID_99_" gradientUnits="userSpaceOnUse" x1="-71.1908" y1="311.4603" x2="431.2842" y2="81.9724">
			<stop  offset="0" style="stop-color:#FF1515"/>
			<stop  offset="0.3065" style="stop-color:#9852F4"/>
			<stop  offset="0.6452" style="stop-color:#00D1E9"/>
			<stop  offset="0.9946" style="stop-color:#0054D4"/>
		</linearGradient>
		<path class="st99" d="M112,211c3.1,5.7,6.1,11.2,9.1,16.9c-3,5.6-6,11.2-9.1,16.8c-0.2-0.2-0.4-0.4-0.5-0.6
			c-2.8-5.2-5.6-10.4-8.5-15.6c-0.2-0.4-0.3-0.7-0.1-1.1c2.9-5.3,5.8-10.7,8.7-16C111.7,211.2,111.8,211.2,112,211z M103.6,227.8
			c1.1,2.4,7.9,14.8,8.5,15.3c2.8-5.1,5.5-10.2,8.3-15.3c-2.8-5.1-5.5-10.2-8.4-15.5C109.1,217.6,106.3,222.7,103.6,227.8z"/>
		<linearGradient id="SVGID_100_" gradientUnits="userSpaceOnUse" x1="-87.9231" y1="274.8284" x2="414.556" y2="45.3386">
			<stop  offset="0" style="stop-color:#FF1515"/>
			<stop  offset="0.3065" style="stop-color:#9852F4"/>
			<stop  offset="0.6452" style="stop-color:#00D1E9"/>
			<stop  offset="0.9946" style="stop-color:#0054D4"/>
		</linearGradient>
		<path class="st100" d="M15,244.7c-3.1-5.7-6.1-11.3-9.1-16.9c3-5.6,6-11.2,9.1-16.8c0.2,0.2,0.3,0.3,0.4,0.5
			c2.8,5.2,5.7,10.5,8.5,15.7c0.2,0.4,0.3,0.7,0.1,1.1c-2.9,5.3-5.7,10.6-8.6,15.9C15.3,244.3,15.2,244.4,15,244.7z M15,243.3
			c2.9-5.3,5.6-10.4,8.4-15.5c-2.8-5.1-5.5-10.2-8.4-15.5c-2.9,5.3-5.6,10.4-8.4,15.5C9.4,232.9,12.2,238,15,243.3z"/>
		<linearGradient id="SVGID_101_" gradientUnits="userSpaceOnUse" x1="-68.6086" y1="317.1211" x2="433.8814" y2="87.6263">
			<stop  offset="0" style="stop-color:#FF1515"/>
			<stop  offset="0.3065" style="stop-color:#9852F4"/>
			<stop  offset="0.6452" style="stop-color:#00D1E9"/>
			<stop  offset="0.9946" style="stop-color:#0054D4"/>
		</linearGradient>
		<path class="st101" d="M15,266.8c0.2,0.4,0.4,0.7,0.5,0.9c2.7,5,5.4,10.1,8.2,15.1c0.3,0.6,0.4,1.1,0,1.7c-0.6,1-1.1,2-1.7,3.1
			c-0.2,0.4-0.4,0.6-1,0.3c0.6-1.1,1.1-2.2,1.8-3.2c0.4-0.7,0.4-1.2,0-1.9c-2.5-4.5-4.9-9-7.4-13.5c-0.1-0.3-0.3-0.5-0.5-0.9
			c-0.2,0.3-0.4,0.5-0.5,0.7c-2.5,4.6-5,9.2-7.5,13.8c-0.3,0.6-0.3,1,0,1.6c0.5,0.8,1,1.7,1.4,2.6c0.1,0.3,0.3,0.5,0.4,0.8
			c-0.5,0.2-0.7,0.1-0.9-0.3c-0.6-1.2-1.3-2.4-1.9-3.5c-0.3-0.5,0-0.8,0.2-1.2c1.8-3.4,3.7-6.8,5.5-10.2c0.9-1.7,1.8-3.4,2.7-5.1
			C14.7,267.4,14.8,267.1,15,266.8z"/>
		<linearGradient id="SVGID_102_" gradientUnits="userSpaceOnUse" x1="-51.8776" y1="353.7269" x2="450.5699" y2="124.2515">
			<stop  offset="0" style="stop-color:#FF1515"/>
			<stop  offset="0.3065" style="stop-color:#9852F4"/>
			<stop  offset="0.6452" style="stop-color:#00D1E9"/>
			<stop  offset="0.9946" style="stop-color:#0054D4"/>
		</linearGradient>
		<path class="st102" d="M111.9,268.3c-0.3,0.4-0.4,0.7-0.6,0.9c-2.4,4.5-4.9,9-7.4,13.5c-0.4,0.7-0.4,1.2,0,1.9
			c0.6,1,1.2,2.2,1.8,3.2c-0.4,0.3-0.7,0.2-0.9-0.2c-0.7-1.2-1.3-2.4-2-3.6c-0.2-0.4,0-0.7,0.2-1c0.8-1.5,1.7-3.1,2.5-4.6
			c1.9-3.5,3.8-7.1,5.7-10.6c0.2-0.3,0.3-0.6,0.6-1c0.2,0.2,0.3,0.4,0.4,0.6c2.8,5.2,5.6,10.4,8.4,15.5c0.3,0.5,0.3,0.9,0,1.4
			c-0.6,1-1.2,2.1-1.7,3.2c-0.2,0.4-0.4,0.6-1,0.4c0.5-0.9,0.9-1.7,1.4-2.6c1.1-2,1.1-1.2,0-3.2c-2.3-4.2-4.6-8.4-6.8-12.7
			C112.4,269.1,112.2,268.8,111.9,268.3z"/>
		<linearGradient id="SVGID_103_" gradientUnits="userSpaceOnUse" x1="-35.1806" y1="390.3327" x2="467.3145" y2="160.8356">
			<stop  offset="0" style="stop-color:#FF1515"/>
			<stop  offset="0.3065" style="stop-color:#9852F4"/>
			<stop  offset="0.6452" style="stop-color:#00D1E9"/>
			<stop  offset="0.9946" style="stop-color:#0054D4"/>
		</linearGradient>
		<path class="st103" d="M208.8,266.8c0.2,0.4,0.4,0.6,0.5,0.9c2.7,5.1,5.5,10.1,8.2,15.2c0.3,0.6,0.4,1.1,0,1.7c-0.6,1-1.1,2-1.6,3
			c-0.2,0.3-0.4,0.7-0.9,0.4c0.1-0.2,0.1-0.4,0.2-0.6c0.5-1,1.1-2.1,1.7-3.1c0.2-0.3,0.3-0.7,0.1-1c-2.6-4.8-5.3-9.7-7.9-14.5
			c0-0.1-0.1-0.2-0.2-0.4c-0.2,0.4-0.4,0.6-0.5,0.8c-2.5,4.6-5,9.2-7.5,13.8c-0.3,0.6-0.3,1,0,1.6c0.6,1.1,1.2,2.2,1.8,3.4
			c-0.4,0.2-0.7,0.2-0.9-0.2c-0.7-1.2-1.4-2.5-2-3.7c-0.1-0.2,0-0.5,0.1-0.8c0.2-0.4,0.4-0.8,0.7-1.3c2.6-4.7,5.1-9.5,7.7-14.2
			C208.4,267.5,208.6,267.2,208.8,266.8z"/>
	</g>
</g>
</svg>
